<svg width="442" height="302" xmlns="http://www.w3.org/2000/svg">
  <g fill-rule="nonzero" fill="none">
    <path d="M53.104 287.7134V302h32.8278c.002-2.7189-1.725-5.1419-4.3059-6.0411l-14.4257-5.0472-1.6755-6.1688-12.4208 2.9705zM5.0474 284.4764l-1.1853 16.5649H34.759c-.002-2.8383-1.862-5.345-4.5895-6.186l-14.044-4.3157-1.0225-6.7555-10.0555.6923z" fill="#19192B"/>
    <path d="M97.751 107.3895a22.6533 22.6533 0 015.2329.4406c2.9925.5787 7.0861 3.7165 7.0861 3.7165l-7.0861 4.4597-7.3968-3.589 2.164-5.0278z" fill="#A55B3A"/>
    <path d="M54.1801 152.4381l9.8529 72.847 4.5194 62.1246s-5.7545 2.507-11.1441 2.0773l-5.384-.4243-9.5665-62.8685-24.1128-69.7449 35.8351-4.0112z" fill="#19192B"/>
    <path d="M43.4487 155.0917s-1.36 68.5327-1.3319 72.7984c.0281 4.2657-25.1259 61.4637-25.1259 61.4637s-5.3275.9491-9.7053-1.479l-4.389-2.439 17.1121-64.0464S5.0321 170.9625 5.847 158.3475l.8093-12.6205 36.7925 9.3647zM118.7597 211.8794h10.6208v89.1619h-10.6208z" fill="#303D72"/>
    <path d="M159.3118 301.0413c0-4.236-3.5592-7.6699-7.9498-7.6699H97.7438c-2.1084 0-4.1305.8081-5.6214 2.2465-1.4909 1.4383-2.3285 3.3892-2.3285 5.4234h69.518zM146.76 209.962H98.478c-10.6596 0-19.3019-8.5574-19.305-19.1155v-69.1731c0-3.6593 2.995-6.6258 6.6896-6.6258h54.2077c3.6946 0 6.6896 2.9665 6.6896 6.6258v88.2885z" fill="#303D72"/>
    <path d="M152.5532 204.2095h-52.5317c-8.3147 0-15.0552-6.6634-15.0552-14.8833v-67.6638c0-3.6532 2.9958-6.6148 6.6912-6.6148h54.2044c3.6955 0 6.6913 2.9616 6.6913 6.6148v82.5471z" fill="#A9C2DC"/>
    <path d="M175.934 204.2095H99.4493v5.7524h76.4849c1.5036-.0683 2.6883-1.3358 2.6883-2.8762 0-1.5404-1.1847-2.8079-2.6883-2.8762z" fill="#A9C2DC"/>
    <path d="M108.9732 204.2124H96.5526v5.7467h12.4034c1.0715.0469 2.0826-.4903 2.6326-1.3986.55-.9084.55-2.0412 0-2.9496-.55-.9083-1.5611-1.4455-2.6326-1.3985h.0172zM116.8287 209.9619h15.4484v9.5873h-15.4484zM281.9337 211.8794h10.6208v89.1619h-10.6208z" fill="#303D72"/>
    <path d="M252.9679 301.0413c0-4.236 3.5595-7.6699 7.9505-7.6699h53.6169c2.1086 0 4.1308.8081 5.6218 2.2465 1.491 1.4383 2.3287 3.3892 2.3287 5.4234h-69.518z" fill="#303D72"/>
    <path d="M270.7849 278.4376l.8556 13.9324-2.7807 2.0118c-2.0876 1.5126-3.3308 3.954-3.34 6.5593V302h11.4352l9.8063-11.2295-7.4041-17.5324-8.5723 5.1995zM232.6918 286.7485L231.4332 302h-34.4658c.001-3.7086 2.283-7.018 5.7049-8.2732l16.4607-6.0535 5.4246-6.7654 8.1342 5.8406z" fill="#19192B"/>
    <path d="M264.5542 209.962h48.2819c5.1195.0014 10.0298-2.012 13.6503-5.597 3.6206-3.5849 5.6546-8.4478 5.6546-13.5185v-69.1731c0-3.6593-2.995-6.6258-6.6895-6.6258h-54.2077c-3.6946 0-6.6896 2.9665-6.6896 6.6258v88.2885z" fill="#303D72"/>
    <path d="M258.761 204.2095h52.5316c8.3148 0 15.0553-6.6634 15.0553-14.8833v-67.6638c0-3.6532-2.9958-6.6148-6.6912-6.6148h-54.2044c-3.6955 0-6.6913 2.9616-6.6913 6.6148v82.5471z" fill="#A9C2DC"/>
    <path d="M234.6909 204.2124h77.174v5.7467h-77.174c-1.0432.0469-2.0276-.4903-2.563-1.3986a2.9089 2.9089 0 010-2.9496c.5354-.9083 1.5198-1.4455 2.563-1.3985z" fill="#A9C2DC"/>
    <path d="M301.9689 204.2095h11.8271v5.7524H301.969c-1.4854-.0683-2.6558-1.3358-2.6558-2.8762 0-1.5404 1.1704-2.8079 2.6558-2.8762z" fill="#303D72"/>
    <path fill="#19192B" d="M10.7943 301.0413H3.862l22.9992-128.4699h6.9321z"/>
    <path d="M49.8602 59.4413l11.3062 42.0835 36.6885 4.5184a6.6899 6.6899 0 010 5.663l-1.4374 2.8807s-34.7425 1.7635-42.173-1.6101c-7.4306-3.3737-4.3843-53.5355-4.3843-53.5355z" fill="#26335E"/>
    <path d="M22.4781 52.6487s-12.8404 3.062-16.7633 6.3117c-3.5412 2.9297-1.0719 73.3793-.2132 89.1697a61.4666 61.4666 0 010 6.8965l-.7071 11.669s32.0168 3.9724 43.7741.8331c11.7573-3.1393 11.2915-1.0703 11.2915-1.0703s-6.3528-102.4442-9.8885-108.8c-2.9295-5.258-18.4637-5.887-18.4637-5.887l-9.0298.8773z" fill="#303D72"/>
    <path d="M259.907 110.254s-8.4127 20.0957-10.5366 31.8461c-2.124 11.7504-3.161 12.546-3.161 12.546l-17.3797 3.5607v5.736h44.4142l-13.337-53.6888z" fill="#F89900"/>
    <path d="M176.6913 125.6604s2.5943-1.3975 5.0846-2.5857c2.4903-1.1882 16.157.9683 16.157.9683s-.5473 1.6593-1.1768 1.9734c-.6294.314-7.3943-.377-7.3943-.377a4.031 4.031 0 01.394 1.874c0 1.1934 0 2.57-1.8006 3.4441-1.8007.8742-7.8158 0-7.8158 0l-3.448-5.297z" fill="#FBAD83"/>
    <path d="M141.0552 116.0063s3.701 17.6106 5.3985 25.9303c.8126 3.9834 30.5321-16.645 30.5321-16.645s3.662 1.5117 4.5804 3.9337l.9183 2.422s-28.4896 22.4324-34.35 25.0034c-7.3297 3.2164-12.3998 1.4786-15.3607-6.0136-2.9608-7.4922 8.2814-34.6308 8.2814-34.6308z" fill="#E2E2E2"/>
    <path d="M290.7589 102.5841s15.3837 1.507 20.5808 10.0564c5.197 8.5492 4.3337 72.3944 4.3337 72.3944h-63.671s3.033-69.602 7.7984-75.6191c4.7653-6.0172 18.8989-6.8317 18.8989-6.8317h12.0592z" fill="#F9C200"/>
    <path fill="#FFF" d="M273.3962 102.7935l-4.0144 6.803 6.8485-1.8417 5.3362 3.4579 7.1259-8.6286z"/>
    <path d="M289.6579 83.4095v19.562s-3.4525 2.793-9.52 2.4615c-5.6118-.3097-6.5063-2.2496-6.5063-2.2496L271.313 93.022l18.345-9.6125" fill="#FBAD83"/>
    <path d="M273.1517 100.6667a23.1231 23.1231 0 005.918-3.482c2.6836-2.0526 4.6886-4.845 5.7606-8.0228l-11.7165 2.1983-1.801.9788 1.839 8.3116" fill="#E68D5C"/>
    <path fill="#1A2249" d="M257.7955 70.946h10.6208v1h-10.6208z"/>
    <path d="M261.3655 57.4842s-1.639 4.177-1.639 7.8318c0 2.9424 1.1526 8.5062 1.1526 8.5062l6.5717-17.2571-6.0853.9191z" fill="#1A2249"/>
    <path d="M261.1883 90.6197c5.4698 11.4242 19.0498 4.6778 24.8642-1.1033 5.8144-5.781 5.0029-27.7746 3.402-31.9394-1.601-4.1648-15.0642-7.5297-22.1405-4.8433-7.0762 2.6864-11.601 26.4783-6.1146 37.886" fill="#FBAD83"/>
    <path d="M259.7266 82.4508a26.0924 26.0924 0 002.1528 8.1143c2.1864 4.5859 5.6646 6.2666 9.4335 6.2666-3.7633 0-7.2694-1.6696-9.4279-6.2666a26.0926 26.0926 0 01-2.1584-8.1143" fill="#DCDDE3"/>
    <path d="M290.6178 73.8222h-6.1945s-4.111 10.4663-7.6418 11.4775a3.11 3.11 0 01-.8729.1147c-2.9396 0-6.8534-3.465-11.7921-3.6673-.4618 0-.8729-.0328-1.2502-.0328-2.1117 0-3.0578.306-4.1053.9947.2785 2.7524 1.0125 5.4431 2.1738 7.9687 2.2018 4.5035 5.7045 6.154 9.4945 6.154 5.744 0 12.1412-3.7875 15.689-7.2253 2.8551-2.7655 4.1334-9.2912 4.5051-15.7732" fill="#D8987A"/>
    <path d="M289.104 75.5078a7.3251 7.3251 0 01-5.0319-2.7045 7.3188 7.3188 0 01-1.5576-5.4944c.3093-2.479 1.0384-3.2685.3977-5.615-1.287-4.6764-6.8934-4.2402-10.6825-2.501-3.7892 1.739-7.9153 1.7446-11.1741-.7178-2.4044-1.8713-3.0053-5.256-1.392-7.84 2.11-3.4066 9.611-7.4922 9.611-7.4922s-.9114 2.0428-.6076 3.1028c.3038 1.0601 20.2272-4.9193 24.3035 3.9366 4.0764 8.856-1.3643 25.5574-1.3643 25.5574l-2.5022-.232z" fill="#1A2249"/>
    <path d="M292.5545 75.1509c0 2.8514-3.9123 5.3824-6.3093 5.3824-2.397 0-2.3805-2.531-2.3805-5.3824 0-2.8515 1.9452-5.1636 4.3421-5.1636 2.397 0 4.3477 2.3121 4.3477 5.1636z" fill="#FBAD83"/>
    <path d="M290.5893 75.7056c.2832 1.2343-1.2576 2.6804-2.3622 2.8921-1.1047.2117 1.2689-1.4719.98-2.7061-.289-1.2343-2.266-1.818-1.133-2.0348 1.133-.217 2.2263.6094 2.5152 1.8488z" fill="#E68D5C"/>
    <path d="M261.6576 77.6571c-2.1191 0-3.862-2.3634-3.862-5.2702 0-2.9067 1.7323-5.2758 3.862-5.2758s3.8621 2.369 3.8621 5.2758-1.7324 5.2702-3.862 5.2702zm0-9.986c-1.8383 0-3.3323 2.1171-3.3323 4.7158 0 2.5987 1.494 4.7102 3.3323 4.7102 1.8384 0 3.3323-2.1115 3.3323-4.7102 0-2.5987-1.494-4.7045-3.3323-4.7045v-.0112zM271.3129 77.6571c-2.1191 0-3.8621-2.3634-3.8621-5.2702 0-2.9067 1.7324-5.2758 3.862-5.2758 2.1298 0 3.8622 2.369 3.8622 5.2758s-1.7324 5.2702-3.8621 5.2702zm0-9.986c-1.8384 0-3.3323 2.1171-3.3323 4.7158 0 2.5987 1.494 4.7102 3.3323 4.7102s3.3323-2.1115 3.3323-4.7102c0-2.5987-1.494-4.7045-3.3323-4.7045v-.0112zM275.175 70.946h9.6553v1h-9.6553z" fill="#1A2249"/>
    <path d="M288.0908 149.0729l-35.225 19.403c-.5607 9.6516-.8634 16.559-.8634 16.559h63.6718s.6-44.5658-2.2425-64.2349l-15.6587 3.6367-9.6822 24.6362z" fill="#EDB607"/>
    <path fill="#1A2249" d="M265.5197 70.946h1.9311v1h-1.9311z"/>
    <path d="M114.1223 108.3476s-15.927 3.116-19.147 6.3039c-3.22 3.188-18.4034 37.043-17.7102 44.4041.6932 7.361 8.5085 7.3666 8.5085 7.3666h50.1399c1.817-2.2682 2.5806-5.1914 2.102-8.0473l-45.5726-4.555 9.2017-22.0886-2.4597 61.9322 43.342-3.6584s2.1858-75.5916-4.053-78.0932c-6.2389-2.5017-14.0933-3.5754-14.0933-3.5754l-10.2583.011z" fill="#F0F1F4"/>
    <path d="M243.3126 163.9429h-42.6648a1.744 1.744 0 01-1.7494-1.7492v-30.0572c0-.966.7832-1.7492 1.7494-1.7492h42.6648v33.5556z" fill="#A9C2DC"/>
    <path d="M244.2781 163.9429h-.8077c-.6185 0-1.1207-.579-1.1233-1.2953V131.688c0-.7184.5029-1.3008 1.1233-1.3008h.8077v33.5556z" fill="#303D72"/>
    <path d="M223.0366 147.1624c0 1.8574-1.0768 3.3582-2.4138 3.3582-1.337 0-2.4139-1.5008-2.4139-3.3582 0-1.8574 1.082-3.3529 2.4139-3.3529 1.3319 0 2.4138 1.4796 2.4138 3.353z" fill="#FFF"/>
    <path fill="#303D72" d="M244.2781 163.9429h25.1037v1.9175h-25.1037z"/>
    <path fill="#A9C2DC" d="M199.8639 163.9429h44.4142v1.9175h-44.4142z"/>
    <path d="M113.9321 108.3365s3.6656 4.9957 6.8923 5.6074c3.2267.6118 5.5697-.836 6.1854-2.039.6157-1.203.4048-3.0943.4048-3.0943l-13.4825-.474z" fill="#FFF"/>
    <path fill="#1A2249" d="M124.5529 101.9995l16.414 2.502V79.5747z"/>
    <path d="M113.9321 88.2032v19.5695s2.9033 2.7774 8.0168 2.4553c3.7556-.2445 5.4203-1.9553 5.4203-1.9553l2.0113-10.4375-15.4484-9.632z" fill="#FBAD83"/>
    <path d="M113.9321 92.4075c.1414.334.3085.6577.5.9683 2.642 4.1868 7.9543 10.3481 13.5791 12.0845l1.3693-6.9186-15.4484-9.3798v3.2456z" fill="#E68D5C"/>
    <path d="M141.51 96.3208c-5.2936 11.1198-18.6213 2.1712-24.2506-3.4355-5.6293-5.6067-4.6278-24.6638-3.0925-28.7314 1.5352-4.0676 14.5547-7.3546 21.4166-4.7327 6.862 2.622 11.2201 25.7742 5.9265 36.8996z" fill="#FBAD83"/>
    <path d="M140.9668 93.4295s-5.7931.1408-6.7559-.146l-.9683-.2867s0 2.6534 2.7102 3.5709c2.7101.9175 4.157-.7767 4.5188-1.715.3617-.9384.4952-1.4232.4952-1.4232z" fill="#FFF"/>
    <path d="M122.1208 106.419l-13.5294-4.5463s-1.9811-30.8559 2.3474-38.5836c4.3285-7.7277 15.7603-10.3312 23.1465-7.5736 10.7436 4.007 10.5883 18.1634 10.7436 19.4074a22.0027 22.0027 0 00-7.5471-.0496 28.0673 28.0673 0 01-8.3963.2422l-5.2719-.6275-1.4928 31.731z" fill="#1A2249"/>
    <path d="M114.8976 86.2039c0 2.073 2.6051 3.9167 4.2043 3.9167 1.5992 0 1.5889-1.8438 1.5889-3.9167 0-2.073-1.2948-3.7531-2.894-3.7531-1.5992 0-2.8992 1.6802-2.8992 3.753z" fill="#FBAD83"/>
    <path d="M122.6218 91.074c.0022 1.1638-.7022 2.2142-1.7844 2.661-1.0822.4469-2.3289.202-3.1584-.62-.8295-.8222-1.0783-2.0597-.6303-3.1351.448-1.0754 1.5046-1.7767 2.6766-1.7767a2.9017 2.9017 0 012.0478.839 2.8607 2.8607 0 01.8487 2.0319z" fill="#FFF"/>
    <path d="M142.8979 89.1619c-2.6645 0-4.8276-2.46-4.8276-5.4838v-.2686H147.7255v.2686c.0056 3.0239-2.1631 5.4838-4.8276 5.4838zm-4.2587-5.2582c.1127 2.6157 1.9772 4.6996 4.2587 4.6996 2.2814 0 4.1516-2.084 4.2643-4.6996h-8.523zM131.3116 89.1619c-2.6645 0-4.8277-2.46-4.8277-5.4838v-.2686h9.6553v.2686c0 3.0239-2.1631 5.4838-4.8276 5.4838zm-4.2643-5.2582c.1183 2.6157 1.9828 4.6996 4.2643 4.6996 2.2814 0 4.146-2.084 4.2587-4.6996h-8.523z" fill="#1A2249"/>
    <path d="M85.773 165.7157h14.4901l-1.079 26.989 43.3416-3.6244s.4584-15.666.3578-32.9002l-.3578-1.8643-40.8818-22.9698-.9112 22.7066-8.2904-.8225 4.1927-9.9687-17.0168 4.6553c-1.5765 4.6664-2.538 8.5376-2.3535 10.5007.6876 7.2983 8.5084 7.2983 8.5084 7.2983z" fill="#E5E5E5"/>
    <path d="M263.7782 162.772s-3.573 1.1709-6.3051 1.1709c-2.7322 0-4.5052-2.5448-4.5052-2.5448l11.5863-.3314-.776 1.7054z" fill="#E68D5C"/>
    <path fill="#1A2249" d="M120.6908 82.4508h18.345v1h-18.345z"/>
    <path d="M270.0452 156.0504s-2.3346-1.5372-7.0093-1.692c-4.6747-.155-14.2383 6.1717-14.7272 7.1066-.247.5257-.221 1.1464.069 1.6476.29.5012.8041.814 1.3647.8303 1.2799 0 4.6692-1.847 6.438-2.042 1.7688-.195 6.9324 2.042 9.1572 2.042 2.2247 0 5.0098-1.457 5.0098-1.457l-.3022-6.4355z" fill="#FBAD83"/>
    <path d="M306.059 108.3365s8.7263 2.6249 11.081 23.2011c2.1276 18.5664 1.823 31.916 0 33.0472-1.8228 1.1313-48.4966-1.1312-48.4966-1.1312-1.0766-1.8392-1.441-4.004-1.025-6.09.6538-3.5584 1.2245-3.2948 1.2245-3.2948l36.1411-.8456s-8.815-24.3983-7.2969-33.893c1.5181-9.4945 8.3718-10.9937 8.3718-10.9937z" fill="#F9C200"/>
    <path fill="#FFF" d="M158.9361 165.8603h-17.9693l10.031-20.1333h17.9693z"/>
    <path d="M138.1487 158.8727s2.2398-1.6062 4.1772-1.639c1.9375-.0328 2.503.3606 2.503.3606l-4.2164 8.266-2.5422-.3332a11.9942 11.9942 0 00.0784-6.649v-.0054z" fill="#E68D5C"/>
    <path d="M138.1698 158.4527a18.7218 18.7218 0 015.4594-.1158c2.7656.3973 8.7614 1.076 9.7017 3.1786.9404 2.1025-1.9082 4.2492-2.8707 4.2492-.9624 0-10.2162.2152-11.0624 0a4.2417 4.2417 0 01-1.3275-.596s1.25-4.6465.0995-6.716z" fill="#FBAD83"/>
    <path d="M22.2071 53.1789s8.2719 14.3088 11.912 25.9863c3.4547 11.0792 3.5364 15.749 3.5364 15.749v-42.184l-15.4484.4487z" fill="#FFF"/>
    <path d="M22.2071 33.5556v19.5612s3.4479 2.7983 9.5173 2.4614c5.6135-.3097 6.5082-2.2495 6.5082-2.2495l2.3195-10.161-18.345-9.6121z" fill="#A55B3A"/>
    <path d="M37.705 51.6364c-2.9448.6528-6.3573-1.1673-8.9068-3.1811-4.6928-3.7067-6.5911-11.0648-6.5911-11.0648l15.5313 4.6361 1.8482 1.0125-1.8816 8.5973z" fill="#8E4A2F"/>
    <path d="M49.783 9.2821s2.5208.9717 2.3468 7.1547c-.0844 2.9368-1.1497 8.4902-1.1497 8.4902L44.4142 7.6698l5.3688 1.6123z" fill="#1A2249"/>
    <path d="M49.7187 41.7268c-5.4757 11.42-19.0566 4.676-24.8714-1.1029-5.8148-5.7788-5.0032-27.7585-3.4022-31.9273 1.601-4.1687 15.054-7.549 22.1419-4.858 7.0878 2.691 11.5796 26.4683 6.1317 37.8882z" fill="#A55B3A"/>
    <path d="M4.7813 166.7138s4.2926.5513 10.2847 1.064l38.038-80.7835-30.937 17.9384L3.8875 80.5333c-.2207 22.8944 1.0594 57.189 1.6111 67.6302a62.4158 62.4158 0 010 6.8909l-.7172 11.6594z" fill="#26335E"/>
    <path d="M29.0375 23.0095s1.5325 12.4632 5.071 13.4578c3.02.8534 7.2232-3.31 12.6716-3.5384 3.0313-.125 4.1244.1577 5.3583.962-.2714 2.736-.9982 5.412-2.1523 7.9248-5.5442 11.2565-19.309 4.609-25.2026-1.0871-2.851-2.7176-4.1356-9.24-4.5074-15.6808l8.7614-2.0383z" fill="#1A2249"/>
    <path d="M26.9377 27.6641s1.6565.1642 2.3467-.8207c.6902-.9848-1.2755-6.5217.7012-12.4033 1.408-4.1964 7.8074-6.6311 13.0418-5.608 5.2344 1.0231 6.5595 1.4772 7.0951-.0328.5356-1.51-1.5681-5.05-3.3847-6.4616C44.9213.9262 36.4016-1.5413 29.301 1.3256c-7.1006 2.8669-8.5196 4.7873-10.1098 9.3448-1.5902 4.5576-.5522 15.9816 0 16.7147.5521.7331 7.7466.279 7.7466.279z" fill="#1A2249"/>
    <path d="M18.345 26.2556c0 2.8514 3.9123 5.3825 6.3093 5.3825 2.397 0 2.3804-2.531 2.3804-5.3825 0-2.8514-1.9451-5.1635-4.342-5.1635-2.397 0-4.3477 2.312-4.3477 5.1635z" fill="#A55B3A"/>
    <path d="M52.1384 33.5556s0 14.0873-1.6462 16.6308c-1.6461 2.5435-6.9468 3.0937-9.3557 2.0325-2.409-1.0612-6.3213-4.8848-7.298-8.1189-.9768-3.234 14.2668-7.8606 14.2668-7.8606l4.0331-2.6838z" fill="#1A2249"/>
    <path d="M29.9313 159.8009l-24.108-1.6104c-.6176 10.0565 8.4091 43.7911 12.2305 57.5238l11.8775-55.9134z" fill="#26335E"/>
    <path d="M80.8099 87.2444H59.5877c-.9963-.0985-1.7292-.9529-1.6503-1.9238l4.4196-37.3777c-.0788-.9709.654-1.8253 1.6503-1.9239h21.2335c.9978.0958 1.7323.952 1.6503 1.9239l-4.4196 37.3777c.0754.9738-.6624 1.828-1.6616 1.9238z" fill="#303D72"/>
    <path d="M83.7177 87.2444H62.4839c-.9948-.1013-1.7261-.9539-1.6503-1.9238l4.4253-37.3777c-.0821-.97.6492-1.8253 1.6447-1.9239h21.2338c.9978.0958 1.7323.952 1.6503 1.9239L85.368 85.3206c.0789.9709-.654 1.8253-1.6503 1.9238z" fill="#A9C2DC"/>
    <path d="M77.2227 61.6126c-.1502 2.1084-1.126 3.7097-2.1819 3.5729-1.0559-.1368-1.7915-1.966-1.6414-4.08.1502-2.1141 1.126-3.7153 2.1819-3.5729 1.0559.1425 1.7915 1.966 1.6414 4.08z" fill="#FFF"/>
    <path d="M58.3974 78.6159s11.7682-3.8871 13.5398-6.5068c1.7716-2.6197 1.8272-7.3895.6276-8.6739-1.1996-1.2843-9.9966 2.037-11.6627 2.2124-1.6661.1754.0555-.679.0555-.679l.4943-3.6099c-1.6404.6462-3.1322 1.6305-4.3818 2.8913-2.3992 2.2632-2.2826 4.8886-2.627 5.8222-.3442.9336-2.3047 3.0836-2.3047 3.0836l6.259 5.46z" fill="#A55B3A"/>
    <path d="M7.9752 57.5794s3.9012-.6283 6.4426 2.3407c2.5413 2.969 7.3175 41.611 7.3175 41.611l30.2845-30.58s4.5867 2.8801 5.7348 5.5211l1.1425 2.641s-25.709 38.1471-37.1618 41.4943C10.2825 123.9545 0 82.6995 0 71.6462s7.9752-14.0668 7.9752-14.0668z" fill="#303D72"/>
    <path d="M20.3102 24.8926c-.2833 1.2344 1.2576 2.6806 2.3622 2.8924 1.1046.2118-1.269-1.472-.98-2.7065.2889-1.2344 2.266-1.8181 1.133-2.035-1.133-.217-2.2263.6301-2.5152 1.849z" fill="#8E4A2F"/>
    <path fill="#A9C2DC" d="M6.9334 301.0413H0l22.9979-128.4699h6.9334zM95.4124 301.0413h6.9334L79.3479 172.5714h-6.9334z"/>
    <path fill="#19192B" d="M91.5503 301.0413h6.9334l-22.998-128.4699h-6.9333zM263.3406 181.096s-25.67-3.3374-32.43 3.1776c-19.7097 18.9611 39.6093 96.524 39.6093 96.524s3.9643.9087 8.1746-2.4892l4.2047-3.398-29.6623-65.8601 10.1037-27.9544z"/>
    <path fill="#FFF" d="M85.888 165.8603H74.3894l-1.975-22.0508H87.863z"/>
    <path d="M84.4495 164.9016h-8.6216l-1.4824-16.8903a9.7373 9.7373 0 014.4585-.197c2.3797.4785 3.7428 1.7847 5.5262 1.2386a3.7685 3.7685 0 001.6016-1.0416l-1.4823 16.8903z" fill="#303D72"/>
    <path fill="#F0F1F4" d="M175.7696 165.8603h11.4986l1.975-22.0508h-15.4485z"/>
    <path d="M176.8208 164.9016h8.481l1.0448-11.5756a6.1714 6.1714 0 00-3.5142-.0805c-2.341.4558-3.436-.2466-5.1959-.772-.7375-.2199-1.5978.6702-1.9107.3431.486 5.367.609 6.7127 1.095 12.085zM302.2244 204.3916h-41.5166l-25.7315 84.0596s-12.8018.685-14.3157-1.1324l-1.4861-1.823s17.7053-91.5889 22.7036-98.1846c4.9982-6.5957 9.5679-6.5902 12.2117-7.0432 2.6439-.453 59.7062 4.9993 59.7062 4.9993v7.6784c-2.4156 3.762-7.0799 11.4459-11.5716 11.4459z" fill="#303D72"/>
    <path d="M255.408 180.2678l-.509.0822 27.173 23.8595h21.1862c4.4653 0 9.1075-7.626 11.5034-11.3595v-7.6206s-56.7254-5.4112-59.3536-4.9616z" fill="#26335E"/>
    <path d="M145.042 280.4012l-3.148 10.059 7.867 5.5883c1.7514 1.24 2.7949 3.2785 2.7922 5.4541V302h-10.3635l-10.8781-8.8798 1.3467-15.0885 12.3837 2.3695zM250.246 301.0413h-6.9334l22.998-128.4699h6.9333z" fill="#19192B"/>
    <path d="M137.1327 280.6726l-2.4373 7.2481 4.4684 7.6124 1.0437.3861c2.2016.813 3.6554 2.8498 3.656 5.122h-9.7492l-11.4925-11.3261 4.0622-12.642 10.4487 3.5995z" fill="#303D72"/>
    <path d="M134.2082 186.2468s30.9757-4.0142 37.4363 2.569c14.2212 14.4787-24.8525 92.2927-24.8525 92.2927s-4.3697 3.0286-8.1698 1.0409l-3.8-1.9877 17.0864-80.4162-17.7004-13.4987z" fill="#0CBFD1"/>
    <path fill="#A9C2DC" d="M246.3827 301.0413h-6.9322l22.9992-128.4699h6.9321z"/>
    <path fill="#303D72" d="M280.0026 209.9619h15.4484v9.5873h-15.4484z"/>
    <path d="M99.706 188.7203l-.2348 3.6135c-.193 3.0392.8902 6.0223 2.9928 8.2422 2.1026 2.22 5.0375 3.4792 8.109 3.4793h30.2925l-15.1937 75.7495s.9447 4.938 6.2832 4.938c2.795 0 7.1776-2.5715 7.1776-2.5715s25.3677-78.8309 23.987-86.5843c-1.3808-7.7534-16.6305-9.804-24.7584-9.5768-8.128.2273-38.6552 2.7101-38.6552 2.7101z" fill="#60D6E6"/>
    <path d="M15.9556 142.8508l-.5072 23.4812 5.472.436c4.3448.3457 8.6446-1.076 11.9116-3.9387 3.267-2.8626 5.2204-6.92 5.4115-11.2402l.3776-8.565s-19.1603 1.1014-22.6655-.1733z" fill="#26335E"/>
    <path fill="#FFF" d="M0 165.8603h344.6929v6.7111H0z"/>
    <path fill="#A9C2DC" d="M0 169.6952h344.6929v2.8762H0z"/>
    <path fill="#303D72" d="M239.4505 165.8603h105.2424v6.7111H239.4505z"/>
    <path fill="#19192B" d="M239.4505 169.6952h105.2424v2.8762H239.4505z"/>
    <path d="M57.5627 140.939l-8.3209 1.3212s3.7473 13.8513 5.9605 17.7704c.7824 1.5137 1.9317 2.8121 3.3453 3.7792a.8628.8628 0 00.895.0156.843.843 0 00.4182-.7826l-1.3415-21.32a.848.848 0 00-.3092-.5938.867.867 0 00-.6474-.19z" fill="#26335E"/>
    <path d="M263.5887 85.327h9.6552s-1.9517 3.7302-5.2105 3.833c-3.2587.1027-4.4447-3.833-4.4447-3.833z" fill="#FFF"/>
    <path d="M259.73 85.327h14.4795s-.2197-2.8882-2.7202-4.0144c-2.5005-1.1262-5.2038.2855-6.0599.2424-.856-.043-3.182-1.5033-4.5054-.8567-1.3235.6466-1.194 4.6287-1.194 4.6287z" fill="#1A2249"/>
    <path d="M49.2418 38.7819s-5.7931.1407-6.7559-.146l-.9683-.2867s0 2.6534 2.7102 3.5709c2.7101.9175 4.157-.7768 4.5188-1.715.3617-.9384.4952-1.4232.4952-1.4232z" fill="#FFF"/>
    <path fill="#A9C2DC" d="M336.794 301.0413h6.9334l-22.998-128.4699h-6.9334z"/>
    <path fill="#19192B" d="M333.8973 301.0413h6.9335l-22.998-128.4699h-6.9333z"/>
    <rect fill="#A9C2DC" x="319.5892" y="250.2286" width="14.4829" height="44.1016" rx="7.2414"/>
    <rect fill="#303D72" x="320.5547" y="250.2286" width="14.4829" height="44.1016" rx="7.2414"/>
    <rect fill="#303D72" x="303.1753" y="256.9397" width="50.2074" height="44.1016" rx="18.8361"/>
    <rect fill="#FF9398" x="299.3131" y="256.9397" width="14.4829" height="44.1016" rx="7.2414"/>
    <path d="M302.787 295.2055V262.77c.002-3.0545 2.2736-5.5936 5.2159-5.8303H304.9726c-3.1154 0-5.645 2.6059-5.6595 5.8303v32.4136c0 3.2351 2.5339 5.8577 5.6595 5.8577H308.0029c-2.9431-.2395-5.214-2.7802-5.216-5.8358z" fill="#FFB0B2"/>
    <path d="M341.969 292.4127h-15.7884c-3.6403 0-6.5914-2.8793-6.5914-6.4312v-16.5783h28.9658v16.5837c0 3.5489-2.9486 6.4258-6.586 6.4258z" fill="#19192B"/>
    <path d="M343.8946 292.4127h-15.7829c-3.6404 0-6.5914-2.8793-6.5914-6.4312v-16.5783h28.9657v16.5837c-.003 3.5497-2.9532 6.4258-6.5914 6.4258z" fill="#FFB0B2"/>
    <path fill="#19192B" d="M281.9337 219.5492h10.6208v9.5873h-10.6208zM118.7597 219.5492h10.6208v9.5873h-10.6208z"/>
    <path fill="#303D72" d="M359.1758 258.8571h54.0695v1h-54.0695z"/>
    <path d="M47.8554 21.0723c-.2297-.0001-.4347-.1924-.5128-.481-.0488-.1826-.0412-.3838.0212-.5589.0625-.175.1746-.3097.3116-.374 1.6416-.645 3.3876-.645 5.0292 0 .188.0703.3338.2693.3822.522.0485.2528-.0076.521-.1472.7034-.1396.1825-.3415.2515-.5295.1812-1.4252-.5527-2.9386-.5527-4.3638 0a.4111.4111 0 01-.191.0073zM38.2266 22.0508a.5775.5775 0 01-.3733-.1422.5647.5647 0 01-.0574-.8017c.1033-.1194 2.659-2.9626 7.1844-1.5297.3005.0952.4671.4126.3733.7108a.5701.5701 0 01-.2842.3338.5795.5795 0 01-.4394.0358c-3.8134-1.2055-5.944 1.1714-5.967 1.1942a.5767.5767 0 01-.4364.199z" fill="#1A2249"/>
    <path fill="#303D72" d="M371.7276 90.1206h1v162.9841h-1zM378.4863 104.5016h1v162.9841h-1zM376.5552 138.0571h1v135.181h-1zM364.0034 155.3143h1v135.181h-1zM383.3139 180.2413h1v112.1714h-1z"/>
    <path d="M361.3529 121.0869c8.2207-4.142 17.538-2.276 20.8162 4.1642 3.2782 6.4401-.7236 15.0288-8.9443 19.1598s-25.6418 19.636-28.9423 13.1903c-3.3005-6.4457 8.8497-32.3723 17.0704-36.5143zM351.8849 203.3368c7.0343-7.5764 19.1154-7.8093 26.988-.5214 7.8727 7.288 8.539 19.3458 1.5046 26.9221-7.0343 7.5764-17.7662 32.2023-25.6167 24.9088-7.8504-7.2935-9.9102-43.7332-2.8759-51.3095zM411.272 218.4226c-12.0348-3.313-24.5901 4.086-28.0405 16.532-3.4504 12.4459 3.5168 25.2286 15.5516 28.5417 12.0347 3.313 38.674 21.761 42.0912 9.315 3.4171-12.4458-17.5676-51.0757-29.6023-54.3887z" fill="#303D72"/>
    <path d="M345.8684 157.7034c9.5241-6.4133 21.3696-5.5656 26.4502 1.8883 5.0807 7.4538 1.4849 18.7171-8.0392 25.1085-9.524 6.3913-28.6553 28.3124-33.7414 20.8585-5.0862-7.4538 5.8285-41.4529 15.3304-47.8553z" fill="#00C99C"/>
    <path d="M345.8877 157.7342c-8.9747 6.086-19.153 36.6657-16.0856 46.4753 8.2813-24.975 13.6616-32.3612 22.237-41.435a41.8603 41.8603 0 0111.9643-8.8192c-5.4802-1.3943-12.225-.1936-18.1157 3.7789z" fill="#00B98F"/>
    <path d="M400.3438 127.86c-10.9844-3.5974-22.1915.483-25.053 9.11-2.8617 8.627 3.7579 18.5366 14.7423 22.134 10.9843 3.5973 35.5474 19.5746 38.3868 10.942 2.8393-8.6326-17.0918-38.5886-28.0761-42.186z" fill="#00C99C"/>
    <path d="M400.0503 127.8427c10.4288 3.3439 28.866 29.7334 28.6413 39.935-15.0282-21.5435-22.3177-27.124-33.2015-33.439-4.349-2.528-9.127-4.275-14.1072-5.1585 4.9476-2.834 11.8496-3.5248 18.6674-1.3375z" fill="#00B98F"/>
    <path d="M387.6495 94.7033c-7.0024 2.9444-10.8009 9.7965-8.4832 15.3111 2.3176 5.5146 9.876 7.6005 16.8784 4.656 7.0024-2.9444 26.0829-5.5751 23.7653-11.0898-2.3176-5.5146-25.1746-11.8163-32.1605-8.8773z" fill="#00C99C"/>
    <path d="M372.6832 77.4978c4.4845 3.0063 6.1486 8.2466 3.723 11.6997-2.4256 3.4531-8.0213 3.8062-12.5.7943-4.479-3.0118-17.4867-7.524-15.0498-10.9715 2.4368-3.4476 19.348-4.5343 23.8268-1.5225z" fill="#303D72"/>
    <path d="M387.1772 94.7133c6.6725-2.8084 27.474 2.7073 31.8612 8.06-16.9815-4.527-23.0702-4.2181-31.2662-2.724a27.7396 27.7396 0 00-9.2859 3.4936c1.201-3.6229 4.3204-6.9817 8.691-8.8296z" fill="#00B98F"/>
    <path d="M408.9671 184.8193c-12.7516-8.6754-29.6702-8.6588-37.7869.0387-8.1167 8.6975-4.3508 22.7736 8.4287 31.449 12.7794 8.6753 37.2855 37.1478 45.3966 28.4559 8.1111-8.692-3.2812-51.2682-16.0384-59.9436z" fill="#00C99C"/>
    <path d="M409.7609 184.7848c12.1163 8.1215 23.0008 46.1081 17.4376 57.774-8.8482-31.0026-15.66-40.421-26.8483-52.1637-4.6163-4.7924-10.0552-8.7591-16.0707-11.7207 8.0381-1.2364 17.55.7968 25.4814 6.1104z" fill="#00B98F"/>
    <path d="M403.3431 255.0222h-41.9839c-2.776 0-5.08 10.3027-5.08 23.0095v23.0096h52.1384v-23.0096c0-12.7068-2.2707-23.0095-5.0745-23.0095z" fill="#FF9398"/>
    <path d="M372.6931 255.0222h-11.1663c-2.8675 0-5.2476 10.3027-5.2476 23.0095v23.0096h11.172v-23.0096c0-12.7068 2.3457-23.0095 5.242-23.0095z" fill="#F4828B"/>
    <path d="M404.9067 259.8157h-45.1166c-2.4614.0002-4.461-1.9992-4.4764-4.4755v-5.1116h54.0694v5.1116c.0016 1.1924-.4705 2.3359-1.3111 3.1764a4.429 4.429 0 01-3.1653 1.2991z" fill="#FFB0B2"/>
    <path d="M330.2383 237.5625c5.3495-10.1595 16.1531-14.9405 24.1331-10.735 7.98 4.2054 10.0978 15.8922 4.7483 26.0517-5.3494 10.1595-11.8514 38.5686-19.826 34.3078-7.9744-4.2608-14.3938-39.465-9.0554-49.6245z" fill="#00C99C"/>
    <path d="M330.2835 238.0692c-5.1346 9.5621.3651 41.3475 7.803 48.5911-4.4942-25.9308-3.2246-34.9728.1123-47.0085 1.3347-4.8103 3.5342-9.346 6.494-13.3915-5.5783 1.3281-11.0387 5.5558-14.4093 11.8089z" fill="#00B98F"/>
  </g>
</svg>
