<?xml version="1.0" encoding="UTF-8"?>
<svg width="100px" height="99px" viewBox="0 0 100 99" version="1.1" xmlns="http://www.w3.org/2000/svg" xmlns:xlink="http://www.w3.org/1999/xlink">
    <title>AE81D9B3-F247-416E-BCC7-B8773E38FCAD</title>
    <defs>
        <filter x="-3.9%" y="-16.2%" width="107.8%" height="132.3%" filterUnits="objectBoundingBox" id="filter-1">
            <feOffset dx="0" dy="2" in="SourceAlpha" result="shadowOffsetOuter1"></feOffset>
            <feGaussianBlur stdDeviation="3" in="shadowOffsetOuter1" result="shadowBlurOuter1"></feGaussianBlur>
            <feColorMatrix values="0 0 0 0 0   0 0 0 0 0   0 0 0 0 0  0 0 0 0.120602054 0" type="matrix" in="shadowBlurOuter1" result="shadowMatrixOuter1"></feColorMatrix>
            <feMerge>
                <feMergeNode in="shadowMatrixOuter1"></feMergeNode>
                <feMergeNode in="SourceGraphic"></feMergeNode>
            </feMerge>
        </filter>
        <path d="M4.03030555,0.00486158249 C1.83037148,0.195751857 -0.431831592,4.98799016 0.0708248653,5.72300217 C0.6639198,6.40831145 8.08319182,6.1140559 8.54154443,4.98799016 C8.86588633,4.51958716 6.06573126,-0.171754153 4.03030555,0.00486158249 Z" id="path-2"></path>
        <path d="M2.4549357,2.1699271 C7.42139414,1.09927942 11.2615985,0.443494021 13.9755487,0.202570902 C16.712795,-0.0404202544 20.5957134,-0.0648038707 25.624304,0.129420053 L25.6243049,0.129397878 C26.9393676,0.180190768 27.9792746,1.26103843 27.9792746,2.57708175 C27.9792746,2.57708175 27.9792746,2.57708175 27.9792746,2.57708175 C27.9792746,2.75115332 27.9634987,2.95683571 27.931947,3.19412892 L27.9319461,3.1941288 C27.7376503,4.65538248 26.5105146,5.75896342 25.0369087,5.79767789 C20.3127165,5.92179154 16.6255965,6.10147355 13.9755487,6.33672392 C11.3152782,6.57288177 7.60991905,7.15875685 2.85947115,8.09434914 L2.85946652,8.09432563 C1.56091837,8.35007238 0.300913391,7.50471483 0.0451666333,6.20616667 C0.0151268214,6.05364024 1.90379232e-17,5.89855265 0,5.74309621 C0,5.74309621 0,5.74309621 0,5.74309621 C0,5.44711531 0.0456998746,5.0518582 0.137099624,4.55732488 L0.137105089,4.55732589 C0.357155022,3.36670968 1.2713455,2.42508036 2.4549357,2.1699271 Z" id="path-4"></path>
    </defs>
    <g id="Page-1" stroke="none" stroke-width="1" fill="none" fill-rule="evenodd">
        <g id="Homepage---Made-in-India---Desktop---3" transform="translate(-803.000000, -1340.000000)">
            <g id="Group-7" transform="translate(0.000000, 1305.000000)">
                <g id="Group-5" transform="translate(357.000000, 35.000000)">
                    <g id="Group-3" transform="translate(442.000000, 0.000000)">
                        <g id="Group-2" filter="url(#filter-1)">
                            <g id="Fraud" transform="translate(16.000000, 12.000000)">
                                <path d="M67.471721,73.0412461 C72.198155,66.7667406 75,58.9605733 75,50.5 C75,29.7893219 58.2106781,13 37.5,13 C16.7893219,13 0,29.7893219 0,50.5 C0,58.928604 2.78071079,66.7077383 7.47478334,72.9700537 C21.1497223,73.0412461 61.71084,73.1658031 67.471721,73.0412461 Z" id="Oval" fill="#FFFFFF"></path>
                                <g id="Group-6" transform="translate(4.000000, 0.000000)">
                                    <path d="M18.5998251,72.6355066 C7.00488869,67.7521121 0.834714309,64.2699042 0.0893019517,62.1888827 C-1.02881658,59.0673505 8.62875535,38.2936988 13.6142902,34.9358049 C18.5998251,31.5779109 51.2050108,30.2931705 53.8255127,31.5779109 C56.4460145,32.8626513 72.7846985,53.9565581 71.8151907,59.0673505 C71.1688521,62.4745455 64.6856517,66.9972642 52.3655895,72.6355066 L18.5998251,72.6355066 Z" id="Path-8" fill="#231F20"></path>
                                    <g id="Group-4" transform="translate(17.487047, 18.264249)">
                                        <ellipse id="Oval" fill="#F9BCA0" cx="2.91450777" cy="3.49740933" rx="2.91450777" ry="3.49740933"></ellipse>
                                        <ellipse id="Oval" fill="#E9A188" cx="2.91450777" cy="3.69170984" rx="2.1373057" ry="2.52590674"></ellipse>
                                    </g>
                                    <g id="Group-4" transform="translate(43.134715, 15.932642)">
                                        <ellipse id="Oval" fill="#F9BCA0" cx="2.91450777" cy="3.49740933" rx="2.91450777" ry="3.49740933"></ellipse>
                                        <ellipse id="Oval" fill="#E9A188" cx="2.91450777" cy="3.69170984" rx="2.1373057" ry="2.52590674"></ellipse>
                                    </g>
                                    <path d="M20.0164601,12.8515081 C19.4153554,23.8852525 20.1842469,31.2421825 22.3231347,34.922298 C25.5314663,40.4424714 43.8780769,38.7816829 46.1507348,33.3205005 C47.6658401,29.6797122 47.2277858,22.2708243 44.8365719,11.0938367 C40.2848583,10.8098265 36.5457515,10.8098265 33.6192517,11.0938367 C30.6927518,11.377847 26.158488,11.9637374 20.0164601,12.8515081 Z" id="Path-2" fill="#F9BCA0"></path>
                                    <path d="M19.8186528,17.1194504 C19.7705676,19.561903 19.7705676,21.3851478 19.8186528,22.5891849 C19.8667381,23.7932219 19.9962718,25.2134499 20.2072539,26.8498687 L30.0350571,26.8498687 C30.7003093,25.7990852 31.2221708,25.0507574 31.6006416,24.6048854 C31.9791124,24.1590134 32.548942,23.6212329 33.3101303,22.9915438 C34.1153387,23.4369278 34.7577638,23.8627117 35.2374058,24.2688953 C35.7170477,24.6750789 36.3636677,25.3409199 37.1772658,26.2664183 L46.8558707,24.2688953 C46.8370076,22.4864057 46.7585697,20.998708 46.6205571,19.8058021 C46.4825445,18.6128963 46.1795503,16.8037083 45.7115744,14.3782383 C39.758548,15.2192167 35.2843278,15.798264 32.2889137,16.1153802 C29.2934997,16.4324964 25.1367461,16.7671865 19.8186528,17.1194504 Z" id="Path-3" fill="#231F20"></path>
                                    <g id="Group" transform="translate(22.927461, 13.212435)" fill="#5D2911">
                                        <polygon id="Path-4" points="12.4352332 2.23652636 13.0018347 4.82658529 19.1269401 1.75258327 19.1269401 8.83576459e-14"></polygon>
                                        <polygon id="Path-4" transform="translate(3.734455, 3.967697) scale(-1, 1) rotate(5.000000) translate(-3.734455, -3.967697) " points="0.388601036 3.7909305 0.955202607 6.38098943 7.08030801 3.30698742 7.08030801 1.55440415"></polygon>
                                    </g>
                                    <g id="Group-2" transform="translate(35.751295, 17.487047)">
                                        <path d="M-2.20894115e-13,2.98687551 L9.03825847,3.10632349e-14 C9.5323477,3.43460896 8.24695242,5.45871791 5.18207262,6.07232684 C2.11719283,6.68593577 0.389835285,5.65745199 -2.20894115e-13,2.98687551 Z" id="Path-5" fill="#FFFFFF"></path>
                                        <circle id="Oval" fill="#201D1D" cx="4.2616736" cy="3.564917" r="1.94300518"></circle>
                                        <circle id="Oval" fill="#FFFFFF" cx="3.87307257" cy="4.34211907" r="1"></circle>
                                    </g>
                                    <g id="Group-2" transform="translate(26.424870, 21.955959) scale(-1, 1) rotate(4.000000) translate(-26.424870, -21.955959) translate(21.761658, 18.652850)">
                                        <path d="M-2.20894115e-13,2.98687551 L9.03825847,3.10632349e-14 C9.5323477,3.43460896 8.24695242,5.45871791 5.18207262,6.07232684 C2.11719283,6.68593577 0.389835285,5.65745199 -2.20894115e-13,2.98687551 Z" id="Path-5" fill="#FFFFFF"></path>
                                        <circle id="Oval" fill="#201D1D" cx="4.2616736" cy="3.564917" r="1.94300518"></circle>
                                        <circle id="Oval" fill="#FFFFFF" cx="3.95250166" cy="4.28506436" r="1"></circle>
                                    </g>
                                    <g id="Group-3" transform="translate(29.533679, 22.538860)">
                                        <mask id="mask-3" fill="white">
                                            <use xlink:href="#path-2"></use>
                                        </mask>
                                        <use id="Path-6" fill="#E9A188" xlink:href="#path-2"></use>
                                        <circle id="Oval" fill="#DA9076" mask="url(#mask-3)" cx="1.74870466" cy="6.02331606" r="1"></circle>
                                        <circle id="Oval" fill="#DA9076" mask="url(#mask-3)" cx="6.80051813" cy="5.63471503" r="1"></circle>
                                    </g>
                                    <path d="M43.7287231,27.4889572 C44.1201941,29.7657096 43.5948601,31.2536432 42.1066707,31.8178467 C40.9151658,32.2695709 37.7875597,32.8688077 34.7373506,33.1691974 C32.0763585,33.4312562 29.5224767,33.3831955 27.16723,33.1694782 C25.1506074,32.9864879 24.1040129,31.6914833 24.0929918,29.4256364 L24.0934744,29.296345 L24.8706187,29.3058231 C24.8466892,31.2679019 25.6125295,32.248008 27.2374655,32.3954562 C29.5480241,32.6051184 32.0558635,32.6523128 34.661179,32.395737 C37.649078,32.1014838 40.7161222,31.5138504 41.8311531,31.091119 C42.8807176,30.6932073 43.2796329,29.6232165 42.9849873,27.7554306 L42.9627611,27.6206588 L43.7287231,27.4889572 Z" id="Path-7" fill="#C00505" fill-rule="nonzero" transform="translate(33.973319, 30.418579) rotate(-1.000000) translate(-33.973319, -30.418579) "></path>
                                    <path d="M16.8850994,72.7373333 C14.3842909,71.054766 11.3207789,43.5997459 12.2008973,42.3804043 C13.0810158,41.1610626 56.5561948,39.9035858 58.305345,41.7005558 C60.0544952,43.4975257 54.5736743,71.7329381 53.1817539,72.7373333 C49.5193747,72.7373333 21.5114743,72.7373333 16.8850994,72.7373333 Z" id="Path-9" fill="#D1D4DA"></path>
                                    <circle id="Oval" fill="#FFFFFF" cx="38.0829016" cy="54.7927461" r="1.94300518"></circle>
                                    <path d="M35.1683938,52.4611399 C35.201146,52.4611399 35.2338159,52.4614922 35.2663999,52.4621933 C34.8371334,53.0661222 34.5854922,53.8028969 34.5854922,54.5984456 C34.5854922,56.6373206 36.238327,58.2901554 38.2772021,58.2901554 C38.7002238,58.2901554 39.1066276,58.2190057 39.4850993,58.0880203 C38.9763707,59.9942463 37.2364269,61.3989637 35.1683938,61.3989637 C32.7002819,61.3989637 30.6994819,59.3981637 30.6994819,56.9300518 C30.6994819,54.4619399 32.7002819,52.4611399 35.1683938,52.4611399 Z" id="Combined-Shape" fill="#FFFFFF"></path>
                                    <rect id="Rectangle" fill="#231F20" x="3.7658765e-13" y="72" width="67.2279793" height="2.33160622"></rect>
                                    <path d="M45.7350157,12.0466321 C45.7350157,4.64229642 40.2411233,3.19744231e-14 32.8367876,3.19744231e-14 C25.4324519,3.19744231e-14 19.4300518,6.00240005 19.4300518,13.4067358 C30.1494521,12.0466321 35.6075727,11.241035 45.7350157,12.0466321 Z" id="Oval" fill="#231F20"></path>
                                    <g id="Rectangle-2" transform="translate(18.652850, 6.994819)">
                                        <mask id="mask-5" fill="white">
                                            <use xlink:href="#path-4"></use>
                                        </mask>
                                        <use id="Rectangle" fill="#231F20" xlink:href="#path-4"></use>
                                        <rect id="Rectangle" fill="#0C0B0B" mask="url(#mask-5)" transform="translate(0.188601, 4.222798) rotate(-6.000000) translate(-0.188601, -4.222798) " x="-0.611398964" y="-0.777202073" width="1.6" height="10"></rect>
                                        <rect id="Rectangle" fill="#0C0B0B" mask="url(#mask-5)" transform="translate(2.788601, 4.222798) rotate(-6.000000) translate(-2.788601, -4.222798) " x="1.98860104" y="-0.777202073" width="1.6" height="10"></rect>
                                        <rect id="Rectangle" fill="#0C0B0B" mask="url(#mask-5)" transform="translate(5.388601, 4.222798) rotate(-6.000000) translate(-5.388601, -4.222798) " x="4.58860104" y="-0.777202073" width="1.6" height="10"></rect>
                                        <rect id="Rectangle" fill="#0C0B0B" mask="url(#mask-5)" transform="translate(7.988601, 4.222798) rotate(-6.000000) translate(-7.988601, -4.222798) " x="7.18860104" y="-0.777202073" width="1.6" height="10"></rect>
                                        <rect id="Rectangle" fill="#0C0B0B" mask="url(#mask-5)" transform="translate(10.588601, 4.222798) rotate(-6.000000) translate(-10.588601, -4.222798) " x="9.78860104" y="-0.777202073" width="1.6" height="10"></rect>
                                        <rect id="Rectangle" fill="#0C0B0B" mask="url(#mask-5)" transform="translate(13.188601, 4.222798) rotate(-6.000000) translate(-13.188601, -4.222798) " x="12.388601" y="-0.777202073" width="1.6" height="10"></rect>
                                        <rect id="Rectangle" fill="#0C0B0B" mask="url(#mask-5)" transform="translate(15.788601, 4.222798) rotate(-6.000000) translate(-15.788601, -4.222798) " x="14.988601" y="-0.777202073" width="1.6" height="10"></rect>
                                        <rect id="Rectangle" fill="#0C0B0B" mask="url(#mask-5)" transform="translate(18.388601, 4.222798) rotate(-6.000000) translate(-18.388601, -4.222798) " x="17.588601" y="-0.777202073" width="1.6" height="10"></rect>
                                        <rect id="Rectangle" fill="#0C0B0B" mask="url(#mask-5)" transform="translate(20.988601, 4.222798) rotate(-6.000000) translate(-20.988601, -4.222798) " x="20.188601" y="-0.777202073" width="1.6" height="10"></rect>
                                        <rect id="Rectangle" fill="#0C0B0B" mask="url(#mask-5)" transform="translate(23.588601, 4.222798) rotate(-6.000000) translate(-23.588601, -4.222798) " x="22.788601" y="-0.777202073" width="1.6" height="10"></rect>
                                        <rect id="Rectangle" fill="#0C0B0B" mask="url(#mask-5)" transform="translate(26.188601, 4.222798) rotate(-6.000000) translate(-26.188601, -4.222798) " x="25.388601" y="-0.777202073" width="1.6" height="10"></rect>
                                        <rect id="Rectangle" fill="#0C0B0B" mask="url(#mask-5)" transform="translate(28.788601, 4.222798) rotate(-6.000000) translate(-28.788601, -4.222798) " x="27.988601" y="-0.777202073" width="1.6" height="10"></rect>
                                    </g>
                                </g>
                            </g>
                        </g>
                    </g>
                </g>
            </g>
        </g>
    </g>
</svg>