<?xml version="1.0" encoding="UTF-8"?>
<svg width="12px" height="10px" viewBox="0 0 12 10" version="1.1" xmlns="http://www.w3.org/2000/svg" xmlns:xlink="http://www.w3.org/1999/xlink">
    <title>B340C345-C648-4601-B9EE-52134F245BBA@1x</title>
    <g id="Page-1" stroke="none" stroke-width="1" fill="none" fill-rule="evenodd">
        <g id="Paisabazaar---Home-Page---Our-products_01-" transform="translate(-246.000000, -634.000000)" fill="#1B1DC7" fill-rule="nonzero">
            <g id="Group-21" transform="translate(135.000000, 472.000000)">
                <g id="Our-Products" transform="translate(0.000000, 34.000000)">
                    <g id="Group-29" transform="translate(16.000000, 120.000000)">
                        <g id="Group-17" transform="translate(95.000000, 8.000000)">
                            <path d="M11.2787411,4.18156474 C11.2296403,4.17382145 11.1799491,4.17024964 11.1302312,4.17087536 L2.66446598,4.17087536 L2.84906372,4.08744606 C3.02950265,4.00445997 3.19365512,3.89151755 3.33416941,3.75372885 L5.70818225,1.44690866 C6.02084468,1.15688755 6.07337991,0.69033525 5.8326784,0.341470411 C5.55253523,-0.030285343 5.01529677,-0.111003192 4.63268575,0.161210976 C4.60177636,0.183215454 4.57239634,0.207201378 4.54478717,0.233012319 L0.251816405,4.4044774 C-0.0836792607,4.73011239 -0.0839744024,5.25835023 0.251145628,5.58435023 C0.251360277,5.5845588 0.251601756,5.58479345 0.251816405,5.58500202 L4.54478717,9.7564671 C4.88055115,10.0818153 5.4241754,10.0810853 5.75902712,9.75482459 C5.78537523,9.72914401 5.80997932,9.70182091 5.8326784,9.6730378 C6.07337991,9.32417296 6.02084468,8.85762066 5.70818225,8.56759955 L3.33846239,6.2566079 C3.21249052,6.13407111 3.06765642,6.03132271 2.90916531,5.95209095 L2.65158706,5.83946139 L11.0829816,5.83946139 C11.5215891,5.85528689 11.9064003,5.55757464 11.9887985,5.13865526 C12.0647036,4.6838352 11.7468091,4.25534752 11.2787411,4.18156474 Z" id="Path" transform="translate(6.000000, 5.000000) scale(-1, 1) translate(-6.000000, -5.000000) "></path>
                        </g>
                    </g>
                </g>
            </g>
        </g>
    </g>
</svg>