<?xml version="1.0" encoding="UTF-8"?>
<svg width="42px" height="44px" viewBox="0 0 42 44" version="1.1" xmlns="http://www.w3.org/2000/svg" xmlns:xlink="http://www.w3.org/1999/xlink">
    <!-- Generator: sketchtool 59.1 (101010) - https://sketch.com -->
    <title>DDA8D99C-A415-4377-838A-59504593FD8D</title>
    <desc>Created with sketchtool.</desc>
    <g id="Page-1" stroke="none" stroke-width="1" fill="none" fill-rule="evenodd">
        <g id="Desktop-x-1680---Signed-Out" transform="translate(-757.000000, -1349.000000)" fill="#D90368" fill-rule="nonzero">
            <g id="Benefits" transform="translate(270.000000, 1349.000000)">
                <g id="Row-1" transform="translate(487.000000, 0.000000)">
                    <g id="1">
                        <g id="Credible">
                            <path d="M33,42 L31,42 L31,41 C31,39.346 29.654,38 28,38 L26.236,38 C25.238,38 24.34,37.445 23.894,36.553 C23.647,36.059 23.046,35.861 22.552,36.106 C22.058,36.353 21.858,36.954 22.105,37.448 C22.894,39.021 24.477,40 26.236,40 L28,40 C28.552,40 29,40.448 29,41 L29,42 L13,42 L13,41 C13,40.448 13.449,40 14,40 L15.764,40 C17.524,40 19.107,39.021 19.894,37.447 C19.964,37.309 20,37.155 20,37 L20,17 C20,16.447 19.552,16 19,16 C18.448,16 18,16.447 18,17 L18,36.744 C17.527,37.524 16.689,38 15.764,38 L14,38 C12.346,38 11,39.346 11,41 L11,42 L9,42 C8.448,42 8,42.447 8,43 C8,43.553 8.448,44 9,44 L12,44 L30,44 L33,44 C33.553,44 34,43.553 34,43 C34,42.447 33.553,42 33,42 Z" id="Path"></path>
                            <path d="M41,25 L35,25 C34.447,25 34,25.447 34,26 C34,26.553 34.447,27 35,27 L39.967,27 C39.907,27.909 39.766,28.813 39.544,29.698 L39.409,30.242 C39.297,30.688 38.898,31 38.438,31 L33.561,31 C33.101,31 32.703,30.688 32.591,30.243 L32.454,29.698 C32.17,28.557 32.016,27.386 32.001,26.213 L36,17.416 L38.727,23.416 C38.955,23.917 39.543,24.145 40.051,23.912 C40.554,23.683 40.776,23.091 40.547,22.588 L36.91,14.586 C36.786,14.314 36.547,14.111 36.258,14.034 L24.997,11.031 C24.997,11.021 25,11.011 25,11 C25,9.141 23.721,7.589 22,7.142 L22,1 C22,0.447 21.552,0 21,0 C20.448,0 20,0.447 20,1 L20,7.142 C18.942,7.417 18.062,8.111 17.534,9.041 L6.258,6.034 C5.784,5.905 5.292,6.142 5.09,6.586 L0.09,17.586 C0.031,17.716 0,17.857 0,18 C0,19.407 0.173,20.814 0.515,22.183 L0.651,22.729 C0.986,24.065 2.183,25 3.562,25 L8.439,25 C9.818,25 11.015,24.065 11.35,22.728 L11.486,22.183 C11.827,20.814 12,19.407 12,18 C12,17.447 11.552,17 11,17 L5,17 C4.448,17 4,17.447 4,18 C4,18.553 4.448,19 5,19 L9.967,19 C9.907,19.909 9.766,20.812 9.545,21.698 L9.409,22.242 C9.297,22.688 8.898,23 8.438,23 L3.562,23 C3.103,23 2.703,22.688 2.592,22.243 L2.456,21.698 C2.171,20.557 2.019,19.386 2.002,18.213 L6,9.417 L8.727,15.416 C8.894,15.784 9.258,16.002 9.638,16.002 C9.777,16.002 9.917,15.974 10.051,15.912 C10.554,15.683 10.776,15.091 10.548,14.588 L7.785,8.511 L17.003,10.969 C17.003,10.98 17,10.99 17,11 C17,13.206 18.794,15 21,15 C21.347,15 21.678,14.942 22,14.858 L22,34 C22,34.553 22.447,35 23,35 C23.553,35 24,34.553 24,34 L24,13.618 C24.177,13.415 24.332,13.195 24.466,12.96 L34.6,15.662 L30.09,25.586 C30.03,25.716 30,25.857 30,26 C30,27.408 30.174,28.815 30.515,30.183 L30.652,30.729 C30.985,32.065 32.183,33 33.562,33 L38.439,33 C39.818,33 41.015,32.065 41.35,30.728 L41.485,30.183 C41.826,28.815 42,27.408 42,26 C42,25.447 41.553,25 41,25 Z M19,11 C19,9.897 19.897,9 21,9 C22.103,9 23,9.897 23,11 C23,12.103 22.103,13 21,13 C19.897,13 19,12.103 19,11 Z" id="Shape"></path>
                        </g>
                    </g>
                </g>
            </g>
        </g>
    </g>
</svg>