<?xml version="1.0" encoding="UTF-8"?>
<svg width="44px" height="44px" viewBox="0 0 44 44" version="1.1" xmlns="http://www.w3.org/2000/svg" xmlns:xlink="http://www.w3.org/1999/xlink">
    <!-- Generator: sketchtool 59.1 (101010) - https://sketch.com -->
    <title>993D2918-23FD-4B63-8EB4-BA0C454C7894</title>
    <desc>Created with sketchtool.</desc>
    <g id="Page-1" stroke="none" stroke-width="1" fill="none" fill-rule="evenodd">
        <g id="Desktop-x-1680---Signed-Out" transform="translate(-1147.000000, -1621.000000)" fill="#D90368" fill-rule="nonzero">
            <g id="Benefits" transform="translate(270.000000, 1349.000000)">
                <g id="Row-2" transform="translate(487.000000, 272.000000)">
                    <g id="4" transform="translate(390.000000, 0.000000)">
                        <g id="Helpful">
                            <circle id="Oval" cx="22" cy="28" r="1"></circle>
                            <circle id="Oval" cx="26" cy="28" r="1"></circle>
                            <circle id="Oval" cx="18" cy="28" r="1"></circle>
                            <path d="M32.261,10.674 C32.458,10.89 32.729,11 33,11 C33.24,11 33.481,10.914 33.674,10.739 C34.082,10.367 34.112,9.734 33.739,9.326 C30.609,5.892 26.44,4 22,4 C17.56,4 13.391,5.892 10.261,9.326 C9.889,9.734 9.919,10.367 10.327,10.739 C10.735,11.112 11.368,11.08 11.74,10.674 C14.485,7.659 18.13,6 22,6 C25.87,6 29.515,7.659 32.261,10.674 Z" id="Path"></path>
                            <path d="M43.707,24.293 L42,22.586 L42,22 L42,20 C42,8.972 33.028,0 22,0 C10.972,0 2,8.972 2,20 L2,22.318 L0.293,24.025 C0.106,24.213 0,24.467 0,24.732 L0,31 C0,31.266 0.105,31.52 0.293,31.707 L2,33.414 L2,34 C2,34.553 2.448,35 3,35 L6,35 C7.654,35 9,33.654 9,32 L9,23.732 C9,22.665 8.425,21.669 7.5,21.133 C7.022,20.857 6.41,21.021 6.134,21.5 C5.858,21.978 6.021,22.59 6.499,22.866 C6.809,23.044 7,23.376 7,23.732 L7,32 C7,32.552 6.551,33 6,33 L4,33 C4,32.734 3.895,32.48 3.707,32.293 L2,30.586 L2,25.147 L3.707,23.44 C3.895,23.252 4,22.998 4,22.732 L4,20 C4,10.075 12.075,2 22,2 C31.925,2 40,10.075 40,20 L40,21 L38,21 C36.346,21 35,22.346 35,24 L35,32 C35,33.065 35.573,34.061 36.497,34.597 C36.972,34.874 37.585,34.714 37.863,34.235 C38.141,33.757 37.978,33.146 37.501,32.869 C37.192,32.688 37,32.355 37,32 L37,24 C37,23.448 37.448,23 38,23 L40,23 C40,23.266 40.105,23.52 40.293,23.707 L42,25.414 L42,30.586 L40.293,32.293 C40.105,32.48 40,32.734 40,33 L40,37 C40,38.654 38.654,40 37,40 L27.816,40 C27.402,38.839 26.302,38 25,38 L19,38 C17.346,38 16,39.346 16,41 C16,42.654 17.346,44 19,44 L25,44 C26.302,44 27.402,43.161 27.816,42 L37,42 C39.757,42 42,39.757 42,37 L42,33.414 L43.707,31.707 C43.895,31.52 44,31.266 44,31 L44,25 C44,24.734 43.895,24.48 43.707,24.293 Z M25,42 L19,42 C18.448,42 18,41.552 18,41 C18,40.448 18.448,40 19,40 L25,40 C25.552,40 26,40.448 26,41 C26,41.552 25.552,42 25,42 Z" id="Shape"></path>
                            <path d="M18.697,34 L21.445,35.832 C21.613,35.944 21.807,36 22,36 C22.193,36 22.387,35.944 22.555,35.832 L25.303,34 L28,34 C29.654,34 31,32.654 31,31 L31,25 C31,23.346 29.654,22 28,22 L16,22 C14.346,22 13,23.346 13,25 L13,31 C13,32.654 14.346,34 16,34 L18.697,34 Z M15,31 L15,25 C15,24.448 15.448,24 16,24 L28,24 C28.552,24 29,24.448 29,25 L29,31 C29,31.552 28.552,32 28,32 L25,32 C24.803,32 24.609,32.059 24.445,32.168 L22,33.798 L19.555,32.168 C19.391,32.059 19.197,32 19,32 L16,32 C15.448,32 15,31.552 15,31 Z" id="Shape"></path>
                        </g>
                    </g>
                </g>
            </g>
        </g>
    </g>
</svg>