<svg xmlns="http://www.w3.org/2000/svg" xmlns:xlink="http://www.w3.org/1999/xlink" width="487" height="329" xmlns:v="https://vecta.io/nano"><style><![CDATA[.B{fill:#0c121b}.C{fill:#c2cfe5}.D{fill:#e8eef8}.E{fill:#e9eef7}.F{fill:#fff}.G{fill:#06090e}.H{stroke-linecap:round}.I{stroke-linejoin:round}.J{fill-rule:nonzero}.K{fill:#ffbf99}.L{fill:#dd9266}.M{fill:#052f5f}.N{stroke:#c2cfe5}.O{mask:url(#J)}.P{fill:#ea6676}.Q{fill:#4e51f0}.R{opacity:.548}.S{stroke-width:2.75}]]></style><defs><path id="A" d="M16.377 25.913h124.535v205.574H16.377z"/><circle id="B" cx="39.458" cy="39.328" r="38.188"/><filter x="-26.2%" y="-24.9%" width="152.4%" height="152.4%" id="C"><feOffset dy="1" in="SourceAlpha"/><feGaussianBlur stdDeviation="6.5"/><feColorMatrix values="0 0 0 0 0.89509682 0 0 0 0 0.903457821 0 0 0 0 0.961984828 0 0 0 1 0"/></filter><circle id="D" cx="39.77" cy="39.64" r="27.5"/><filter x="-36.4%" y="-34.5%" width="172.7%" height="172.7%" id="E"><feOffset dy="1" in="SourceAlpha"/><feGaussianBlur stdDeviation="6.5"/><feColorMatrix values="0 0 0 0 0.89509682 0 0 0 0 0.903457821 0 0 0 0 0.961984828 0 0 0 1 0"/></filter><circle id="F" cx="71.23" cy="60.815" r="3.465"/><filter x="-79.2%" y="-50.4%" width="229.6%" height="229.6%" id="G"><feMorphology radius="0.989999995" operator="dilate" in="SourceAlpha"/><feOffset dx="-1" dy="1"/><feGaussianBlur stdDeviation="1"/><feComposite in2="SourceAlpha" operator="out"/><feColorMatrix values="0 0 0 0 0.368627451 0 0 0 0 0.701960784 0 0 0 0 0.345098039 0 0 0 0.714379371 0"/></filter><path id="H" d="M376.993 47.427h5.867v19.947h-5.867z"/><path id="I" d="M435.193 144.815a.7.7 0 0 0-.636.755.7.7 0 0 0 .758.633.7.7 0 0 0 .636-.754.7.7 0 0 0-.758-.633"/></defs><g fill="none" fill-rule="evenodd"><path d="M24.486 266.482c-5.363-6.46-8.045-13.25-8.045-20.374 0-5.25 3.602-9.508 8.045-9.508s8.045 4.257 8.045 9.508c0 7.123-2.682 13.914-8.045 20.374zm0 12.174c8.36-.775 15.06-3.68 20.096-8.718 3.713-3.713 4.176-9.27 1.034-12.412s-8.7-2.68-12.412 1.034c-5.037 5.037-7.943 11.735-8.718 20.096z" class="D"/><path d="M24.59 278.704c-8.36-.775-15.06-3.68-20.096-8.718-3.713-3.713-4.176-9.27-1.034-12.412s8.7-2.68 12.412 1.034c5.037 5.037 7.943 11.735 8.718 20.096z" fill="#d7e1f2"/><g stroke-width="3.295" class="H I N"><path d="M13.213 267.326l11.378 11.378"/><path transform="matrix(.707107 .707107 -.707107 .707107 43.531674 234.873423)" d="M17.525 28.37v16.1"/><path d="M24.486 250.392v45.973"/></g><path d="M40.344 284.87H8.163l2.898 24.963a6.6 6.6 0 0 0 6.556 5.839H30.89a6.6 6.6 0 0 0 6.556-5.839l2.898-24.963z" class="D"/><path d="M8.163 284.87l.534 4.597H39.81l.533-4.597H8.163z" class="C"/><path d="M289.487 289.626c148.042-.8 202.92-89.548 193.368-144.222s-58.54-78.702-124.224-78.702S287.553 4 194.362 4C127.32 4 69.233 58.692 66.168 117.476c-5.556 106.535 75.277 172.95 223.32 172.15z" fill="#f1f6ff" opacity=".6"/><g transform="translate(181)"><path d="M20.73 0h102.232c10.935 0 19.8 8.865 19.8 19.8v217.8c0 10.935-8.865 19.8-19.8 19.8H20.73c-10.935 0-19.8-8.865-19.8-19.8V19.8C.93 8.865 9.795 0 20.73 0z" class="C"/><path d="M27.528 0H129.76c10.935 0 19.8 8.865 19.8 19.8v217.8c0 10.935-8.865 19.8-19.8 19.8H27.528c-10.935 0-19.8-8.865-19.8-19.8V19.8c0-10.935 8.865-19.8 19.8-19.8z" class="D"/><mask id="J" class="F"><use xlink:href="#A"/></mask><use xlink:href="#A" class="F"/><g class="O"><g transform="translate(20.86 30.69)"><g class="J"><g transform="translate(.823 .617)"><g transform="translate(.317 .693)"><g fill="#000"><path d="M.07 15.3v-2.904h1.146c.597 0 1.028.406 1.028.965s-.43.956-1.028.956H.283v.982H.07zm1.146-1.177c.456 0 .816-.306.816-.766s-.346-.77-.816-.77H.283v1.537h.935zm2.03 1.21c-.355 0-.723-.182-.723-.563 0-.435.4-.647.8-.647a1.95 1.95 0 0 1 .75.15v-.348c0-.4-.364-.477-.7-.477-.237 0-.482.054-.655.154l-.047-.166c.2-.104.46-.166.728-.166.44 0 .854.162.854.658v.912c0 .24-.014.377.257.344l.008.137c-.347.054-.44-.066-.427-.38-.16.3-.516.393-.854.393zm.825-.9a1.55 1.55 0 0 0-.724-.158c-.304 0-.626.142-.626.468 0 .306.274.4.558.4.33 0 .703-.145.792-.5v-.232zm1.792-1.158c.2.003.377.057.512.153l-.073.174a.79.79 0 0 0-.465-.137c-.304 0-.596.204-.596.544V15.3h-.2v-1.537c0-.195-.005-.32-.262-.285l-.008-.18c.325-.054.457.067.457.3.135-.236.402-.336.638-.323z"/><path d="M7.2 13.312H8v.17h-.8v1.077c0 .414.132.585.397.6.128 0 .284-.033.465-.095l.03.17c-.2.066-.364.096-.508.096-.38 0-.587-.228-.587-.755v-1.08l-.466-.013v-.157h.466l.017-.6H7.2v.6zm3.343 2.03c-.537 0-1.07-.348-1.07-1.035S10 13.28 10.547 13.28s1.066.34 1.066 1.028-.537 1.035-1.07 1.035zm0-.177c.43 0 .868-.3.868-.858s-.432-.84-.863-.845-.87.274-.87.845.432.858.866.858zm1.805-1.678h-.478v-.174h.478v-.36c0-.716.575-.816 1.12-.6l-.042.162c-.42-.178-.875-.153-.875.432v.356h.787v.174h-.787v1.822h-.203v-1.823zm1.995-.887v-.2H16.5v.2h-.972v2.7h-.2v-2.7zm3.112.684a.91.91 0 0 1 .512.153l-.072.174a.79.79 0 0 0-.465-.137c-.304 0-.596.204-.596.544V15.3h-.203v-1.537c0-.195-.004-.32-.262-.285l-.01-.18c.325-.054.457.067.457.3.135-.236.402-.336.638-.323zm1.433 2.058c-.355 0-.723-.182-.723-.563 0-.435.388-.647.8-.647a1.94 1.94 0 0 1 .748.15v-.348c0-.4-.364-.477-.7-.477-.237 0-.482.054-.655.154l-.046-.166c.2-.104.46-.166.727-.166.44 0 .855.162.855.658v.912c0 .24-.013.377.257.344l.008.137c-.346.054-.44-.066-.427-.38-.16.3-.515.393-.853.393zm.824-.9c-.233-.116-.482-.162-.723-.158-.305 0-.626.142-.626.468 0 .306.275.4.558.4.33 0 .7-.145.8-.5v-.232zm2.516.868v-1.214c0-.398-.27-.63-.664-.63-.402 0-.694.248-.694.663v1.18h-.203v-1.48c0-.32-.035-.386-.26-.353l-.004-.173c.308-.046.452.02.452.34.182-.257.432-.37.753-.365.515 0 .82.335.82.816v1.214h-.203zm.907-.556c.035.3.37.423.7.423s.677-.12.677-.406c0-.37-.402-.37-.673-.402-.407-.045-.84-.116-.84-.526s.406-.563.825-.563.824.17.824.526h-.186c0-.248-.317-.36-.635-.36-.308 0-.663.112-.642.394 0 .307.444.33.68.365.427.058.855.095.842.568 0 .398-.415.57-.875.57-.43 0-.846-.165-.892-.588h.198zm2.115-.44v-1.907h.212V14.3c0 .534.368.837.9.837s.892-.303.892-.837v-1.902h.207v1.907c0 .646-.452 1.027-1.1 1.027s-1.113-.38-1.113-1.027zm4.54.995v-1.214c0-.398-.27-.63-.664-.63-.402 0-.693.248-.693.663v1.18h-.204v-1.48c0-.32-.033-.386-.258-.353l-.004-.173c.3-.046.453.02.453.34.182-.257.43-.37.752-.365a.76.76 0 0 1 .82.816v1.214h-.203zm.902-2.84c.076.005.15.05.15.14s-.07.136-.146.14-.164-.046-.164-.14.08-.144.16-.14zm.1 2.84h-.22v-1.997h.22V15.3zm1.705.032c-.54 0-1.07-.348-1.07-1.035s.537-1.028 1.074-1.028 1.066.34 1.066 1.028-.538 1.035-1.07 1.035zm0-.177c.43 0 .866-.3.866-.858s-.43-.84-.863-.845-.87.274-.87.845.43.858.868.858zm3.237.145v-1.214c0-.398-.27-.63-.663-.63-.402 0-.694.248-.694.663v1.18h-.203v-1.48c0-.32-.034-.386-.26-.353l-.004-.173c.308-.046.452.02.452.34.182-.257.43-.37.753-.365a.76.76 0 0 1 .82.816v1.214h-.203z"/></g><g fill="#00a2d1"><path d="M5.08.04c1.946 0 3.964 1.058 4.5 3.258H8c-.498-1.2-1.605-1.768-2.913-1.782-2.032 0-3.383 1.448-3.383 3.523 0 1.934 1.35 3.48 3.383 3.48 1.364 0 2.514-.654 2.955-1.95h1.606c-.497 2.38-2.543 3.425-4.56 3.425C2.365 9.994.02 8.17.02 5.038.02 1.9 2.365.04 5.08.04m9.744 8.548v1.308h-4.802V8.588H11.6V1.446h-1.45V.15h4.547v1.296h-1.45v7.142zm7.06-3.815C22.922 5.12 23.5 5.93 23.5 7.028c0 1.74-1.222 2.868-3.154 2.868H15.9V.15h4.035c1.804 0 3.125.905 3.125 2.743 0 .82-.382 1.503-1.164 1.88h0zm-4.347-3.216v2.687H19.8c.952 0 1.605-.362 1.62-1.3 0-.96-.654-1.378-1.62-1.378h-2.273zm0 4v2.9h2.7c.923 0 1.576-.514 1.62-1.448 0-.487-.17-.877-.5-1.155-.385-.28-.838-.308-1.293-.308H17.54zm11.42 3.02v1.308h-4.802V8.588h1.577V1.446h-1.45V.15h4.546v1.296h-1.45v7.142zm2.728-.154h4.277v1.462h-5.94V.15h1.662z"/></g></g><path d="M83.47 11.098c.807 0 1.44-.18 1.9-.542s.688-.86.688-1.494c0-.322-.057-.602-.17-.84s-.293-.45-.537-.64-.628-.392-1.152-.6c-.465-.192-.788-.347-.967-.464s-.308-.242-.386-.374-.117-.29-.117-.476a.81.81 0 0 1 .293-.652c.195-.164.482-.247.86-.247.498 0 1.064.133 1.7.4h0l.37-.952c-.677-.3-1.357-.45-2.04-.45-.713 0-1.28.17-1.704.513s-.635.81-.635 1.406c0 .475.133.882.4 1.22s.726.64 1.377.903c.632.254 1.048.474 1.25.66s.303.412.303.68a.86.86 0 0 1-.33.708c-.22.176-.56.264-1.023.264a4.4 4.4 0 0 1-1.023-.132 5.39 5.39 0 0 1-1.038-.361h0v1.104c.514.25 1.175.376 1.982.376zm6.206 0a5.21 5.21 0 0 0 .981-.083c.286-.055.57-.15.85-.283h0V9.8a4.67 4.67 0 0 1-.886.3c-.275.06-.572.1-.89.1-.485 0-.86-.14-1.128-.422s-.41-.684-.425-1.208h3.6v-.62c0-.758-.207-1.354-.62-1.787s-.977-.65-1.69-.65c-.768 0-1.372.252-1.812.757s-.66 1.198-.66 2.08c0 .86.237 1.534.7 2.024s1.13.735 1.97.735zm.972-3.37h-2.45c.042-.443.173-.78.393-1.01s.512-.347.876-.347.65.115.86.344.316.567.322 1.013h0zm3.58 5.674V11.2c0-.098-.023-.374-.068-.83h.068c.378.492.908.737 1.592.737.674 0 1.202-.247 1.584-.742s.574-1.183.574-2.065-.188-1.567-.564-2.056-.9-.732-1.575-.732c-.716 0-1.253.273-1.61.82h0-.06l-.16-.723h-.928v7.803h1.147zm1.333-3.242c-.472 0-.812-.147-1.02-.442s-.312-.77-.312-1.428h0v-.17c0-.586.105-1.012.315-1.28s.543-.4 1-.4c.413 0 .727.155.94.466s.32.77.32 1.375-.107 1.066-.322 1.392-.52.488-.918.488zm6.846-3.853l.493-2.446h-.83c-.176.37-.347.786-.513 1.245L101.2 6.2l.06.107h1.138zm5.89 4.692V9.99h-3.39v-.05l1.24-1.2c.557-.524.955-.94 1.194-1.248a3.73 3.73 0 0 0 .532-.896c.116-.3.173-.596.173-.918 0-.586-.2-1.052-.6-1.4s-.933-.52-1.597-.52c-.423 0-.822.07-1.196.2s-.76.378-1.157.713h0l.62.757c.335-.264.63-.446.886-.547a2.14 2.14 0 0 1 .793-.151c.342 0 .6.093.803.278s.29.44.29.762a1.77 1.77 0 0 1-.122.659c-.08.205-.21.424-.388.657s-.538.627-1.082 1.184h0l-1.84 1.85V11h4.84zm3.28.098c.82 0 1.43-.3 1.83-.903s.598-1.523.598-2.764c0-1.204-.205-2.12-.615-2.744s-1.014-.937-1.812-.937c-.817 0-1.425.3-1.824.896s-.598 1.526-.598 2.786c0 1.2.205 2.113.615 2.734s1.012.933 1.807.933zm0-.957c-.44 0-.76-.208-.96-.625s-.3-1.112-.3-2.085.1-1.67.3-2.1.52-.63.96-.63.76.214.964.642.305 1.12.305 2.078-.102 1.652-.305 2.075-.525.635-.964.635z" class="M"/></g></g><g transform="translate(12.88 29.77)"><g transform="translate(4)"><use fill="#000" filter="url(#C)" xlink:href="#B"/><use fill="#f7edec" xlink:href="#B"/><use fill="#000" filter="url(#E)" xlink:href="#D"/><use xlink:href="#D" class="F"/><g transform="translate(2 1)" stroke-width="3.646" class="H"><path d="M30.52.787C13.1 4.373 0 19.796 0 38.28 0 51.305 6.506 62.81 16.446 69.725" stroke="#e5121b"/><path d="M55.745 4.208C50.508 1.518 44.57 0 38.28 0a38.87 38.87 0 0 0-2.373.072" stroke="#fd4501"/><path d="M72.54 21.19A38.45 38.45 0 0 0 60.085 6.814" stroke="#ffaf00"/><path d="M75.56 46.992c.652-2.8.996-5.716.996-8.713 0-4.102-.645-8.054-1.84-11.758" stroke="#52da1f"/><path d="M60.087 69.742c6.1-4.236 10.908-10.2 13.718-17.183" stroke="#08a42a"/></g><path d="M28.955 47.423c1.463 0 2.623-.35 3.48-1.054s1.286-1.637 1.286-2.804c0-.754-.234-1.437-.7-2.05s-1.255-1.196-2.364-1.75c1.74-.857 2.6-2.01 2.6-3.46 0-1.03-.4-1.855-1.17-2.47s-1.84-.923-3.18-.923c-1.296 0-2.346.305-3.152.914s-1.208 1.426-1.208 2.45c0 .715.184 1.36.55 1.934s.983 1.118 1.847 1.634c-1.005.5-1.73 1.05-2.17 1.677s-.662 1.336-.662 2.122c0 1.205.422 2.137 1.267 2.794s2.033.986 3.567.986zm0-8.585c-.645-.303-1.102-.562-1.373-.778s-.477-.456-.62-.72a1.87 1.87 0 0 1-.213-.899c0-.548.197-.98.6-1.3s.912-.48 1.557-.48c.657 0 1.184.16 1.58.48s.595.752.595 1.3a1.98 1.98 0 0 1-.479 1.32c-.32.377-.865.736-1.64 1.078zm-.04 6.845c-.806 0-1.444-.185-1.914-.556s-.706-.89-.706-1.56c0-.58.187-1.094.56-1.542s.986-.86 1.837-1.233h0l.28.126c.864.367 1.508.767 1.934 1.2s.638.91.638 1.43c0 .657-.23 1.178-.69 1.56s-1.107.575-1.938.575zm11.34 1.74c1.463 0 2.623-.35 3.48-1.054s1.286-1.637 1.286-2.804c0-.754-.234-1.437-.7-2.05s-1.255-1.196-2.364-1.75c1.74-.857 2.6-2.01 2.6-3.46 0-1.03-.4-1.855-1.17-2.47s-1.84-.923-3.18-.923c-1.296 0-2.346.305-3.152.914s-1.208 1.426-1.208 2.45c0 .715.184 1.36.55 1.934s.983 1.118 1.847 1.634c-1.005.5-1.73 1.05-2.17 1.677s-.662 1.336-.662 2.122c0 1.205.422 2.137 1.267 2.794s2.033.986 3.567.986zm0-8.585c-.645-.303-1.102-.562-1.373-.778s-.477-.456-.62-.72a1.87 1.87 0 0 1-.213-.899c0-.548.197-.98.6-1.3s.912-.48 1.557-.48c.657 0 1.184.16 1.58.48s.595.752.595 1.3a1.98 1.98 0 0 1-.479 1.32c-.32.377-.865.736-1.64 1.078zm-.04 6.845c-.806 0-1.444-.185-1.914-.556s-.706-.89-.706-1.56c0-.58.187-1.094.56-1.542s.986-.86 1.837-1.233h0l.28.126c.864.367 1.508.767 1.934 1.2s.638.91.638 1.43c0 .657-.23 1.178-.69 1.56s-1.107.575-1.938.575zm11.302 1.74c1.624 0 2.83-.596 3.62-1.79s1.184-3.016 1.184-5.472c0-2.385-.406-4.196-1.218-5.433s-2.008-1.856-3.587-1.856c-1.618 0-2.82.59-3.61 1.774s-1.184 3.02-1.184 5.516c0 2.378.406 4.183 1.218 5.414s2.004 1.847 3.577 1.847zm0-1.895c-.87 0-1.503-.413-1.9-1.237s-.595-2.2-.595-4.128.198-3.306.595-4.138 1.03-1.247 1.9-1.247 1.507.424 1.91 1.27.604 2.22.604 4.114c0 1.9-.2 3.27-.604 4.11s-1.04 1.257-1.91 1.257z" class="J M"/><use fill="#000" filter="url(#G)" xlink:href="#F"/><use stroke="#08a42a" stroke-width="1.98" xlink:href="#F" class="F"/></g><g class="J M"><path d="M75.933 76.237c.902 0 1.578-.275 2.026-.824s.673-1.38.673-2.494c0-.52-.08-.967-.244-1.34s-.393-.657-.692-.853-.65-.294-1.052-.294c-.572 0-1.024.175-1.355.524s-.497.82-.497 1.4c0 .544.143.972.43 1.284s.68.468 1.18.468c.3 0 .54-.052.756-.155a1.37 1.37 0 0 0 .551-.503h.046c-.028.706-.193 1.225-.495 1.555s-.76.495-1.373.495a2.55 2.55 0 0 1-.692-.097h0v.762c.15.04.396.062.74.062zm.696-2.842c-.317 0-.554-.092-.7-.277s-.234-.438-.234-.76c0-.37.084-.66.25-.864s.4-.307.723-.307a.91.91 0 0 1 .549.174c.16.116.284.274.373.474s.133.414.133.644a.83.83 0 0 1-.313.642c-.2.183-.467.275-.773.275zm4.6 2.842c.65 0 1.132-.238 1.448-.715s.474-1.207.474-2.2c0-.954-.162-1.678-.487-2.173s-.803-.742-1.435-.742c-.647 0-1.13.237-1.444.7s-.474 1.208-.474 2.206c0 .95.162 1.673.487 2.166s.802.74 1.43.74zm0-.758a.79.79 0 0 1-.76-.495c-.16-.33-.238-.88-.238-1.65s.08-1.323.238-1.655a.79.79 0 0 1 .76-.499c.348 0 .603.17.764.5s.242.888.242 1.645-.08 1.308-.242 1.644-.416.503-.764.503zm4.52.758c.65 0 1.132-.238 1.448-.715s.474-1.207.474-2.2c0-.954-.162-1.678-.487-2.173s-.803-.742-1.435-.742c-.647 0-1.13.237-1.444.7s-.474 1.208-.474 2.206c0 .95.162 1.673.487 2.166s.802.74 1.43.74zm0-.758a.79.79 0 0 1-.76-.495c-.16-.33-.238-.88-.238-1.65s.08-1.323.238-1.655a.79.79 0 0 1 .76-.499c.348 0 .603.17.764.5s.242.888.242 1.645-.08 1.308-.242 1.644-.416.503-.764.503zm-83.84.758c.7 0 1.256-.148 1.64-.443s.576-.715.576-1.26c0-.374-.113-.674-.34-.9s-.567-.367-1.02-.423h0v-.03c.38-.083.673-.243.882-.48s.313-.537.313-.895c0-.43-.16-.768-.48-1.013s-.764-.367-1.334-.367c-.686 0-1.288.2-1.806.572h0l.445.634c.27-.175.505-.293.704-.354a2.11 2.11 0 0 1 .619-.091c.307 0 .54.066.696.197s.236.318.236.56c0 .624-.45.936-1.354.936h0-.5v.74h.5c.513 0 .9.07 1.13.213s.36.364.36.665c0 .34-.108.592-.325.754s-.544.244-.982.244a3.28 3.28 0 0 1-.773-.097 3.62 3.62 0 0 1-.762-.275h0v.808c.43.204.96.306 1.586.306zm4.86 0c.65 0 1.132-.238 1.448-.715s.474-1.207.474-2.2c0-.954-.162-1.678-.487-2.173s-.803-.742-1.435-.742c-.647 0-1.13.237-1.444.7s-.474 1.208-.474 2.206c0 .95.162 1.673.487 2.166s.802.74 1.43.74zm0-.758a.79.79 0 0 1-.76-.495c-.16-.33-.238-.88-.238-1.65s.08-1.323.238-1.655a.79.79 0 0 1 .76-.499c.348 0 .603.17.764.5s.242.888.242 1.645-.08 1.308-.242 1.644-.416.503-.764.503zm4.52.758c.65 0 1.132-.238 1.448-.715s.474-1.207.474-2.2c0-.954-.162-1.678-.487-2.173s-.803-.742-1.435-.742c-.647 0-1.13.237-1.444.7s-.474 1.208-.474 2.206c0 .95.162 1.673.487 2.166s.802.74 1.43.74zm0-.758a.79.79 0 0 1-.76-.495c-.16-.33-.238-.88-.238-1.65s.08-1.323.238-1.655a.79.79 0 0 1 .76-.499c.348 0 .603.17.764.5s.242.888.242 1.645-.08 1.308-.242 1.644-.416.503-.764.503z" opacity=".4"/></g></g><g class="M"><path d="M10.26 156.42v-3.674l-.068-1.644-.024-.314h.04l3.476 5.632h1.416v-7.067h-1.06v3.703l.03 1.1.04.8h-.03l-3.466-5.603H9.21v7.067h1.05zm8.92.097c.364 0 .688-.027.972-.082a3.49 3.49 0 0 0 .841-.28h0v-.923c-.313.14-.605.238-.877.297s-.566.09-.882.09c-.48 0-.852-.14-1.117-.418s-.404-.678-.42-1.196h3.563v-.614c0-.75-.205-1.34-.614-1.77s-.967-.643-1.673-.643c-.76 0-1.358.25-1.793.75s-.653 1.186-.653 2.06c0 .85.234 1.52.703 2.004s1.12.728 1.95.728zm.962-3.335h-2.427c.042-.438.172-.772.39-1s.507-.343.868-.343.645.114.85.34.313.562.32 1.003h0zm3.002 3.24l1.315-2 1.32 2h1.286l-1.9-2.73 1.798-2.615h-1.286l-1.228 1.87-1.218-1.87h-1.296l1.793 2.615-1.88 2.73h1.286zm6.58.097c.213 0 .418-.02.616-.056s.36-.083.486-.138h0v-.856c-.277.087-.554.13-.83.13-.222 0-.402-.065-.54-.196s-.205-.333-.205-.607h0v-2.862h1.523v-.86h-1.523v-1.19h-.7l-.387 1.13-.783.416v.503h.73v2.88c0 1.134.538 1.702 1.615 1.702zm6.623 0c.374 0 .707-.07.998-.213s.516-.337.674-.585h.058l.16.7h.894v-5.346h-1.14v2.664c0 .67-.112 1.148-.336 1.433s-.574.428-1.05.428c-.358 0-.62-.102-.788-.307s-.25-.512-.25-.92h0v-3.297h-1.146v3.495c0 .654.16 1.142.48 1.465s.802.483 1.45.483zm5.54 2.282v-2.2c0-.097-.023-.37-.068-.822h.068c.374.487.9.73 1.576.73.667 0 1.2-.245 1.57-.735s.568-1.17.568-2.045-.186-1.552-.558-2.035-.892-.725-1.56-.725c-.71 0-1.24.27-1.595.812h0-.058l-.16-.715h-.918v7.725h1.136zm1.32-3.2c-.467 0-.804-.146-1-.437s-.31-.763-.31-1.414h0v-.17c0-.58.104-1.002.312-1.267s.537-.396.99-.396c.41 0 .72.154.93.462s.317.76.317 1.36-.106 1.055-.32 1.378-.516.483-.91.483zm5.516.928c.703 0 1.236-.266 1.6-.798h.053l.198.7h.89v-7.522h-1.14v1.948a6.81 6.81 0 0 0 .082.909h0-.058c-.367-.52-.902-.778-1.605-.778-.67 0-1.195.244-1.573.732s-.568 1.17-.568 2.047.187 1.552.56 2.035.894.725 1.56.725zm.305-.918c-.42 0-.733-.155-.943-.466s-.314-.763-.314-1.356c0-.6.108-1.06.324-1.385s.524-.486.923-.486c.467 0 .8.142 1.03.425s.33.762.33 1.436h0v.16c-.006.6-.116 1.016-.33 1.28s-.553.394-1.02.394zm5.356.918c.41 0 .744-.06 1.005-.176s.52-.34.778-.665h.04l.227.744h.812v-3.6c0-.635-.173-1.1-.52-1.397s-.86-.445-1.54-.445c-.306 0-.632.04-.976.118s-.662.194-.952.346h0l.367.812c.232-.1.474-.205.725-.285s.514-.12.788-.12c.335 0 .582.085.742.254s.24.425.24.766h0v.285l-.923.03c-.838.026-1.46.18-1.87.46s-.614.696-.614 1.247c0 .52.147.92.442 1.204s.705.425 1.23.425zm.358-.87c-.284 0-.496-.065-.638-.196s-.213-.315-.213-.553c0-.33.122-.573.365-.732s.632-.25 1.167-.268h0l.686-.03v.464c0 .416-.125.74-.375.97s-.58.346-.993.346zm5.8.87c.213 0 .418-.02.616-.056s.36-.083.486-.138h0v-.856c-.277.087-.554.13-.83.13-.222 0-.402-.065-.54-.196s-.205-.333-.205-.607h0v-2.862h1.523v-.86h-1.523v-1.19h-.7l-.387 1.13-.783.416v.503h.73v2.88c0 1.134.538 1.702 1.615 1.702zm4.505 0c.364 0 .688-.027.972-.082a3.49 3.49 0 0 0 .841-.28h0v-.923c-.313.14-.605.238-.877.297s-.566.09-.882.09c-.48 0-.852-.14-1.117-.418s-.404-.678-.42-1.196h3.563v-.614c0-.75-.205-1.34-.614-1.77s-.967-.643-1.673-.643c-.76 0-1.358.25-1.793.75s-.653 1.186-.653 2.06c0 .85.234 1.52.703 2.004s1.12.728 1.95.728zm.962-3.335h-2.427c.042-.438.172-.772.39-1s.507-.343.868-.343.645.114.85.34.313.562.32 1.003h0zm7.178 3.335c.8 0 1.423-.245 1.87-.735s.672-1.17.672-2.045c0-.844-.226-1.515-.677-2.013s-1.063-.747-1.837-.747c-.81 0-1.436.243-1.88.73s-.667 1.163-.667 2.03c0 .558.103 1.047.31 1.47s.5.746.885.972.825.338 1.325.338zm.02-.928c-.912 0-1.368-.617-1.368-1.85 0-.6.107-1.043.32-1.358s.56-.474 1.037-.474c.91 0 1.363.61 1.363 1.832 0 1.234-.45 1.85-1.354 1.85zm4.965.83v-2.664c0-.667.11-1.142.334-1.426s.574-.425 1.054-.425c.36 0 .624.102.8.305s.25.51.25.923h0v3.287h1.14v-3.485c0-1.305-.64-1.958-1.924-1.958a2.3 2.3 0 0 0-.986.208 1.58 1.58 0 0 0-.686.59h0-.058l-.16-.7h-.89v5.346h1.136zm12.133 0v-1h-3.355v-.048l1.228-1.19c.55-.52.945-.93 1.182-1.235s.412-.6.527-.887a2.43 2.43 0 0 0 .172-.909c0-.58-.198-1.042-.595-1.385s-.923-.515-1.58-.515c-.42 0-.814.07-1.184.208s-.752.374-1.146.706h0l.614.75c.332-.26.624-.442.877-.54a2.12 2.12 0 0 1 .786-.15c.338 0 .603.092.795.276s.288.435.288.754c0 .232-.04.45-.12.653s-.21.42-.384.65-.533.62-1.07 1.172h0l-1.822 1.832v.86h4.8zm4.95 0v-1.542h.952v-.943h-.952v-4.602h-1.107l-3.23 4.67v.875h3.23v1.542h1.107zm-1.107-2.485h-2.17l1.755-2.552c.193-.303.335-.56.425-.773h.04l-.048 1.552v1.774zm4.766 2.58c.213 0 .418-.02.616-.056s.36-.083.486-.138h0v-.856c-.277.087-.554.13-.83.13-.222 0-.402-.065-.54-.196s-.205-.333-.205-.607h0v-2.862h1.523v-.86h-1.523v-1.19h-.7l-.387 1.13-.783.416v.503h.73v2.88c0 1.134.538 1.702 1.615 1.702zm3.306-.097v-2.654c0-.67.112-1.148.336-1.433s.574-.428 1.05-.428c.36 0 .624.102.8.305s.25.51.25.923h0v3.287h1.14v-3.485c0-1.305-.648-1.958-1.943-1.958a2.08 2.08 0 0 0-.964.213c-.276.142-.49.342-.645.6h0-.073a8.91 8.91 0 0 0 .058-.981h0v-1.91H101.1v7.522h1.136z" opacity=".6" class="J"/><path opacity=".1" d="M0 139.6h114.84v1H0z"/></g><g fill="#08a42a" class="J"><path d="M36.43 131.67v-1.485h-3.086v-2.187h2.87v-1.473h-2.87v-1.862h3.086v-1.473h-4.884v8.48h4.884zm2.767 0l1.37-2.222 1.363 2.222h2.013l-2.2-3.312 2.11-3.173h-2.007l-1.27 2.065-1.26-2.065H37.3l2.088 3.173-2.198 3.312h2.007zm8.365.116c.445 0 .813-.035 1.105-.104a2.85 2.85 0 0 0 .867-.377h0v-1.514c-.3.193-.58.335-.87.426s-.605.136-.946.136c-.92 0-1.38-.634-1.38-1.903 0-1.307.46-1.96 1.38-1.96.24 0 .48.036.72.107a8.93 8.93 0 0 1 .777.276h0l.522-1.37c-.596-.294-1.268-.44-2.02-.44-1.025 0-1.812.29-2.36.873s-.824 1.424-.824 2.526c0 2.216 1.01 3.324 3.028 3.324zm6.4 0c.507 0 .936-.038 1.288-.113s.683-.2.992-.345h0v-1.37c-.38.178-.742.307-1.09.39s-.717.122-1.108.122c-.503 0-.893-.14-1.172-.423s-.427-.675-.447-1.178h4.182V128c0-.92-.255-1.642-.766-2.164s-1.224-.783-2.14-.783c-.96 0-1.7.297-2.254.9s-.815 1.434-.815 2.52c0 1.056.294 1.872.882 2.448s1.404.864 2.448.864zm.986-4.095h-2.483c.03-.437.153-.774.365-1.012s.507-.357.882-.357.673.12.893.357.335.575.342 1.012h0zm4.867 3.98v-9.026h-1.77v9.026h1.77zm3.625 0v-9.026h-1.77v9.026h1.77zm4.79.116c.507 0 .936-.038 1.288-.113s.683-.2.992-.345h0v-1.37c-.38.178-.743.307-1.09.39s-.717.122-1.108.122c-.503 0-.893-.14-1.172-.423s-.427-.675-.447-1.178h4.182V128c0-.92-.255-1.642-.766-2.164s-1.224-.783-2.14-.783c-.96 0-1.7.297-2.254.9s-.815 1.434-.815 2.52c0 1.056.294 1.872.882 2.448s1.404.864 2.448.864zm.986-4.095h-2.483c.03-.437.153-.774.365-1.012s.507-.357.882-.357.673.12.893.357.335.575.342 1.012h0zm4.867 3.98v-3.05c0-.766.1-1.314.33-1.645s.578-.496 1.073-.496c.364 0 .628.117.795.35s.25.585.25 1.053h0v3.788h1.77v-4.23c0-.77-.195-1.358-.586-1.766s-.963-.612-1.717-.612c-.44 0-.834.08-1.18.24a1.87 1.87 0 0 0-.815.711h0-.1l-.238-.83h-1.352v6.485h1.77zm8.26.116c.642 0 1.183-.1 1.624-.296h0v-1.317c-.433.135-.804.203-1.114.203-.232 0-.42-.06-.56-.18s-.212-.306-.212-.557h0v-3.127h1.816v-1.328h-1.816v-1.38h-1.13l-.5 1.37-.975.592v.748h.847v3.127c0 .715.16 1.252.484 1.6s.838.537 1.546.537z"/><path d="M6.5 2.32L2.1-.688C1.896-.826 1.69-.9 1.522-.9 1.193-.9 1-.636 1-.195v6.498c0 .44.203.704.53.704.17 0 .37-.074.574-.213L6.49 3.787c.283-.194.44-.454.44-.734s-.155-.54-.438-.734z" transform="matrix(0 -1 1 0 95.94568 38.602048)"/><path d="M106.858 37.697c.71 0 1.256-.148 1.64-.443s.576-.715.576-1.26c0-.374-.113-.674-.34-.9s-.567-.367-1.02-.423h0v-.03c.38-.083.673-.243.882-.48s.313-.537.313-.895c0-.43-.16-.768-.48-1.013s-.764-.367-1.334-.367c-.686 0-1.288.19-1.806.572h0l.445.634c.27-.175.505-.293.704-.354a2.11 2.11 0 0 1 .619-.091c.307 0 .54.066.696.197s.236.318.236.56c0 .624-.45.936-1.354.936h0-.5v.74h.49c.513 0 .89.07 1.13.213s.36.364.36.665c0 .34-.108.592-.325.754s-.544.244-.982.244c-.248 0-.505-.032-.773-.097a3.62 3.62 0 0 1-.762-.275h0v.808c.43.204.96.306 1.586.306zm4.954 0c.572 0 1.024-.172 1.355-.516s.497-.813.497-1.406c0-.54-.143-.966-.43-1.28s-.686-.472-1.2-.472c-.296 0-.554.057-.773.172s-.39.277-.5.485h0-.046c.026-.717.19-1.237.495-1.562s.76-.487 1.365-.487c.258 0 .485.028.68.085h0v-.758c-.196-.044-.436-.066-.72-.066-1.802 0-2.703 1.106-2.703 3.318 0 .523.08.97.242 1.344s.39.656.7.85.65.292 1.056.292zm-.015-.75c-.307 0-.56-.124-.756-.373s-.296-.555-.296-.918c0-.152.048-.3.143-.447s.226-.26.39-.344a1.18 1.18 0 0 1 .541-.126c.317 0 .555.093.713.278s.238.44.238.766c0 .374-.084.66-.253.862s-.41.302-.72.302z"/></g></g><g transform="translate(20.86 199.98)"><path fill="#67b5f7" d="M0 0h116.82v37.967H0z"/><path transform="matrix(-1 0 0 1 189.24841 0)" d="M85.28 9.93h18.69v18.69H85.28z" class="F"/><g transform="translate(91.12 14.603)" class="I"><g stroke="#67b5f7" stroke-width="1.46"><circle cx="3.505" cy="1.752" r="1.752"/><path d="M7.01 8.762c0-1.936-1.57-3.505-3.505-3.505S0 6.826 0 8.762" class="H"/></g></g><g stroke-width="2.921" class="H I"><path stroke="#fff" d="M75.933 14.75h-58.4"/><path d="M67.172 23.072H60.28m-7.496 0h-35.26" stroke="#c5e4ff"/></g></g><path d="M60.483 12.093h36.323v3.455H60.483z" class="C"/></g></g><path fill="#6792f7" d="M372.3 39.8h35.2V75h-35.2z"/><g fill="#4879eb"><use xlink:href="#H"/><use xlink:href="#H" x="9.974"/><use xlink:href="#H" x="19.947"/></g><path d="M376.993 51.827h5.867v15.547h-5.867zm9.974 5.866h5.867v9.68h-5.867z" fill="#d0deff"/><path d="M396.94 54.76h5.867v12.613h-5.867z" class="F"/><path d="M415.4 84.6h-99a5.5 5.5 0 0 0-5.5 5.5v24.75a5.5 5.5 0 0 0 5.5 5.5h99a5.5 5.5 0 0 0 5.5-5.5V90.1a5.5 5.5 0 0 0-5.5-5.5z" class="D"/><g class="H I S"><path stroke="#fff" d="M354.9 98.488h55"/><path d="M354.9 106.325h6.5m7.058 0h33.2" class="N"/></g><g class="H I S"><path d="M321.9 108.8c1.53-4.638 3.493-6.685 5.886-6.142 3.6.814 3.6 4.548 7.304 3.942s4.84-11 8.8-11" class="N"/><path d="M321.9 108.8c1.53-4.638 3.493-6.685 5.886-6.142 3.6.814 3.6 4.548 7.304 3.942 2-.325 3.24-3.477 4.585-6.324" stroke="#59dc7f"/></g><g transform="matrix(-1 0 0 1 218.100004 64.000001)"><path d="M57.33 95.4c-1.297 1.24-3.078 2.084-5.36 2.31-10.8 1.075-24.7-9.39-42.818-38.972C3.71 56.44.686 54.53.08 53.006c-1.002-2.51 7.9.5 8.594-.73s-2.115-3.1-2.533-4.328 5.73 2.835 6.384 3.613c.638.474 24.75 15.993 35.76 22.454 3.3-5.997 8.126-13.683 14.476-23.058l16.88 11.495c-10.92 18.206-18.085 28.963-21.493 32.27-.26.25-.53.477-.813.68" class="K"/><path d="M75.366 35.332l-6.244 49.752c-10.953-6.338-17.28-10.968-18.977-13.89-2.546-4.382 2.148-5.092 3.6-7.107s1.944-11.6 5.896-17.717c2.635-4.078 7.873-7.757 15.715-11.04" class="P"/><path d="M58.278 78.376c1.622.634 2.684.42 3.184-.64s.593-5.358.278-12.89l1.493 16.72-4.955-3.2z" opacity=".08" class="G"/><path d="M65.405 233.84l-1.944 15.725v3.233H34.995v-3.233l14.413-8.063.277-6.88z" class="B"/><path d="M35.298 249.396h28.155l.008.17v3.233H34.995v-3.233z" class="E"/><path d="M65.823 90.13l26.2 5.496c1.305 9.213 1.737 16.428 1.296 21.645-.54 6.384-13.985 19.95-13.985 53.14 0 14.442-3.8 36.062-11.428 64.86H49.572c-1.754-31.807-1.72-55.832.097-72.076s7.205-40.6 16.154-73.064m54.115 143.71l1.944 15.725v3.233H93.416v-3.233l11.82-8.063-1.667-7.526z" class="B"/><path d="M93.72 249.396h28.155l.008.17v3.233H93.416v-3.233z" class="E"/><path d="M87.087 91.93l25.463.873c4.665 6.694 6.778 13.724 6.338 21.09-.66 11.05-10.3 22.07-4.526 54.756 2.513 14.222 4.683 36.173 6.5 65.854h-18.055c-11.582-28.902-17.9-51.508-18.926-67.82s.03-41.23 3.195-74.753" class="B"/><path d="M86.844 94.54l.21-2.24 1.856-.305 23.642.81c1.4 2.024 2.588 4.08 3.532 6.165-7.893 3.8-15.528 6.062-22.907 6.815-10.5 1.073-20.5-.934-29.967-6.02l.998-3.714 16.74-2.748 5.898 1.237z" class="G"/><path d="M63.73 88.9c-.737 3.023-1.794 4.3-2.202 6.028-1.74 7.37 31.244 9.806 52.515.534 5.434-15.217 5.83-60.532-6.64-62.998-10.044-1.985-28.25-1.918-40.754 7.635-8.825 6.74-2.39 46.637-2.92 48.8" class="P"/><path d="M110.778 144.015l-30.86 17.78-25.592-44.233 30.86-17.78z" class="E"/><path d="M140.553 89.78c-.823 10.9-6.202 21.185-39.28 33.998-3.548 1.17-6.377 1.77-8.486 1.8-3.163.046 2.74-6.08 2.73-7.483-.004-.506-1.758-2.362-2.192-2.974 1.98.003 4.62.235 5.17.434.956.347 21.534-26.056 22.158-27.767s-11.047-18.06-11.973-28.255-2.073-15.92 11.98-13.92 20.718 33.257 19.894 44.167" class="K"/><path d="M134.44 58.685c1.54 3.46 5.23 4.144 5.23 8.62s-16.443 12.942-25.95 12.942c-10.69-1.92-19.218-28.73-20.333-39.808-.82-8.142 4.017-9.98 16.73-7.696 13.808 2.48 21.523 19.65 24.324 25.943" class="P"/><path d="M117.117 78.84c-.327 3.687-.796 7.147-1.387 10.17-1.175-6.4-2.394-10.368-3.656-11.903-1.335-1.623-5.16-5.552-11.475-11.788 4.923 4.295 8.195 6.668 9.82 7.122s.584-4.703-3.12-15.467l9.82 21.866z" opacity=".08" class="G"/><g class="K"><path d="M78.584 34.015c5.873 4.738 15.92 2.946 19.42-2.556-5.987-.172-12.873.458-19.42 2.556"/><path d="M92.952 19.597L95.6 32.274 83.283 36.02l.912-11.427z"/></g><path d="M83.883 28.5l6.778-4.643.18.387-7.235 7.733z" class="B"/><path d="M96.62 13.276c.157 1.797-.103 3.534-.702 5.116-3.04 5.952-12.03 12.172-15.832 12.136s-6.3-4.838-6.145-8.302c.14-3.13.4-2.17-.684-7.797S77.736 3.236 83.96 2.692c6.43-.56 12.098 4.177 12.66 10.584" class="K"/><path d="M79.225 25.002c-1.404.122-2.608-.54-2.64-.883s1.125-.244 2.53-.366 2.524-.423 2.554-.078-1.04 1.204-2.444 1.327" class="F"/><path d="M81.808 13.868c-1.15.264-1.534.63-1.595.366s.22-1.058 1.373-1.322 2.792.34 2.854.605-1.48.087-2.632.352m-6.642.58c-1.18-.06-2.667.38-2.652.1s1.525-1.15 2.705-1.1 1.596.793 1.58 1.064-.454-.023-1.634-.084" class="B"/><path d="M78.47 22.288c-.032.083-.125.125-.21.094.066.025-.346-.13-.443-.17l-.392-.164c-.96-.44-1.037-1.008-.118-2.1.77-.912.752-2.22-.074-3.946-.04-.08-.005-.177.076-.216s.178-.004.216.076c.876 1.83.894 3.27.03 4.294-.8.937-.746 1.252.006 1.597l.374.156.44.168c.082.032.124.125.093.208" fill="#b07451"/><path d="M73.776 16.633c-2.413-.73-3.375-3.787-3.61-6.49s-2.42-3.03-1.977-6.354 3.738-3.855 5.815-3.5 3.11.52 7.328-.183 6.42 2.254 7.334 2.174 5.38.753 7.484 5.594c1.403 3.227 1.327 6.732-.23 10.516-3.128-.403-5.823-3.092-8.084-8.065-6 .01-9.907-1.16-11.69-3.508-2.5 2.232-3.28 5.503-2.37 9.814" class="B"/><path d="M93.63 19.973c-1.54.134-2.897-.994-3.03-2.52s1.006-2.872 2.546-3.006 2.896.994 3.03 2.52-1.006 2.872-2.546 3.006m-6.6-13.93c.213 2.434.704 4.26 1.467 5.475.047.076.025.175-.05.222s-.176.025-.224-.05c-.794-1.267-1.297-3.14-1.515-5.62-.008-.1.058-.167.147-.175s.168.058.176.147m-12.343-2.57c.593 2.14 1.427 3.56 2.5 4.272.075.05.094.15.044.225s-.15.094-.225.044c-1.138-.762-2-2.25-2.62-4.455a.16.16 0 0 1 .112-.198c.087-.024.176.027.2.112" class="K"/><path d="M82.53 17.47a.74.74 0 0 1-.802-.671.74.74 0 1 1 1.475-.13.74.74 0 0 1-.673.8m-7.05.616a.74.74 0 1 1 .674-.8.74.74 0 0 1-.674.8" class="B"/></g><path d="M48.315 233.1h54.67c1.914 0 3.465 1.55 3.465 3.465s-1.55 3.465-3.465 3.465h-54.67c-1.914 0-3.465-1.55-3.465-3.465s1.55-3.465 3.465-3.465z" class="D"/><path d="M71.8 240.03h7.7l-1.54 87.78h-4.62z" class="C"/><g class="D"><path d="M44.85 312.4h61.6v3.85h-61.6z"/><path d="M98.75 240.03l11.55 87.78h-3.85l-15.4-87.78h7.7zm-38.5 0l-15.4 87.78H41l11.55-87.78h7.7z"/></g><g class="C"><path d="M60.25 240.03l-.675 3.85h-7.532l.507-3.85h7.7zm38.5 0l.507 3.85h-7.532l-.675-3.85h7.7zm-19.25 0l-.08 4.62h-7.54l-.08-4.62h7.7zm-14.156-9.765c1.68-1.002 3.046-2.415 4.1-4.24s1.594-3.714 1.622-5.67c-1.68 1.002-3.046 2.415-4.1 4.24s-1.594 3.714-1.622 5.67z"/><path d="M65.333 227.652c1.363-1.403 2.317-3.12 2.862-5.156s.578-4 .1-5.896c-1.363 1.403-2.317 3.12-2.862 5.156s-.578 4-.1 5.896z"/><path d="M66.52 227.652c-1.363-1.403-2.317-3.12-2.862-5.156s-.578-4-.1-5.896c1.363 1.403 2.317 3.12 2.862 5.156s.578 4 .1 5.896z"/><path d="M66.52 230.265c-1.68-1.002-3.046-2.415-4.1-4.24s-1.594-3.714-1.622-5.67c1.68 1.002 3.046 2.415 4.1 4.24s1.594 3.714 1.622 5.67z"/></g><path d="M61.513 226.58h9.03l-1.188 6.653H62.7zm15.215-10.156h14.784L89.4 233.32H78.84z" class="D"/><path d="M77.256 219.064h13.728l-.528 6.864H77.784zm-.528-4.752h14.784l.528 2.112H76.2z" class="C"/><path d="M77.784 212.2h12.672l.528 2.112H77.256z" class="D"/><path d="M415.03 198.89l19.684 3.68c.523 21.164-5.937 29.77-19.38 25.814s-29.195-8.882-47.257-14.78c-6.673 2.713-10.916 4.068-12.728 4.068-2.72 0 2.967-6.03 10.653-9.65 5.124-2.414 20.344-1.842 45.66 1.718l3.367-10.85z" class="L"/><path d="M429.684 162.773c-3.366.952-6.215 3.18-8.545 6.688-3.495 5.26-7.68 24.657-8.413 25.62s-1.54 2-1.54 3.32c0 .88 4.808 2.675 14.425 5.387l4.073-41.012z" class="Q"/><path d="M421.73 202.663l-8.367-2.826c3.776.36 5.912.297 6.407-.188.57-.558.824-6.015.76-16.37l1.198 19.384z" class="G R"/><path d="M409.25 306.583l-14.848.74 1.574 6.49-13.613 7.6v3.05h26.888v-3.05z" class="B"/><path d="M382.647 321.264l-.286.16v3.05h26.888v-3.05l-.007-.16z" class="E"/><path d="M413.357 245.437c-.77 22.164-.77 29.485-3.284 62.864l-15.875-.305c-8.497-36.962-7.046-60.305 4.352-70.026 7.902-5.147 14.813-5.147 14.808 7.467" class="B"/><path d="M413.25 248.57l-.083 2.478-7.796-.328c-1.9 0-6.36 4.607-13.413 13.82l7.51-21.877 13.78 5.91z" class="G"/><path d="M366.062 299.494l-13.275-5.308-2.9 6.26-14.44 1.702-1.245 2.786 24.563 10.903 1.244-2.786z" class="B"/><path d="M335.77 302.117l-.326.03-1.244 2.786 24.563 10.903 1.245-2.786.058-.15z" class="E"/><path d="M468.342 220.785c6.215 16.25 3.368 26.62-8.54 31.108-17.863 6.732-38.44 0-57.398-4.85-6.157 2.713-1.944 14.868-36.296 54.216l-14.51-5.286c21.623-50.126 35.327-76.222 41.113-78.3s30.995-1.034 75.63 3.102" class="B"/><path d="M422.243 211.864c.64-2.002-5.77-40.988 3-46.755 12.414-8.17 26.435-6.035 35.768-3.505 11.59 3.14 14.616 48.643 10.538 72.6-17.265 2.96-33.473-15.336-51.77-16.8.5-1.6 1.58-2.733 2.473-5.53" class="Q"/><path d="M473.02 219.995c-.27 5.168-.766 10.018-1.48 14.21-4.79.822-9.5.007-14.193-1.63 2.824-1.318 4.043-2.618 3.655-3.9-.703-2.324-7.455-5.573-20.257-9.748 14.193-.064 24.95.293 32.276 1.07" class="G R"/><path d="M419.99 255.398h40.24c12.784-9.184 18.592-24.233 17.422-45.15H474.6c-3.372 12.96-9.56 20.485-18.565 22.575-13.506 3.135-23.352 1.812-29.892 6.265-4.36 2.968-6.41 8.405-6.152 16.3" class="C"/><path d="M455.022 255.398h4.284l16.523 69.555h-2.448z" class="E"/><path d="M455.022 255.398h4.284l1.015 4.27h-4.17z" class="C"/><path d="M428.095 255.398h-4.284l-16.523 69.555h2.448z" class="E"/><path d="M426.968 259.67h-4.17l1.014-4.27h4.284z" class="C"/><path d="M482.278 185.353c1.566 3.477 4.54 4.86 3.538 8.908s-16.718 8.723-28.515 10.644c-9.9-2.682-12.003-27.213-12.138-37.72-.1-7.722 4.604-9.053 16.378-5.862 12.79 3.465 18.08 18.128 20.738 24.03" class="Q"/><path d="M467.084 209.74l-9.413-22.508c4.12 11.666 5.72 18.062 4.805 19.187s-4.698 1.622-11.347 1.49l15.955 1.83z" class="G R"/><path d="M464.33 203.162l19.684-6.692c4.603 25.232.182 35.87-13.26 31.915s-29.195-8.882-47.257-14.78c-3.053 1.898-5.16 3.052-6.326 3.464-3.215 1.14-5.228.604-6.402.604-2.72 0 2.967-6.03 10.653-9.65 5.123-2.414 20.344-1.842 45.66 1.718l-2.753-6.578z" class="L"/><path d="M340.584 224.89h93.02V220h-93.02z" class="D"/><path d="M359.555 224.89h-4.284l-16.523 100.062h2.448z" class="E"/><path d="M358.77 229.162h-4.205l.705-4.27h4.284z" class="C"/><path d="M418.304 224.89h4.284l16.523 100.062h-2.448z" class="E"/><path d="M418.304 224.9h4.284l.705 4.27h-4.205zm-7.2-7.896l-5.237-33.418c-.233-1.486-1.516-2.58-3.023-2.58h-52.658a2.39 2.39 0 0 0-.378.03 2.44 2.44 0 0 0-2.04 2.788l5.678 36.232h68.54a3.05 3.05 0 0 0 3.06-3.05h-13.94z" class="C"/><g class="L"><path d="M431.742 161.748c5.387 4.66 14.873 2.866 18.36-2.21-5.395-.86-11.58-.257-18.36 2.21"/><path d="M445.16 148.21l2.5 11.962-11.643 3.536.862-10.784z"/></g><path d="M436.593 156.622l-.262 3.282 6.833-7.298-.17-.366z" class="B"/><path d="M448.625 142.245c-.53-6.045-5.884-10.517-11.958-9.987-5.88.513-11.134 5.767-10.1 11.076s.778 4.403.646 7.358c-.147 3.27 2.213 7.8 5.804 7.834s12.083-5.835 14.954-11.452c.565-1.493.812-3.133.663-4.83" class="L"/><g fill="#47220c"><path d="M426.98 145.278c-1.435-.697-2.902-1.4-2.902-3.017 0-1.114.917-2.048.917-2.66 0-1.387-1.28-2.317-.917-3.583.417-1.447 1.717-1.44 2.222-2.22.587-.904.417-1.977 1.47-3.156s3.066-.57 4.174-1.106c1.887-.913 2.14-2.03 4.428-1.665 2.154.342 2.348 1.346 3.628 1.844s3.557-.466 4.93.67c1.33 1.097.626 2.178 1.698 3.242.974.966 2.106 1.743 2.462 2.562.575 1.322-.356 2.07-.363 3.722-.002.42 1.13 1.296 1.13 2.643 0 .98-.654 2.442-1.964 4.385-3.502.46-6.134-2.582-7.894-9.125-5.37-.24-9.65.167-12.842 1.223-.572 1.658-.632 3.74-.18 6.242m7.656-2.475c-1.087.25-1.45.595-1.506.345s.208-.998 1.296-1.248 2.638.322 2.696.57-1.398.083-2.486.332"/><path d="M428.36 143.35c1.115.057 1.53.334 1.543.08s-.38-.947-1.494-1.004-2.542.773-2.555 1.03 1.39-.16 2.505-.103"/></g><path d="M432.193 153.31c-1.326.115-2.464-.508-2.493-.833s1.063-.23 2.39-.346 2.384-.398 2.412-.073-.983 1.137-2.31 1.252" class="F"/><path d="M431.335 150.848c-.018 0-.037-.004-.054-.01l-.146-.055c-.687-.26-1.23-.464-1.343-.9-.088-.337.094-.75.59-1.337.726-.86.703-2.114-.07-3.725-.036-.076-.004-.167.072-.203s.168-.005.204.07c.83 1.73.838 3.093.028 4.053-.414.5-.586.838-.527 1.063.074.285.55.465 1.155.694l.147.056c.08.03.12.118.088.196-.023.06-.08.098-.143.098" fill="#9b5d39"/><path d="M445.8 148.565c-1.454.127-2.736-.938-2.862-2.377s.95-2.71 2.404-2.838 2.736.938 2.862 2.378-.95 2.7-2.404 2.837" class="L"/><g fill="#47220c"><use xlink:href="#I"/><use xlink:href="#I" x="-6.66" y="0.581"/></g></g></svg>