<?xml version="1.0" encoding="UTF-8"?>
<svg width="99px" height="99px" viewBox="0 0 99 99" version="1.1" xmlns="http://www.w3.org/2000/svg" xmlns:xlink="http://www.w3.org/1999/xlink">
    <title>8AA90476-6800-4702-978A-097D38A48E87</title>
    <defs>
        <filter x="-3.9%" y="-16.2%" width="107.8%" height="132.3%" filterUnits="objectBoundingBox" id="filter-1">
            <feOffset dx="0" dy="2" in="SourceAlpha" result="shadowOffsetOuter1"></feOffset>
            <feGaussianBlur stdDeviation="3" in="shadowOffsetOuter1" result="shadowBlurOuter1"></feGaussianBlur>
            <feColorMatrix values="0 0 0 0 0   0 0 0 0 0   0 0 0 0 0  0 0 0 0.120602054 0" type="matrix" in="shadowBlurOuter1" result="shadowMatrixOuter1"></feColorMatrix>
            <feMerge>
                <feMergeNode in="shadowMatrixOuter1"></feMergeNode>
                <feMergeNode in="SourceGraphic"></feMergeNode>
            </feMerge>
        </filter>
        <rect id="path-2" x="0" y="0" width="64.8" height="31.138"></rect>
        <rect id="path-4" x="0" y="0" width="64.8" height="28.613"></rect>
    </defs>
    <g id="Page-1" stroke="none" stroke-width="1" fill="none" fill-rule="evenodd">
        <g id="Homepage---Made-in-India---Desktop---3" transform="translate(-361.000000, -1340.000000)">
            <g id="Group-7" transform="translate(0.000000, 1305.000000)">
                <g id="Group-5" transform="translate(357.000000, 35.000000)">
                    <g id="Group-3">
                        <g id="Group-2" filter="url(#filter-1)">
                            <g id="Made_in_India_badge" transform="translate(16.000000, 12.000000)">
                                <g id="Group" fill="#FFFFFF" fill-rule="nonzero">
                                    <path d="M38.41,0.5 C41.2988204,0.5 44.1724879,0.917363865 46.942,1.739 L48.708,2.263 C51.4672402,3.08259514 54.0941669,4.29502285 56.508,5.863 L58.107,6.9 C60.5098685,8.46010955 62.6768754,10.3563669 64.542,12.531 L65.83,14.031 C67.6859314,16.191606 69.2247126,18.605506 70.4,21.2 L71.244,23.068 C72.4098016,25.6536644 73.2030322,28.3915894 73.6,31.2 L73.895,33.271 C74.2940467,36.0748731 74.2940467,38.9211269 73.895,41.725 L73.6,43.8 C73.2002989,46.6081286 72.4043742,49.3453822 71.236,51.93 L70.4,53.8 C69.226673,56.3959499 67.6895697,58.8115423 65.835,60.974 L64.547,62.474 C62.6799948,64.6472298 60.5113016,66.5418056 58.107,68.1 L56.512,69.135 C54.0981669,70.7029772 51.4712402,71.9154049 48.712,72.735 L46.946,73.259 C44.1753023,74.0816943 41.300258,74.5 38.41,74.5 L36.59,74.5 C33.7011796,74.5 30.8275121,74.0826361 28.058,73.261 L26.292,72.737 C23.5327598,71.9174049 20.9058331,70.7049772 18.492,69.137 L16.893,68.1 C14.4901315,66.5398905 12.3231246,64.6436331 10.458,62.469 L9.17,60.969 C7.31406863,58.808394 5.77528737,56.394494 4.6,53.8 L3.76,51.928 C2.59318329,49.3438062 1.7986111,46.6072457 1.4,43.8 L1.1,41.727 C0.700953322,38.9231269 0.700953322,36.0768731 1.1,33.273 L1.4,31.2 C1.79970111,28.3918714 2.59562578,25.6546178 3.764,23.07 L4.6,21.2 C5.77528737,18.605506 7.31406863,16.191606 9.17,14.031 L10.458,12.531 C12.3231246,10.3563669 14.4901315,8.46010955 16.893,6.9 L18.488,5.865 C20.9018331,4.29702285 23.5287598,3.08459514 26.288,2.265 L28.054,1.741 C30.8246977,0.918305706 33.699742,0.5 36.59,0.5 L38.41,0.5 Z" id="Polygon_2-2"></path>
                                </g>
                                <g id="Group_9987" transform="translate(5.100000, 3.100000)">
                                    <g id="Mask_Group_199-Clipped">
                                        <mask id="mask-3" fill="white">
                                            <use xlink:href="#path-2"></use>
                                        </mask>
                                        <g id="Rectangle_4099"></g>
                                        <g id="Mask_Group_199" mask="url(#mask-3)" fill="#FF9500" fill-rule="nonzero">
                                            <g transform="translate(0.000000, 2.000000)" id="Subtraction_3">
                                                <path d="M32.4,65.3250611 C16.9898408,65.3145232 3.7180866,54.4543411 0.658310104,39.3510009 C-2.4014664,24.2476608 5.59699061,9.07835958 19.788,3.071 C36.2556591,-3.80256231 55.1815921,3.92916534 62.1259021,20.3671157 C69.0702121,36.8050661 61.4199378,55.7640708 45.012,62.779 C41.022091,64.4674908 36.7324708,65.3334417 32.4,65.3250611 Z M32.4,3.04894435 C18.1926324,3.06072517 5.95772289,13.073887 3.13668138,26.9983674 C0.315639864,40.9228478 7.68849789,54.9084613 20.771,60.449 C35.9320921,66.6863703 53.2876742,59.54449 59.6677028,44.4428763 C66.0477313,29.3412626 59.0697931,11.9191197 44.029,5.397 C40.3501291,3.83987586 36.39483,3.04126528 32.4,3.04894435 Z"></path>
                                            </g>
                                        </g>
                                    </g>
                                    <g id="Mask_Group_200-Clipped" transform="translate(0.000000, 40.000000)">
                                        <mask id="mask-5" fill="white">
                                            <use xlink:href="#path-4"></use>
                                        </mask>
                                        <g id="Rectangle_4100"></g>
                                        <g id="Mask_Group_200" mask="url(#mask-5)" fill="#00953B" fill-rule="nonzero">
                                            <g transform="translate(0.000000, -38.600000)" id="Subtraction_4">
                                                <path d="M32.4,65.3831222 C16.9898408,65.3725842 3.7180866,54.5124022 0.658310104,39.409062 C-2.4014664,24.3057218 5.59699061,9.13642062 19.788,3.12906104 C36.2556591,-3.74450128 55.1815921,3.98722638 62.1259021,20.4251768 C69.0702121,36.8631271 61.4199378,55.8221318 45.012,62.837061 C41.022091,64.5255518 36.7324708,65.3915027 32.4,65.3831222 Z M32.4,3.10700539 C18.1926324,3.11878621 5.95772289,13.131948 3.13668138,27.0564284 C0.315639864,40.9809088 7.68849789,54.9665224 20.771,60.507061 C35.9320921,66.7444313 53.2876742,59.6025511 59.6677028,44.5009373 C66.0477313,29.3993236 59.0697931,11.9771808 44.029,5.45506104 C40.3501291,3.8979369 36.39483,3.09932632 32.4,3.10700539 Z"></path>
                                            </g>
                                        </g>
                                    </g>
                                </g>
                                <path d="M23.436,22.3 L22.061,17.82 L22.026,17.82 C22.0753333,18.7313333 22.1,19.3393333 22.1,19.644 L22.1,22.3 L21.02,22.3 L21.02,16.589 L22.667,16.589 L24.02,20.957 L24.043,20.957 L25.475,16.589 L27.12,16.589 L27.12,22.3 L25.995,22.3 L25.995,19.6 C25.995,19.4726667 25.997,19.3256667 26.001,19.159 C26.005,18.9923333 26.0226667,18.5496667 26.054,17.831 L26.02,17.831 L24.546,22.3 L23.436,22.3 Z M32.057,22.3 L31.643,20.941 L29.561,20.941 L29.147,22.3 L27.847,22.3 L29.858,16.566 L31.338,16.566 L33.361,22.3 L32.057,22.3 Z M31.357,19.925 C30.9743333,18.693 30.759,17.9963333 30.711,17.835 C30.663,17.6736667 30.6296667,17.546 30.611,17.452 C30.525,17.7853333 30.279,18.6096667 29.873,19.925 L31.357,19.925 Z M38.82,19.39 C38.8739786,20.1911997 38.5828473,20.9772543 38.02,21.55 C37.3726346,22.0889738 36.5423907,22.3576032 35.702,22.3 L34.081,22.3 L34.081,16.589 L35.874,16.589 C36.6669004,16.5396426 37.4473007,16.8048062 38.046,17.327 C38.5838832,17.8744268 38.8650584,18.6238641 38.82,19.39 Z M37.562,19.421 C37.562,18.1943333 37.0203333,17.581 35.937,17.581 L35.292,17.581 L35.292,21.3 L35.812,21.3 C36.978,21.3 37.561,20.674 37.561,19.422 L37.562,19.421 Z M43.292,22.3 L40.003,22.3 L40.003,16.589 L43.292,16.589 L43.292,17.581 L41.214,17.581 L41.214,18.834 L43.148,18.834 L43.148,19.826 L41.214,19.826 L41.214,21.299 L43.292,21.299 L43.292,22.3 Z M46.562,22.3 L46.562,16.589 L47.773,16.589 L47.773,22.3 L46.562,22.3 Z M54.277,22.3 L52.737,22.3 L50.253,17.98 L50.22,17.98 C50.2693333,18.7433333 50.294,19.2876667 50.294,19.613 L50.294,22.301 L49.21,22.301 L49.21,16.589 L50.737,16.589 L53.22,20.867 L53.247,20.867 C53.2076667,20.125 53.188,19.6003333 53.188,19.293 L53.188,16.593 L54.278,16.593 L54.277,22.3 Z" id="Path_14361" fill="#505F79" fill-rule="nonzero"></path>
                                <path d="M13.596,43.9 L13.596,31.911 L16.853,31.911 L16.853,43.9 L13.596,43.9 Z M30.864,43.9 L26.614,43.9 L22.234,35.451 L22.16,35.451 C22.264,36.7796667 22.316,37.794 22.316,38.494 L22.316,43.9 L19.445,43.9 L19.445,31.911 L23.676,31.911 L28.04,40.245 L28.089,40.245 C28.0136667,39.0343333 27.976,38.0626667 27.976,37.33 L27.976,31.911 L30.864,31.911 L30.864,43.9 Z M43.636,37.65 C43.7457301,39.3541629 43.1477039,41.0281298 41.983,42.277 C40.7153269,43.4209747 39.0402403,44.0060114 37.336,43.9 L33.456,43.9 L33.456,31.911 L37.607,31.911 C39.2283392,31.8063637 40.826877,32.3359824 42.065,33.388 C43.1702486,34.5210445 43.7414549,36.0706826 43.636,37.65 L43.636,37.65 Z M40.276,37.765 C40.3433992,36.8995357 40.1133865,36.0369881 39.624,35.32 C39.1242137,34.7594815 38.3918667,34.463733 37.643,34.52 L36.696,34.52 L36.696,41.238 L37.418,41.238 C38.2344122,41.307594 39.0362193,40.9903509 39.584,40.381 C40.1011058,39.6110961 40.3447891,38.6898884 40.276,37.765 L40.276,37.765 Z M45.788,43.901 L45.788,31.911 L49.045,31.911 L49.045,43.9 L45.788,43.901 Z M58.995,43.901 L58.404,41.653 L54.504,41.653 L53.897,43.901 L50.337,43.901 L54.25,31.859 L58.576,31.859 L62.536,43.9 L58.995,43.901 Z M57.729,38.995 L57.212,37.026 C57.092,36.5886667 56.9456667,36.022 56.773,35.326 C56.6003333,34.63 56.487,34.1323333 56.433,33.833 C56.3836667,34.1116667 56.2866667,34.571 56.142,35.211 C55.9973333,35.851 55.6753333,37.1123333 55.176,38.995 L57.729,38.995 Z" id="Path_14360" fill="#172B4D" fill-rule="nonzero"></path>
                                <line x1="29.5" y1="26.976" x2="45.5" y2="26.976" id="Line_163" stroke="#505F79"></line>
                                <line x1="29.5" y1="50.176" x2="45.5" y2="50.176" id="Line_164" stroke="#505F79"></line>
                                <polygon id="Polygon_3" fill="#505F79" fill-rule="nonzero" points="37.1 55.9 38.3 59.3 41.9 59.392 39.042 61.586 40.067 65.043 37.1 63 34.133 65.043 35.158 61.586 32.3 59.392 35.9 59.3"></polygon>
                                <polygon id="Polygon_4" fill="#505F79" fill-rule="nonzero" points="47.5 54.3 48.3 56.567 50.7 56.628 48.794 58.091 49.477 60.391 47.5 59.032 45.522 60.4 46.205 58.1 44.3 56.628 46.7 56.567"></polygon>
                                <polygon id="Polygon_6" fill="#505F79" fill-rule="nonzero" points="53.9 53.5 54.3 54.633 55.5 54.664 54.547 55.4 54.889 56.552 53.9 55.866 52.911 56.547 53.253 55.4 52.3 54.664 53.5 54.633"></polygon>
                                <polygon id="Polygon_5" fill="#505F79" fill-rule="nonzero" points="26.7 54.3 27.5 56.567 29.9 56.628 27.994 58.091 28.677 60.391 26.7 59.032 24.722 60.4 25.405 58.1 23.5 56.628 25.9 56.567"></polygon>
                                <polygon id="Polygon_7" fill="#505F79" fill-rule="nonzero" points="20.3 53.5 20.7 54.633 21.9 54.664 20.947 55.4 21.289 56.552 20.3 55.866 19.311 56.547 19.653 55.4 18.7 54.664 19.9 54.633"></polygon>
                            </g>
                        </g>
                    </g>
                </g>
            </g>
        </g>
    </g>
</svg>