<?xml version="1.0" encoding="UTF-8"?>
<svg width="141px" height="24px" viewBox="0 0 141 24" version="1.1" xmlns="http://www.w3.org/2000/svg" xmlns:xlink="http://www.w3.org/1999/xlink">
    <title>9FC35BCE-5F8E-45A3-9C21-F62484972A3D</title>
    <defs>
        <polygon id="path-1" points="0 23.258427 140.561798 23.258427 140.561798 0 0 0"></polygon>
        <polygon id="path-3" points="0 23.258427 140.561798 23.258427 140.561798 0 0 0"></polygon>
        <polygon id="path-5" points="0 23.258427 140.561798 23.258427 140.561798 0 0 0"></polygon>
        <polygon id="path-7" points="0 23.258427 140.561798 23.258427 140.561798 0 0 0"></polygon>
        <polygon id="path-9" points="0 23.258427 140.561798 23.258427 140.561798 0 0 0"></polygon>
        <polygon id="path-11" points="0 23.258427 140.561798 23.258427 140.561798 0 0 0"></polygon>
        <polygon id="path-13" points="0 23.258427 140.561798 23.258427 140.561798 0 0 0"></polygon>
    </defs>
    <g id="final" stroke="none" stroke-width="1" fill="none" fill-rule="evenodd">
        <g id="mobile" transform="translate(-11.000000, -5987.000000)">
            <g id="Group-47" transform="translate(0.000000, 5596.000000)">
                <g id="white-paisabazaar-logo@1x" transform="translate(11.123596, 391.314607)">
                    <path d="M56.2353065,7.67780841 C56.7605515,7.36608574 57.3264709,7.2103475 57.9336715,7.2103475 C58.8408908,7.2103475 59.5198482,7.63385699 59.9701796,8.48087597 C60.4203896,9.32814117 60.6454946,10.5987928 60.6454946,12.2932 C60.6454946,13.8920715 60.4134689,15.0911943 59.9496603,15.8908146 C59.4858518,16.6901888 58.7864965,17.0900605 57.8519586,17.0900605 C57.3608315,17.0900605 56.859384,16.9836907 56.347859,16.770951 C55.8359698,16.5583345 55.3107248,16.2393482 54.7718812,15.8138689 L54.7718812,9.08056047 C55.2219699,8.45723823 55.7096974,7.9896542 56.2353065,7.67780841 L56.2353065,7.67780841 Z M50.8698186,0.671311782 L50.8698186,1.35274347 L51.0638411,1.36370055 C51.8877691,1.42242555 52.3764679,1.54873972 52.5296947,1.74288928 C52.6829215,1.93703883 52.7595349,2.52859786 52.7595349,3.51768949 L52.7595349,18.1559748 L54.3939137,18.1559748 L54.6492512,16.6724605 L54.7718812,16.6724605 C55.2347185,17.2146511 55.7456365,17.6212941 56.3042707,17.8921432 C56.8625409,18.1632385 57.4652492,18.2989093 58.1121529,18.2989093 C59.5219123,18.2989093 60.6521725,17.6977474 61.5035405,16.4950543 C62.354787,15.2926075 62.7803496,13.6938592 62.7803496,11.6991787 C62.7803496,9.9027106 62.4091813,8.47275049 61.6669662,7.40942158 C60.9246297,6.3462158 59.9269556,5.81448978 58.6740654,5.81448978 C57.8772132,5.81448978 57.1534533,6.02353604 56.5032714,6.4412592 C55.852968,6.8593517 55.2758785,7.48599802 54.7718812,8.32156746 L54.7718812,0.671311782 L50.8698186,0.671311782 Z" id="Fill-1" fill="#FFFFFF" fill-rule="nonzero"></path>
                    <path d="M69.7194477,16.1578965 C68.9252666,16.7367748 68.2362316,17.026214 67.6523428,17.026214 C67.0347003,17.026214 66.5188043,16.7980852 66.1047763,16.3419507 C65.6906268,15.8859394 65.4836129,15.3119855 65.4836129,14.6204586 C65.4836129,13.6936622 65.8162923,12.9653243 66.4814083,12.4355681 C67.1466458,11.9060582 68.0698919,11.6411185 69.2510253,11.6411185 L69.7194477,11.6411185 L69.7194477,16.1578965 Z M69.3018985,10.970767 C67.082174,10.970767 65.5074104,11.3744553 64.5774863,12.1814624 C63.7630288,12.8859163 63.3556786,13.8031098 63.3556786,14.933043 C63.3556786,15.9014516 63.6680815,16.7068584 64.2930089,17.3490168 C64.9179364,17.9909293 65.6992474,18.3117623 66.6365777,18.3117623 C67.8048411,18.3117623 68.9870673,17.6763749 70.1827705,16.4051078 C70.4464858,17.6763749 71.0727488,18.3117623 72.0610738,18.3117623 C72.4412268,18.3117623 72.872496,18.2201661 73.3542741,18.0368504 L73.2932019,17.2223334 C73.0693111,17.2893069 72.8894942,17.3227937 72.7536299,17.3227937 C72.3734768,17.3227937 72.106969,17.1286442 71.9543493,16.7398527 C71.8014867,16.3511842 71.7252376,15.6800941 71.7252376,14.7268284 L71.7252376,9.40267391 C71.7252376,7.01920192 70.5237063,5.82758903 68.1207652,5.82758903 C66.9124346,5.82758903 65.6023575,6.16097964 64.1906554,6.82763774 L64.1906554,9.01462103 L65.5550054,9.01462103 L65.5650829,8.8056979 C65.639875,8.03648648 65.8162923,7.52729018 66.0945774,7.27810902 C66.5696776,6.86789576 67.1161704,6.66278913 67.7339342,6.66278913 C69.0576099,6.66278913 69.7194477,7.60423595 69.7194477,9.48712958 L69.7194477,10.970767 L69.3018985,10.970767 Z" id="Fill-3" fill="#FFFFFF" fill-rule="nonzero"></path>
                    <path d="M75.0291815,18.0357178 L84.6895125,18.0357178 L84.6895125,17.2258791 L81.5589261,17.2205852 L77.4690331,17.2205852 L84.4735137,6.74352679 L84.4735137,6.07157482 L75.3175442,6.07157482 L75.3175442,8.68243694 L76.3989952,8.68243694 L76.4094369,8.45110719 C76.4230355,8.23085764 76.4298348,7.96641043 76.4298348,7.65801181 C76.4298348,7.20261599 76.5156757,6.93644521 76.6873578,6.85925321 C76.8590398,6.78218434 77.4496065,6.74352679 78.4588151,6.74352679 L82.1096684,6.74352679 L75.0291815,17.3526857 L75.0291815,18.0357178 Z" id="Fill-5" fill="#FFFFFF" fill-rule="nonzero"></path>
                    <path d="M91.9437576,16.1578965 C91.1482409,16.7367748 90.4581132,17.026214 89.8733745,17.026214 C89.2546393,17.026214 88.737772,16.7980852 88.3230154,16.3419507 C87.9082588,15.8859394 87.7008806,15.3119855 87.7008806,14.6204586 C87.7008806,13.6936622 88.0341671,12.9653243 88.7004973,12.4355681 C89.3667061,11.9060582 90.291652,11.6411185 91.4746067,11.6411185 L91.9437576,11.6411185 L91.9437576,16.1578965 Z M91.5256014,10.970767 C89.3021129,10.970767 87.7246781,11.3744553 86.7931757,12.1814624 C85.9771397,12.8859163 85.5691825,13.8031098 85.5691825,14.933043 C85.5691825,15.9014516 85.8823139,16.7068584 86.5083341,17.3490168 C87.1342328,17.9909293 87.916758,18.3117623 88.8559096,18.3117623 C90.0259942,18.3117623 91.2101629,17.6763749 92.4076876,16.4051078 C92.6720098,17.6763749 93.2993655,18.3117623 94.2895118,18.3117623 C94.670272,18.3117623 95.1020268,18.2201661 95.5848976,18.0368504 L95.523704,17.2223334 C95.2993275,17.2893069 95.119025,17.3227937 94.9831606,17.3227937 C94.6022791,17.3227937 94.3355285,17.1286442 94.1823016,16.7398527 C94.0295606,16.3511842 93.9529472,15.6800941 93.9529472,14.7268284 L93.9529472,9.40267391 C93.9529472,7.01920192 92.7494732,5.82758903 90.3426468,5.82758903 C89.1321307,5.82758903 87.8197467,6.16097964 86.4057377,6.82763774 L86.4057377,9.01462103 L87.7723945,9.01462103 L87.782472,8.8056979 C87.8572642,8.03648648 88.0341671,7.52729018 88.3128165,7.27810902 C88.7887666,6.86789576 89.3361093,6.66278913 89.9548445,6.66278913 C91.280827,6.66278913 91.9437576,7.60423595 91.9437576,9.48712958 L91.9437576,10.970767 L91.5256014,10.970767 Z" id="Fill-7" fill="#FFFFFF" fill-rule="nonzero"></path>
                    <path d="M103.285261,16.1578965 C102.490959,16.7367748 101.801924,17.026214 101.218156,17.026214 C100.600514,17.026214 100.084618,16.7980852 99.6707114,16.3419507 C99.2564406,15.8859394 99.0494263,15.3119855 99.0494263,14.6204586 C99.0494263,13.6936622 99.3819838,12.9653243 100.047222,12.4355681 C100.712338,11.9060582 101.635584,11.6411185 102.816718,11.6411185 L103.285261,11.6411185 L103.285261,16.1578965 Z M102.867712,10.970767 C100.647866,10.970767 99.0732232,11.3744553 98.1431785,12.1814624 C97.3288421,12.8859163 96.9214919,13.8031098 96.9214919,14.933043 C96.9214919,15.9014516 97.2338949,16.7068584 97.8587009,17.3490168 C98.48375,17.9909293 99.2650608,18.3117623 100.202512,18.3117623 C101.370654,18.3117623 102.552759,17.6763749 103.748463,16.4051078 C104.012299,17.6763749 104.638562,18.3117623 105.626887,18.3117623 C106.00704,18.3117623 106.438188,18.2201661 106.920088,18.0368504 L106.859015,17.2223334 C106.635003,17.2893069 106.455065,17.3227937 106.319444,17.3227937 C105.939047,17.3227937 105.672782,17.1286442 105.520162,16.7398527 C105.3673,16.3511842 105.290929,15.6800941 105.290929,14.7268284 L105.290929,9.40267391 C105.290929,7.01920192 104.089398,5.82758903 101.686578,5.82758903 C100.478127,5.82758903 99.1681707,6.16097964 97.7563475,6.82763774 L97.7563475,9.01462103 L99.120819,9.01462103 L99.1307745,8.8056979 C99.205688,8.03648648 99.3819838,7.52729018 99.6602688,7.27810902 C100.135491,6.86789576 100.681862,6.66278913 101.299747,6.66278913 C102.623423,6.66278913 103.285261,7.60423595 103.285261,9.48712958 L103.285261,10.970767 L102.867712,10.970767 Z" id="Fill-9" fill="#FFFFFF" fill-rule="nonzero"></path>
                    <path d="M109.277182,16.9819918 C109.124683,17.1771262 108.638414,17.304056 107.81837,17.3629041 L107.625076,17.3739843 L107.625076,18.0583707 L113.644389,18.0583707 L113.644389,17.3739843 L113.207049,17.3629041 C112.393684,17.3114428 111.90717,17.1862365 111.747995,16.9876549 C111.588818,16.7889502 111.509049,16.1925897 111.509049,15.1990661 L111.509049,9.33678372 C112.153038,8.16646942 112.976481,7.58143538 113.97986,7.58143538 C114.230585,7.58143538 114.384783,7.6458236 114.442455,7.77447692 C114.500006,7.90349957 114.566057,8.31001944 114.640727,8.99440584 L114.650926,9.19323369 L115.779608,9.19323369 L115.779608,5.91423611 C115.528763,5.83335073 115.301715,5.79284648 115.098344,5.79284648 C113.62047,5.79284648 112.424281,6.63567961 111.509049,8.32097651 L111.509049,6.06874321 L107.625076,6.06874321 L107.625076,6.75325273 L107.81837,6.76420981 C108.638414,6.83069095 109.124683,6.95934426 109.277182,7.15078533 C109.42968,7.34222639 109.50593,7.93464722 109.50593,8.92829405 L109.50593,15.1990661 C109.50593,16.1925897 109.42968,16.7871035 109.277182,16.9819918" id="Fill-11" fill="#FFFFFF" fill-rule="nonzero"></path>
                    <path d="M5.28467358,7.6885562 C5.78223575,7.37634106 6.31840816,7.22011038 6.89343364,7.22011038 C7.75269363,7.22011038 8.39534774,7.64448166 8.82188164,8.49322423 C9.24817269,9.34208989 9.46137893,10.6152037 9.46137893,12.3129351 C9.46137893,13.9148843 9.24161624,15.1163462 8.80257651,15.917444 C8.36317254,16.7184187 7.70109189,17.1190291 6.81597032,17.1190291 C6.35070477,17.1190291 5.87584737,17.0125361 5.39139811,16.799304 C4.90682744,16.5861951 4.40926528,16.2667163 3.89895445,15.8403752 L3.89895445,9.09401675 C4.32536693,8.46946337 4.78723283,8.00089445 5.28467358,7.6885562 L5.28467358,7.6885562 Z M4.85663413e-05,6.09694845 L4.85663413e-05,6.77948816 L0.193949684,6.79069146 C1.01714917,6.85680327 1.50548373,6.98521036 1.65858912,7.17591274 C1.8115731,7.36686135 1.88830791,7.95780482 1.88830791,8.94874314 L1.84411254,22.4042797 L3.89118383,22.4042797 L3.89895445,16.7000747 C4.34382214,17.2433734 4.83446359,17.6508782 5.37124309,17.9225891 C5.90777974,18.1943 6.48717619,18.330217 7.10870394,18.330217 C8.46334062,18.330217 9.54940542,17.7279471 10.3676269,16.5229148 C11.1856055,15.3180057 11.5946555,13.7163027 11.5946555,11.7178058 C11.5946555,9.91776733 11.2379357,8.48497563 10.5247389,7.41955381 C9.81129938,6.3543782 8.85259985,5.82166728 7.64864024,5.82166728 C6.88287046,5.82166728 6.18752186,6.03095976 5.5628373,6.44966784 C4.93778848,6.86825279 4.38303945,7.49613023 3.89895445,8.33342326 L3.89895445,6.09694845 L4.85663413e-05,6.09694845 Z" id="Fill-13" fill="#FFFFFF" fill-rule="nonzero"></path>
                    <path d="M19.2353915,16.1578965 C18.4413319,16.7367748 17.7522969,17.026214 17.1685295,17.026214 C16.5507656,17.026214 16.0348697,16.7980852 15.6208416,16.3419507 C15.2066921,15.8859394 14.9996781,15.3119855 14.9996781,14.6204586 C14.9996781,13.6936622 15.3323575,12.9653243 15.9974736,12.4355681 C16.662711,11.9060582 17.5860786,11.6411185 18.7669692,11.6411185 L19.2353915,11.6411185 L19.2353915,16.1578965 Z M18.8179639,10.970767 C16.5983606,10.970767 15.0234756,11.3744553 14.0935515,12.1814624 C13.279094,12.8859163 12.8716225,13.8031098 12.8716225,14.933043 C12.8716225,15.9014516 13.1842682,16.7068584 13.8090742,17.3490168 C14.434123,17.9909293 15.2153127,18.3117623 16.1526431,18.3117623 C17.3210278,18.3117623 18.5031325,17.6763749 19.6987144,16.4051078 C19.9625511,17.6763749 20.5886927,18.3117623 21.5772605,18.3117623 C21.9572922,18.3117623 22.3884398,18.2201661 22.8704608,18.0368504 L22.8092672,17.2223334 C22.5852549,17.2893069 22.405438,17.3227937 22.2696951,17.3227937 C21.8895421,17.3227937 21.6231557,17.1286442 21.4702932,16.7398527 C21.317552,16.3511842 21.2411814,15.6800941 21.2411814,14.7268284 L21.2411814,9.40267391 C21.2411814,7.01920192 20.0397715,5.82758903 17.6369518,5.82758903 C16.4286212,5.82758903 15.1184228,6.16097964 13.7067207,6.82763774 L13.7067207,9.01462103 L15.0710706,9.01462103 L15.0811481,8.8056979 C15.1558188,8.03648648 15.3323575,7.52729018 15.6106426,7.27810902 C16.0857429,6.86789576 16.6321142,6.66278913 17.2498781,6.66278913 C18.5735538,6.66278913 19.2353915,7.60423595 19.2353915,9.48712958 L19.2353915,10.970767 L18.8179639,10.970767 Z" id="Fill-15" fill="#FFFFFF" fill-rule="nonzero"></path>
                    <path d="M23.6091913,6.76407438 L23.8038209,6.77515458 C24.6300557,6.84114326 24.9935748,6.94652818 25.192454,7.19952585 C25.5076496,7.60075185 25.5043713,7.94251416 25.5043713,8.9335756 L25.4475487,18.0412456 L27.5793682,18.0412456 L27.5088257,6.08128845 L23.6091913,6.08128845 L23.6091913,6.76407438 Z" id="Fill-17" fill="#FFFFFF" fill-rule="nonzero"></path>
                    <g id="Fill-19-Clipped">
                        <mask id="mask-2" fill="white">
                            <use xlink:href="#path-1"></use>
                        </mask>
                        <g id="path-1"></g>
                        <polygon id="Fill-19" fill="#FFFFFF" fill-rule="nonzero" mask="url(#mask-2)" points="25.5043713 3.91179955 27.5225457 3.91179955 27.5225457 1.74217521 25.5043713 1.74217521"></polygon>
                    </g>
                    <g id="Fill-21-Clipped">
                        <mask id="mask-4" fill="white">
                            <use xlink:href="#path-3"></use>
                        </mask>
                        <g id="path-1"></g>
                        <path d="M35.6645956,16.9817825 C35.2491105,17.3826391 34.7163378,17.5828212 34.0659131,17.5828212 C33.2639613,17.5828212 32.5278171,17.3848552 31.8875913,16.943248 C30.9178428,16.2743739 29.8825298,14.4670717 29.8825298,14.4670717 L29.8825298,16.2651404 C30.864177,17.6639528 32.4836217,18.2531727 33.8925313,18.2531727 C35.2291984,18.2531727 36.3148989,17.9178123 37.1495115,17.2467221 C37.984124,16.5758781 38.4014303,15.7086686 38.4014303,14.6455859 C38.4014303,13.8755127 38.1881027,13.2449268 37.7618117,12.7534588 C37.3283571,12.2696238 36.5658654,11.8003162 35.4750655,11.3456591 L34.477877,10.9275666 C33.4662401,10.5105821 32.7942034,10.1446896 32.4618882,9.83001222 C32.1222881,9.52284473 31.9525488,9.11312392 31.9525488,8.60109603 C31.9525488,7.97937425 32.1601699,7.46352985 32.5757763,7.05380904 C32.99114,6.64396512 33.5132281,6.43922784 34.1419194,6.43922784 C34.8065498,6.43922784 35.3738047,6.62599059 35.8434412,6.99963923 C36.0024959,7.1316166 36.1179624,7.33487653 36.1903263,7.60966524 C36.2624473,7.88433085 36.3203627,8.38072336 36.3635867,9.09871967 L36.3635867,9.29656263 L37.5668178,9.29656263 L37.5668178,6.45018491 C36.3383322,5.99602023 35.1497924,5.76875322 34.0009556,5.76875322 C32.8232218,5.76875322 31.8531091,6.0841693 31.0908604,6.71475523 C30.3284902,7.34546427 29.9474873,8.14483843 29.9474873,9.11263147 C29.9474873,9.9340429 30.2112025,10.6307406 30.7386331,11.2026015 C31.2660635,11.7819724 32.1186456,12.3026182 33.2965008,12.7644159 L34.3911861,13.1934655 C35.0991619,13.4729324 35.5941744,13.7743137 35.8759806,14.0978552 C36.1505018,14.4287835 36.2878232,14.8734685 36.2878232,15.4321563 C36.2878232,16.0645889 36.0802021,16.5809258 35.6645956,16.9817825" id="Fill-21" fill="#FFFFFF" fill-rule="nonzero" mask="url(#mask-4)"></path>
                    </g>
                    <g id="Fill-22-Clipped">
                        <mask id="mask-6" fill="white">
                            <use xlink:href="#path-5"></use>
                        </mask>
                        <g id="path-1"></g>
                        <path d="M46.3046189,16.1578965 C45.5104378,16.7367748 44.8214028,17.026214 44.2376354,17.026214 C43.6198716,17.026214 43.1039756,16.7980852 42.6899476,16.3419507 C42.2759195,15.8859394 42.0689055,15.3119855 42.0689055,14.6204586 C42.0689055,13.6936622 42.4014635,12.9653243 43.066701,12.4355681 C43.731817,11.9060582 44.6550632,11.6411185 45.8360751,11.6411185 L46.3046189,11.6411185 L46.3046189,16.1578965 Z M45.8870698,10.970767 C43.6674666,10.970767 42.092703,11.3744553 41.162779,12.1814624 C40.3480786,12.8859163 39.9408498,13.8031098 39.9408498,14.933043 C39.9408498,15.9014516 40.2533742,16.7068584 40.8781802,17.3490168 C41.503229,17.9909293 42.2844186,18.3117623 43.221749,18.3117623 C44.3902552,18.3117623 45.5723599,17.6763749 46.7679419,16.4051078 C47.0317785,17.6763749 47.65792,18.3117623 48.6463665,18.3117623 C49.0265196,18.3117623 49.4574244,18.2201661 49.9395667,18.0368504 L49.8783732,17.2223334 C49.6543609,17.2893069 49.474544,17.3227937 49.3388011,17.3227937 C48.9585266,17.3227937 48.6921402,17.1286442 48.5395206,16.7398527 C48.3867794,16.3511842 48.3104088,15.6800941 48.3104088,14.7268284 L48.3104088,9.40267391 C48.3104088,7.01920192 47.108999,5.82758903 44.7060578,5.82758903 C43.4977272,5.82758903 42.1875287,6.16097964 40.7758267,6.82763774 L40.7758267,9.01462103 L42.1401766,9.01462103 L42.1501327,8.8056979 C42.2250462,8.03648648 42.4014635,7.52729018 42.6798701,7.27810902 C43.1548489,6.86789576 43.7013416,6.66278913 44.3189841,6.66278913 C45.6426597,6.66278913 46.3046189,7.60423595 46.3046189,9.48712958 L46.3046189,10.970767 L45.8870698,10.970767 Z" id="Fill-22" fill="#FFFFFF" fill-rule="nonzero" mask="url(#mask-6)"></path>
                    </g>
                    <g id="Fill-23-Clipped">
                        <mask id="mask-8" fill="white">
                            <use xlink:href="#path-7"></use>
                        </mask>
                        <g id="path-1"></g>
                        <path d="M129.017833,23.2583654 C122.642287,23.2583654 117.473857,18.0519072 117.473857,11.6292135 C117.473857,5.20651975 122.642287,6.15566114e-05 129.017833,6.15566114e-05 C135.393379,6.15566114e-05 140.561809,5.20651975 140.561809,11.6292135 C140.561809,18.0519072 135.393379,23.2583654 129.017833,23.2583654 Z" id="Fill-23" fill="#0066FF" fill-rule="nonzero" mask="url(#mask-8)"></path>
                    </g>
                    <g id="Fill-24-Clipped">
                        <mask id="mask-10" fill="white">
                            <use xlink:href="#path-9"></use>
                        </mask>
                        <g id="path-1"></g>
                        <path d="M125.833496,13.8083421 C125.967904,14.2963629 125.947021,14.7371083 125.77036,15.1305782 C125.5937,15.5241711 125.292103,15.8200122 124.865447,16.0183476 C124.330975,16.2669132 123.82115,16.289443 123.336215,16.086183 C122.851159,15.8829231 122.459228,15.4507956 122.160181,14.7894314 C121.966887,14.3618592 121.867569,13.9552163 121.862226,13.5696256 C121.857006,13.1839119 121.960938,12.8444888 122.174023,12.5514793 C122.387229,12.2582236 122.661629,12.033665 122.997586,11.8774344 C123.421813,11.6803301 123.817871,11.6277607 124.185883,11.7198494 C124.553895,11.8120613 124.866419,12.0405594 125.123456,12.405467 L124.525362,12.8053387 C124.343845,12.5679764 124.144845,12.4182707 123.928482,12.3563448 C123.711997,12.2944188 123.49357,12.3148556 123.272957,12.4174089 C122.939428,12.5724085 122.723308,12.8194967 122.624596,13.1587968 C122.525764,13.4980968 122.594971,13.929978 122.832096,14.4545635 C123.072622,14.9865357 123.347992,15.3264513 123.658089,15.474064 C123.968063,15.6217999 124.284958,15.6203225 124.608654,15.4698782 C124.868483,15.3491042 125.048907,15.1675122 125.149925,14.9248559 C125.250943,14.682446 125.248879,14.3825422 125.143732,14.0252677 L125.833496,13.8083421 Z" id="Fill-24" fill="#FFFFFF" fill-rule="nonzero" mask="url(#mask-10)"></path>
                    </g>
                    <g id="Fill-25-Clipped">
                        <mask id="mask-12" fill="white">
                            <use xlink:href="#path-11"></use>
                        </mask>
                        <g id="path-1"></g>
                        <path d="M126.555496,12.7280729 C126.78485,13.2351763 127.065563,13.5642579 127.397879,13.7151947 C127.730194,13.8660084 128.061903,13.864531 128.392882,13.7106395 C128.721311,13.5579791 128.937311,13.3041197 129.040878,12.9490611 C129.144446,12.5940026 129.07876,12.1568275 128.843942,11.6371666 C128.622479,11.1474222 128.344923,10.8274509 128.011393,10.6771297 C127.677985,10.5268084 127.348099,10.527424 127.021976,10.6789764 C126.690996,10.8328679 126.473176,11.0861118 126.368516,11.438585 C126.263855,11.7911812 126.326141,12.2208464 126.555496,12.7280729 M125.875081,13.0443508 C125.543616,12.3110883 125.498935,11.6743468 125.741402,11.1343722 C125.944652,10.685009 126.287774,10.347925 126.770766,10.1233664 C127.307789,9.87369281 127.827205,9.84808528 128.329381,10.0464206 C128.831435,10.244756 129.224702,10.6584164 129.509058,11.2872788 C129.739505,11.7969676 129.845258,12.2329114 129.826681,12.5949875 C129.807984,12.9573097 129.69106,13.2861451 129.476032,13.5816168 C129.261005,13.8770886 128.983205,14.1041094 128.642392,14.262556 C128.095534,14.5166618 127.573324,14.5444854 127.07552,14.3456575 C126.577593,14.1468297 126.177528,13.7131018 125.875081,13.0443508" id="Fill-25" fill="#FFFFFF" fill-rule="nonzero" mask="url(#mask-12)"></path>
                    </g>
                    <g id="Fill-26-Clipped">
                        <mask id="mask-14" fill="white">
                            <use xlink:href="#path-13"></use>
                        </mask>
                        <g id="path-1"></g>
                        <path d="M131.205626,12.962579 L129.414985,9.00239589 L130.007129,8.72723783 L130.258339,9.2827247 C130.293185,9.03194306 130.385704,8.80012087 130.535896,8.58738122 C130.685966,8.37476468 130.890916,8.20794627 131.150867,8.08717219 C131.44008,7.95273255 131.704888,7.90336415 131.945048,7.93906699 C132.185209,7.97489293 132.392708,8.0844637 132.567669,8.2679024 C132.667594,7.661816 132.965063,7.2437235 133.460318,7.01350177 C133.847635,6.83338713 134.194762,6.80371684 134.50158,6.9243678 C134.808276,7.04501876 135.063979,7.33150323 135.268565,7.78406743 L136.497657,10.5024074 L135.83934,10.8084669 L134.711387,8.31370052 C134.589971,8.04519058 134.481182,7.86187499 134.384899,7.76375376 C134.288617,7.66563252 134.167686,7.6067844 134.022352,7.58708628 C133.876896,7.56738817 133.728282,7.5928726 133.57627,7.66353959 C133.301628,7.791208 133.115497,7.98991275 133.017878,8.25940759 C132.920139,8.52902555 132.963485,8.86758691 133.147793,9.27521479 L134.188207,11.5760779 L133.526246,11.8838609 L132.36284,9.31079452 C132.227825,9.01249118 132.072778,8.81378643 131.897453,8.7148034 C131.722129,8.61582037 131.511837,8.62320716 131.266819,8.73721001 C131.080446,8.82388171 130.930619,8.95364306 130.817459,9.12661713 C130.704299,9.29959121 130.65549,9.49829595 130.67091,9.72273137 C130.68633,9.94728983 130.775571,10.2398069 130.938511,10.6001593 L131.867585,12.654919 L131.205626,12.962579 Z" id="Fill-26" fill="#FFFFFF" fill-rule="nonzero" mask="url(#mask-14)"></path>
                    </g>
                </g>
            </g>
        </g>
    </g>
</svg>