<?xml version="1.0" encoding="UTF-8"?>
<svg width="30px" height="44px" viewBox="0 0 30 44" version="1.1" xmlns="http://www.w3.org/2000/svg" xmlns:xlink="http://www.w3.org/1999/xlink">
    <!-- Generator: sketchtool 59.1 (101010) - https://sketch.com -->
    <title>F06750BF-192B-44B5-87C5-05F054A29AF5</title>
    <desc>Created with sketchtool.</desc>
    <g id="Page-1" stroke="none" stroke-width="1" fill="none" fill-rule="evenodd">
        <g id="Desktop-x-1680---Signed-Out" transform="translate(-757.000000, -1621.000000)" fill="#D90368" fill-rule="nonzero">
            <g id="Benefits" transform="translate(270.000000, 1349.000000)">
                <g id="Row-2" transform="translate(487.000000, 272.000000)">
                    <g id="3">
                        <g id="Secure">
                            <path d="M15.8,25.8 C15.8,25.8 15.8,25.8 15.8,25.8 C15.5,26 15.2,26.2 15,26.5 C14.8,26.2 14.5,26 14.2,25.8 C12.5,24.7 10.3,24.8 8.7,26 C7.7,26.8 7.1,28 7,29.3 C6.9,30.6 7.4,31.9 8.3,32.7 L13.7,38.4 C14,38.7 14.5,38.9 15,38.9 C15.5,38.9 15.9,38.7 16.3,38.4 L21.7,32.7 C22.6,31.8 23.1,30.5 23,29.2 C22.9,27.9 22.3,26.7 21.3,25.9 C19.7,24.8 17.5,24.7 15.8,25.8 Z M20.2,31.4 L15,36.9 L9.8,31.4 C9.3,30.9 9,30.2 9,29.5 C9,28.8 9.4,28.1 10,27.6 C10.5,27.2 11.1,27 11.6,27 C12.1,27 12.6,27.1 13.1,27.4 C13.6,27.7 13.9,28.2 14.1,28.7 C14.2,29.1 14.6,29.4 15,29.4 C15.4,29.4 15.8,29.1 15.9,28.7 C16.1,28.2 16.4,27.7 16.9,27.4 C17.8,26.8 19.1,26.8 20,27.5 C20.6,28 20.9,28.6 21,29.4 C21,30.2 20.8,30.9 20.2,31.4 Z" id="Shape"></path>
                            <path d="M27,20 L27,12 C27,5.4 21.6,0 15,0 C8.4,0 3,5.4 3,12 L3,20 C1.3,20 0,21.3 0,23 L0,41 C0,42.7 1.3,44 3,44 L27,44 C28.7,44 30,42.7 30,41 L30,23 C30,21.3 28.7,20 27,20 Z M27,42 L3,42 C2.4,42 2,41.6 2,41 L2,40 L4,40 C4.6,40 5,39.6 5,39 C5,38.4 4.6,38 4,38 L2,38 L2,26 L4,26 C4.6,26 5,25.6 5,25 C5,24.4 4.6,24 4,24 L2,24 L2,23 C2,22.4 2.4,22 3,22 L22,22 C22.6,22 23,21.6 23,21 L23,12 C23,7.6 19.4,4 15,4 C10.6,4 7,7.6 7,12 L7,17 C7,17.6 7.4,18 8,18 C8.6,18 9,17.6 9,17 L9,12 C9,8.7 11.7,6 15,6 C18.3,6 21,8.7 21,12 L21,20 L5,20 L5,12 C5,6.5 9.5,2 15,2 C20.5,2 25,6.5 25,12 L25,21 C25,21.6 25.4,22 26,22 L27,22 C27.6,22 28,22.4 28,23 L28,24 L26,24 C25.4,24 25,24.4 25,25 C25,25.6 25.4,26 26,26 L28,26 L28,38 L26,38 C25.4,38 25,38.4 25,39 C25,39.6 25.4,40 26,40 L28,40 L28,41 C28,41.6 27.6,42 27,42 Z" id="Shape"></path>
                        </g>
                    </g>
                </g>
            </g>
        </g>
    </g>
</svg>