<?xml version="1.0" encoding="UTF-8"?>
<svg width="465px" height="300px" viewBox="0 0 465 300" version="1.1" xmlns="http://www.w3.org/2000/svg" xmlns:xlink="http://www.w3.org/1999/xlink">
    <!-- Generator: sketchtool 53 (72520) - https://sketchapp.com -->
    <title>0E83C560-5165-42CC-A50A-EFBBD3D980E2</title>
    <desc>Created with sketchtool.</desc>
    <defs>
        <polygon id="path-1" points="0 0.0703214156 17.8126416 0.0703214156 17.8126416 42.8571001 0 42.8571001"></polygon>
        <polygon id="path-3" points="0.310958341 0.263799883 15.1924041 0.263799883 15.1924041 15.131756 0.310958341 15.131756"></polygon>
    </defs>
    <g id="Page-1" stroke="none" stroke-width="1" fill="none" fill-rule="evenodd">
        <g id="brand-guidelines-page-03-part1" transform="translate(-108.000000, -13418.000000)">
            <g id="primary-logo-usage" transform="translate(108.000000, 12224.000000)">
                <g id="teamwork-logo-usage-inverse-logo-correct" transform="translate(0.000000, 1194.000000)">
                    <polygon id="Rectangle-Copy-11" fill="#1D1C39" points="0 0 465 0 465 300 0 300"></polygon>
                    <g id="Group-6" transform="translate(396.000000, 21.000000)">
                        <rect id="Rectangle" x="0" y="0" width="45" height="45"></rect>
                        <path d="M30.4881013,15.0002403 C29.9591013,14.9922403 29.4461013,15.1842403 29.0531013,15.5392403 C23.9291013,19.7962403 24.6091013,20.7032403 19.6871013,25.1472403 C19.0221013,24.4222403 18.3681013,23.6872403 17.7741013,22.8972403 C17.4111013,22.3782403 17.1061013,21.8212403 16.8631013,21.2362403 C15.9471013,18.9162403 11.9351013,20.6472403 13.2691013,23.1492403 C13.9081013,24.7142403 17.7441013,29.9432403 19.4451013,29.9892403 C22.4651013,30.0742403 25.9881013,23.3552403 31.8011013,18.5282403 C32.6191013,17.7512403 32.6531013,16.4582403 31.8751013,15.6392403 C31.5081013,15.2532403 31.0051013,15.0252403 30.4731013,15.0052403 L30.4881013,15.0002403 Z" id="Fill-4" fill="#79E3AA"></path>
                    </g>
                    <g id="02-Logo/Horizontal/teamwork-horizontal-white-Copy-4" transform="translate(73.000000, 121.000000)">
                        <g id="Group-21">
                            <g id="Group-3" transform="translate(0.000000, 0.351817)">
                                <mask id="mask-2" fill="white">
                                    <use xlink:href="#path-1"></use>
                                </mask>
                                <g id="Clip-2"></g>
                                <path d="M13.952904,16.0408072 C16.4061553,16.0408072 17.8126413,14.7049944 17.8126413,12.3755187 C17.8126413,10.1830709 16.3001325,8.71065053 14.0488294,8.71065053 L8.48347029,8.71065053 L8.48347029,4.59350597 C8.48347029,1.62386571 6.34954971,0.0703214156 4.24171411,0.0703214156 C2.13387851,0.0703214156 -4.20725685e-05,1.62386571 -4.20725685e-05,4.59350597 L-4.20725685e-05,32.9894037 C-4.20725685e-05,39.8139018 2.72247372,42.8571001 8.82678244,42.8571001 C12.1349484,42.8571001 14.0261102,42.0080309 15.431334,41.18208 C16.5062881,40.5852097 16.8891484,39.3187516 16.8891484,38.3330748 C16.8891484,36.5071559 15.6669403,34.473173 13.912935,34.473173 C13.6697556,34.473173 13.4244725,34.5139451 13.1598361,34.602635 C13.0672764,34.6400445 12.9641987,34.6867013 12.850182,34.7392427 C12.3886459,34.9510896 11.756716,35.2411182 10.8323817,35.2411182 C9.73849496,35.2411182 8.48347029,34.8548338 8.48347029,31.8444214 L8.48347029,16.0408072 L13.952904,16.0408072 Z" id="Fill-1" fill="#FFFFFF" mask="url(#mask-2)"></path>
                            </g>
                            <path d="M33.5690276,15.2436908 C34.6431403,14.8532031 35.7105213,14.6552271 36.7421407,14.6552271 C40.2724499,14.6552271 42.7391645,16.9330019 43.9613726,19.2032108 L28.1551296,24.9503996 C27.4331643,21.5368898 28.4260769,17.1137444 33.5690276,15.2436908 M50.546149,31.0077934 C49.7068013,31.0077934 48.8754474,31.3146352 48.1417018,31.895533 L48.0222157,32.0014565 C46.5412614,33.3208763 44.8390054,34.3195833 42.8195222,35.0543223 C41.3103792,35.6028546 39.83237,35.8811138 38.4263048,35.8811138 C34.7609428,35.8811138 31.6787066,33.9240516 30.0988818,30.6219294 L49.6003577,23.5313617 C52.6712343,22.4141213 53.0835454,20.1447529 52.4453046,18.3932326 C50.0648388,11.8596038 44.4557243,7.80088539 37.8078381,7.80088539 C35.6398387,7.80088539 33.3860114,8.2207963 31.1090441,9.04884884 C26.109561,10.8667815 22.548539,14.1453651 20.8101006,18.5298403 C19.2353244,22.5028111 19.272769,27.1752132 20.9161234,31.6862081 C23.5751096,38.98526 29.2313454,43.1713388 36.4345895,43.1713388 C37.7973199,43.1713388 39.2252628,43.0191789 40.6776078,42.7182218 C41.993217,42.4458471 43.2158457,42.1015958 44.4149139,41.665292 C47.6776414,40.4799579 50.648806,38.7671081 53.0082356,36.7133697 L53.0292718,36.6952954 L53.0477838,36.6742789 C53.8299128,35.7869596 54.1412498,34.7315079 53.9249968,33.7016964 C53.6031416,32.165806 52.1507967,31.0077934 50.546149,31.0077934" id="Fill-4" fill="#FFFFFF"></path>
                            <path d="M83.2727989,25.6109506 C83.2727989,30.5792658 80.449309,35.5929769 74.1409484,35.5929769 C68.7358858,35.5929769 65.1041819,31.6195857 65.1041819,25.7059454 C65.1041819,19.6788158 68.7745925,15.6293447 74.2364531,15.6293447 C78.7344312,15.6293447 83.2727989,18.7158369 83.2727989,25.6109506 M87.7051446,8.01294274 C85.1917295,8.01294274 83.3674629,9.79514725 83.3674629,12.2503021 L83.3674629,12.3852284 C80.8704561,9.55597877 77.1672287,8.01294274 72.803462,8.01294274 C62.9534325,8.01294274 56.3349969,15.0850161 56.3349969,25.6109513 C56.3349969,36.1368865 62.8381537,43.2089598 72.5169478,43.2089598 C77.2614712,43.2089598 81.1279402,41.4881237 83.5588931,38.3305953 L83.5588931,38.9720208 C83.5588931,42.0959227 85.7008075,43.2089598 87.7051446,43.2089598 C90.2038344,43.2089598 91.7558914,41.5856405 91.7558914,38.9720208 L91.7558914,12.2503021 C91.7558914,9.67619351 90.1659691,8.01294274 87.7051446,8.01294274" id="Fill-6" fill="#FFFFFF"></path>
                            <path d="M136.45328,8.0126905 C131.471047,8.0126905 127.618883,10.2156466 125.738239,14.0961446 C123.676263,10.1109841 119.969249,8.0126905 114.960089,8.0126905 C111.231618,8.0126905 107.895685,9.48889383 105.922902,11.9385843 C105.862738,9.65618567 104.098215,8.0126905 101.682408,8.0126905 C99.5236646,8.0126905 97.3455679,9.38212969 97.3455679,12.4408802 L97.3455679,38.971768 C97.3455679,41.7047618 98.8517658,43.2095477 101.586903,43.2095477 C104.303108,43.2095477 105.924585,41.6253192 105.924585,38.971768 L105.924585,23.1290631 C105.924585,17.8993017 108.257088,15.2470116 112.857723,15.2470116 C117.377158,15.2470116 119.220778,17.7521858 119.220778,23.8936456 L119.220778,38.8759325 C119.220778,41.670715 120.726976,43.2095477 123.461693,43.2095477 C126.217866,43.2095477 127.798533,41.6299428 127.798533,38.8759325 L127.798533,24.0836353 C127.798533,18.1376295 130.09864,15.2470116 134.830541,15.2470116 C139.288971,15.2470116 141.191493,17.8896341 141.191493,24.0836353 L141.191493,38.8759325 C141.191493,41.670715 142.697691,43.2095477 145.432407,43.2095477 C148.189002,43.2095477 149.769248,41.6299428 149.769248,38.8759325 L149.769248,24.0836353 C149.769248,13.4198316 145.289361,8.0126905 136.45328,8.0126905" id="Fill-8" fill="#FFFFFF"></path>
                            <path d="M201.537148,8.01306887 C199.652718,8.01306887 198.074997,9.36905743 197.321056,11.6325411 L190.076581,32.0770321 L182.925927,11.7304783 C182.149688,9.49893979 181.168135,8.01306887 178.899162,8.01306887 C176.475361,8.01306887 175.579636,9.32113967 174.777312,11.7292173 L167.624976,32.0770321 L160.384707,11.6405274 C159.627401,9.36905743 158.050521,8.01306887 156.165249,8.01306887 C154.361598,8.01306887 152.496101,9.49095349 152.496101,11.9637622 C152.496101,12.7560865 152.677013,13.5450483 153.099421,14.5988187 L162.843849,39.4164358 C163.775756,41.6929498 164.945374,43.2095049 167.626658,43.2095049 C170.56122,43.2095049 171.676985,41.1738407 172.321116,39.4021446 L178.894113,21.5023389 L185.281991,39.3903753 C186.127229,41.9245523 187.73987,43.2095049 190.074898,43.2095049 C192.304323,43.2095049 193.946415,41.9325386 194.957419,39.4092902 L204.596245,14.5202167 C205.013184,13.5837187 205.207559,12.7712185 205.207559,11.9637622 C205.207559,9.71162739 203.629838,8.01306887 201.537148,8.01306887" id="Fill-10" fill="#FFFFFF"></path>
                            <path d="M223.351219,36.4509139 C217.718123,36.4509139 214.218948,32.2972007 214.218948,25.6105716 C214.218948,19.141674 217.803531,14.96148 223.351219,14.96148 C228.898908,14.96148 232.48307,19.141674 232.48307,25.6105716 C232.48307,32.1959009 228.898908,36.4509139 223.351219,36.4509139 M223.35122,8.10839953 C217.787123,8.10839953 213.178915,9.93347772 210.024734,13.3864988 C207.197878,16.4818179 205.640773,20.8229988 205.640773,25.6105715 C205.640773,30.4052898 207.197458,34.763284 210.023893,37.881301 C213.183122,41.3666875 217.791751,43.2089993 223.35122,43.2089993 C236.422326,43.2089993 241.060826,33.7288488 241.060826,25.6105715 C241.060826,17.536429 236.422326,8.10839953 223.35122,8.10839953" id="Fill-12" fill="#FFFFFF"></path>
                            <path d="M261.781861,8.0126905 C258.437092,8.0126905 255.374209,9.41827818 253.209996,11.9083205 C253.034975,9.73100463 251.205659,8.0126905 248.982545,8.0126905 C246.603762,8.0126905 244.740368,9.87433758 244.740368,12.2504701 L244.740368,38.971768 C244.740368,41.7539406 246.874288,43.2095477 248.982545,43.2095477 C251.08996,43.2095477 253.22346,41.7539406 253.22346,38.971768 L253.22346,26.2786051 C253.22346,18.6134445 255.325826,15.3424268 260.253365,15.3424268 C261.040543,15.3424268 261.494926,15.4475096 261.934164,15.5496501 C262.323335,15.6400213 262.690629,15.7249282 263.215274,15.7249282 C265.237702,15.7249282 266.596225,14.213417 266.596225,11.9638042 C266.596225,9.56329246 264.706325,8.0126905 261.781861,8.0126905" id="Fill-14" fill="#FFFFFF"></path>
                            <path d="M286.156443,25.7004389 L295.422926,16.0727519 C296.711609,14.7844367 297.928347,13.5671574 297.928347,11.8685989 C297.928347,9.67068684 296.269005,8.01248011 294.069031,8.01248011 C292.345318,8.01248011 291.122689,9.33442185 289.940029,10.6126491 L278.728531,22.1868901 L278.728531,4.65781652 C278.728531,2.32119518 276.82601,0.42045733 274.488037,0.42045733 C272.148382,0.42045733 270.245019,2.32119518 270.245019,4.65781652 L270.245019,38.971557 C270.245019,41.3081783 272.148382,43.2089162 274.488037,43.2089162 C276.82601,43.2089162 278.728531,41.3081783 278.728531,38.971557 L278.728531,28.5633149 L289.949706,40.2224627 C290.147447,40.4204387 290.341401,40.6226181 290.534094,40.8231161 C291.659535,41.9962605 292.823683,43.2089162 294.547396,43.2089162 C296.587495,43.2089162 298.311208,41.4872394 298.311208,39.4486329 C298.311208,37.967806 297.306094,36.8396369 296.276999,35.8115067 L286.156443,25.7004389 Z" id="Fill-16" fill="#FFFFFF"></path>
                            <g id="Group-20" transform="translate(302.922486, 28.093680)">
                                <mask id="mask-4" fill="white">
                                    <use xlink:href="#path-3"></use>
                                </mask>
                                <g id="Clip-19"></g>
                                <path d="M7.75149173,0.263799883 C3.64899577,0.263799883 0.310958341,3.59870784 0.310958341,7.69777796 C0.310958341,11.7964278 3.64899577,15.131756 7.75149173,15.131756 C11.8544084,15.131756 15.1924459,11.7964278 15.1924459,7.69777796 C15.1924459,3.59870784 11.8544084,0.263799883 7.75149173,0.263799883" id="Fill-18" fill="#FF22B1" mask="url(#mask-4)"></path>
                            </g>
                        </g>
                    </g>
                </g>
            </g>
        </g>
    </g>
</svg>