<?xml version="1.0" encoding="UTF-8"?>
<svg width="34px" height="44px" viewBox="0 0 34 44" version="1.1" xmlns="http://www.w3.org/2000/svg" xmlns:xlink="http://www.w3.org/1999/xlink">
    <!-- Generator: sketchtool 59.1 (101010) - https://sketch.com -->
    <title>67400E76-DB87-479B-BCD2-6EFF0A0F44C1</title>
    <desc>Created with sketchtool.</desc>
    <g id="Page-1" stroke="none" stroke-width="1" fill="none" fill-rule="evenodd">
        <g id="Desktop-x-1680---Signed-Out" transform="translate(-1147.000000, -1349.000000)" fill="#D90368" fill-rule="nonzero">
            <g id="Benefits" transform="translate(270.000000, 1349.000000)">
                <g id="Row-1" transform="translate(487.000000, 0.000000)">
                    <g id="2" transform="translate(390.000000, 0.000000)">
                        <g id="trustworthy">
                            <path d="M33,6 C33.553,6 34,5.552 34,5 L34,3 C34,1.346 32.654,0 31,0 L3,0 C1.346,0 0,1.346 0,3 L0,30.941 C0,32.552 0.782,34.073 2.094,35.01 L12.791,42.651 C14.025,43.534 15.481,44 17,44 C18.519,44 19.975,43.534 21.209,42.651 L31.906,35.01 C33.218,34.074 34,32.553 34,30.941 L34,9 C34,8.448 33.553,8 33,8 L29,8 C28.447,8 28,8.448 28,9 L28,29.981 C28,30.3 27.846,30.603 27.589,30.79 L18.22,37.602 C17.513,38.119 16.491,38.118 15.78,37.602 L6.413,30.79 C6.154,30.603 6,30.3 6,29.981 L6,6 L29,6 C29.553,6 30,5.552 30,5 C30,4.448 29.553,4 29,4 L5,4 C4.447,4 4,4.448 4,5 L4,29.981 C4,30.937 4.461,31.844 5.235,32.407 L14.602,39.219 C15.304,39.73 16.133,40 17,40 C17.867,40 18.696,39.73 19.396,39.22 L28.765,32.407 C29.539,31.844 30,30.937 30,29.981 L30,10 L32,10 L32,30.941 C32,31.908 31.53,32.82 30.744,33.382 L20.047,41.024 C18.258,42.301 15.742,42.302 13.953,41.024 L3.256,33.382 C2.47,32.821 2,31.908 2,30.941 L2,3 C2,2.449 2.448,2 3,2 L31,2 C31.552,2 32,2.449 32,3 L32,5 C32,5.552 32.447,6 33,6 Z" id="Path"></path>
                            <path d="M15.7495949,27 C15.4185021,26.9986038 15.1014788,26.8659594 14.8680593,26.63116 L9.86643883,21.6299449 C9.37785372,21.1413994 9.37785372,20.3493106 9.86643884,19.8607651 C10.355024,19.3722196 11.1471769,19.3722196 11.6357621,19.8607651 L15.7495949,23.980516 L22.364238,17.3664091 C22.8528231,16.8778636 23.6449761,16.8778636 24.1335612,17.3664091 C24.6221463,17.8549546 24.6221463,18.6470434 24.1335612,19.1355889 L16.6311305,26.6374115 C16.3966902,26.8699186 16.0797925,27.0002631 15.7495949,27 L15.7495949,27 Z" id="Path"></path>
                        </g>
                    </g>
                </g>
            </g>
        </g>
    </g>
</svg>