<svg width="418" height="303" xmlns="http://www.w3.org/2000/svg">
  <g fill-rule="nonzero" fill="none">
    <path fill="#222747" d="M231.1715 215.9234v56.1913h67.742l2.0053-51.196z"/>
    <path d="M309.562 83.798l12.0627 65.6294 41.6247 3.0201s2.112 5.6047 1.056 10.1755l-1.056 4.5708s-46.0053.819-53.4785-1.6262c-7.4732-2.4451-7.4383-61.953-7.3049-68.4927.1335-6.5397 7.096-13.2769 7.096-13.2769zM242.0813 80.7606l-32.2687 26.8578-59.0936-10.7536s-3.8769 7.7119-4.167 10.5791l-.2903 2.873s58.281 17.8781 65.8491 17.5175c7.568-.3605 35.7394-23.4264 35.7394-23.4264l-5.769-23.6474z" fill="#303D72"/>
    <path d="M286.2046 73.1672l23.8116 10.1325-1.5468 140.6147s-45.7542 8.986-63.8004 4.3474l-18.0463-4.6559 12.8316-139.9163c.2149-2.2917 1.8566-4.202 4.1014-4.7723l21.257-5.4707 21.3919-.2794z" fill="#303D72"/>
    <path d="M310.0162 106.5783l-1.2744 118.83s-35.8877 7.163-56.3429 5.4322l57.6173-124.2622z" fill="#26335E"/>
    <path fill="#E68D5C" d="M199.441 136.8573l3.042 33.1368 25.656 47.9354-8.1273 4.0687-34.6557-48.6968-1.1881-37.8682z"/>
    <path d="M132.3638 242.4068s-1.2645 11.804-1.2645 17.3558c0 5.5517 2.4313 13.8708 2.4313 13.8708h41.5398l-3.0119-34.9297-39.6947 3.703z" fill="#303D72"/>
    <path d="M200.8466 136.0546s-3.539-22.292-10.1911-28.5154c-4.7718-4.4757-9.4242-4.3488-12.6735-3.599-3.2494.7498-6.2487 12.0833-3.0846 27.3676 2.1757 10.5953 2.4597 11.7084 2.4597 11.7084s17.1215.5826 23.4895-6.9616z" fill="#0CBFD1"/>
    <path d="M155.3403 95.9475l-27.2735 12.2682 5.0098 135.044h66.2537l-5.969-132.5379c-.1198-2.5937-1.548-4.9448-3.7847-6.2303l-14.4457-8.2701-19.7906-.274z" fill="#60D6E6"/>
    <path d="M297.4177 167.3256l-5.8724 57.9589-62.8346 26.5472s-4.698 5.501 0 12.6896l70.6918-20.474-1.9848-76.7217z" fill="#E2E2E2"/>
    <path d="M337.1962 153.4l21.2674 8.2478c3.7963 1.4613 6.2573 5.1805 6.133 9.2685l-3.2822 104.2358h-66.4606l1.6207-106.9929c.073-5.0693 3.3053-9.5452 8.0744-11.1809l14.12-4.8395 18.5273 1.2612z" fill="#F0F1F4"/>
    <path fill="#303D72" d="M69.2244 91.3914h-1v185.2793h1zM60.1269 109.6156h-1v162.4991h1zM63.1594 143.0266h-1v135.1628h1zM78.3219 171.8816h-1v104.7891h1zM55.5782 202.2553h-1v74.4155h1z"/>
    <path d="M81.381 130.4992c-9.7967-4.9957-20.8382-2.7483-24.7339 5.0247-3.8956 7.773.8644 18.0963 10.6093 23.1152 9.745 5.019 30.4852 23.6859 34.3808 15.942 3.8957-7.744-10.494-39.0863-20.2562-44.082zM94.0648 229.1234c-8.4971-9.2447-23.0895-9.5338-32.5975-.6312-9.5081 8.9026-10.3146 23.5986-1.8175 32.8552 8.497 9.2566 21.4356 39.2977 30.9378 30.401 9.5023-8.8967 11.9743-53.3743 3.4772-62.625z" fill="#303D72"/>
    <path d="M100.4919 174.081c-11.4601-7.7972-25.7083-6.77-31.8188 2.2994-6.1106 9.0694-1.7832 22.761 9.671 30.5406 11.4544 7.7796 34.4676 34.4334 40.5839 25.3699 6.1163-9.0636-6.9818-50.4129-18.4361-58.21z" fill="#00C99C"/>
    <path d="M101.6812 174.1348c10.9579 7.427 23.3918 44.9044 19.6368 56.9755-10.1136-30.6-16.6848-39.6519-27.1586-50.7716a51.0605 51.0605 0 00-14.6125-10.789c6.7247-1.743 14.9668-.2717 22.1343 4.585z" fill="#00B98F"/>
    <path d="M34.9153 137.0311c13.249-4.3956 26.7672.5908 30.1907 11.1191 3.4234 10.5283-4.5295 22.64-17.7785 27.0297-13.249 4.3897-42.8722 23.8984-46.2956 13.3642-3.4235-10.5342 20.6402-47.1233 33.8834-51.513z" fill="#00C99C"/>
    <path d="M34.637 138.518C22.274 142.5839.392 174.668.7054 187.0686c17.8131-26.189 26.4672-32.973 39.37-40.6571a50.1564 50.1564 0 0116.7277-6.267c-5.9144-3.4443-14.081-4.2806-22.1663-1.6263z" fill="#00B98F"/>
    <path fill="#E2E2E2" d="M363.0848 195.6218l-2.4856 79.5303h-65.7454l.6228-19.4313 54.4073-30.1576-4.9252-40.0134z"/>
    <path d="M50.309 96.875c8.4423 3.651 13.0162 12.1479 10.2233 18.98-2.793 6.832-11.9002 9.4245-20.3368 5.7736-8.4365-3.6509-31.4389-6.9094-28.646-13.7474 2.793-6.838 30.323-14.6511 38.7595-11.0062z" fill="#00C99C"/>
    <path d="M68.6904 76.8112c-5.396 3.6458-7.4018 9.994-4.479 14.1755 2.923 4.1817 9.6562 4.6126 15.0463.9668 5.3902-3.6458 21.0281-9.1203 18.1289-13.2961-2.8992-4.1758-23.306-5.4862-28.6962-1.8462z" fill="#303D72"/>
    <path d="M50.9499 96.9146c-7.961-3.5766-32.8703 3.4279-38.1178 10.203 20.294-5.7338 27.6056-5.337 37.4104-3.4465 3.9195.7587 7.6814 2.2573 11.1095 4.4258-1.4554-4.587-5.1953-8.8392-10.4021-11.1823z" fill="#00B98F"/>
    <path fill="#A1C180" d="M417.6696 269.0773H14.3483v6.0747h403.3213z"/>
    <path d="M98.09 244.2425c-12.0328-6.8372-26.171-4.7433-31.5913 4.6854-5.4204 9.4287-.0582 22.6115 11.9689 29.4488 12.027 6.8372 37.0233 31.4212 42.4553 21.981 5.432-9.4403-10.8058-49.2722-22.8328-56.1152z" fill="#00C99C"/>
    <path d="M98.3636 244.3131c11.198 6.555 26.0556 42.8818 23.305 55.138-12.084-29.6422-19.1504-38.1467-30.1526-48.4004-4.3997-4.1008-9.4801-7.3639-15.0016-9.6352 6.4104-2.2204 14.524-1.39 21.8492 2.8976z" fill="#00B98F"/>
    <path d="M24.6508 207.0403c15.265-10.4375 35.5099-10.4375 45.2198.0464 9.7098 10.484 5.2297 27.4391-10.0586 37.8883-15.2882 10.4491-44.6212 44.7596-54.331 34.2873-9.7099-10.4723 3.9048-61.7729 19.1698-72.222z" fill="#00C99C"/>
    <path d="M24.823 207.1586c-14.4766 10.0102-27.4773 56.6928-20.8071 71.0309 10.5412-38.1093 18.7047-49.6975 32.0744-64.1297 5.5099-5.8968 12.0076-10.7739 19.1967-14.4088-9.6276-1.525-20.971.9775-30.464 7.5076z" fill="#00B98F"/>
    <path d="M307.94 252.3718s-11.5232 3.289-17.4289 5.1481c-5.9056 1.859-9.5758 4.7877-9.2877 5.7887.288 1.001.7202 1.2127.7202 1.2127h24.0548l10.0828-5.7544-8.1412-6.395z" fill="#FBAD83"/>
    <path d="M363.1528 165.8069s22.144 54.8993 17.4821 71.9707c-4.6619 17.0715-72.4577 26.7437-72.4577 26.7437s-1.9754-4.9797-2.331-8.7876l-.3787-3.808 59.2354-20.5162s-19.044-38.5836-20.087-50.9683c-1.0431-12.3847 18.5369-14.6343 18.5369-14.6343z" fill="#F0F1F4"/>
    <path d="M264.5289 264.5213h-90.4154c-1.9837 0-3.5918-1.6366-3.5918-3.6554v-64.0673c0-2.0188 1.608-3.6554 3.5918-3.6554h90.4154v71.3781z" fill="#A9C2DC"/>
    <path d="M266.0451 264.5213h-1.4204c-1.7264-.0032-3.1252-1.464-3.1283-3.267v-64.8442c.003-1.8029 1.4019-3.2637 3.1283-3.2669h1.4204v71.3781z" fill="#19192B"/>
    <path d="M222.074 229.5916c0 4.2119-2.3773 7.5934-5.3097 7.5934-2.9323 0-5.304-3.3996-5.304-7.5934 0-4.1938 2.3773-7.5934 5.304-7.5934 2.9268 0 5.3097 3.3996 5.3097 7.5934z" fill="#FFF"/>
    <path fill="#19192B" d="M317.5975 264.5213h-51.5523v4.556h51.5523z"/>
    <path fill="#303D72" d="M266.045 264.5213h-92.491v4.556h92.491z"/>
    <path fill="#0CBFD1" d="M132.387 244.7784l-4.3202-115.8518 11.2557-2.6055 26.6504 118.4573z"/>
    <path d="M337.3087 153.4431s-4.8641 9.4763-12.3216 9.3246c-7.4575-.1516-5.6908-10.629-5.6908-10.629l18.0124 1.3044z" fill="#FFF"/>
    <path d="M305.1154 106.5783s-3.8344 31.53-2.331 37.6941c1.5035 6.164 16.8992 4.91 24.5388 4.2829 7.6396-.627 11.707.42 15.0519-1.473 3.3448-1.893-2.7855-21.6156-2.7855-21.6156l-34.4742-18.8884z" fill="#29281F"/>
    <path d="M312.9578 149.099c4.5794.1064 8.5042-3.2903 9.109-7.8834.6048-4.593-2.3042-8.9105-6.7514-10.0204-.1487-.0399-.3014.0487-.3424.1987-.0397.1518.0475.308.1965.352 4.2765 1.1816 6.9149 5.5152 6.0334 9.9102s-4.9808 7.3457-9.3744 6.7479c-4.3936-.5979-7.5764-4.5396-7.2784-9.014.298-4.4743 3.9746-7.9486 8.4077-7.945.155 0 .2807-.127.2807-.2839-.003-.1555-.1269-.2809-.2807-.284-4.9742 0-9.0065 4.0792-9.0065 9.111 0 5.0318 4.0323 9.1109 9.0065 9.1109z" fill="#FFF"/>
    <path d="M317.5975 139.4036l1.4481 12.8132s1.724 2.9565 10.7349 2.9565c2.6026.0486 5.1804-.5285 7.5282-1.6852v-22.611l-19.7112 8.5265z" fill="#FBAD83"/>
    <path d="M317.5975 140.1987l1.006 8.8539a16.3236 16.3236 0 004.9775-.38c2.1516-.5048 8.298-6.9893 12.2114-16.2767l-18.195 7.8028z" fill="#E68D5C"/>
    <path d="M306.2045 99.4708s-2.125 21.4196.8418 31.7904c2.967 10.3707 12.1927 14.7396 20.3734 12.8588 3.0308-.7075 14.0042-13.2362 15.3919-28.7127 1.3876-15.4766.0638-20.1402-2.4153-23.4124-2.4792-3.2722-25.0067-7.3462-29.1-3.7674-4.0932 3.5787-5.0918 11.2433-5.0918 11.2433z" fill="#FBAD83"/>
    <path d="M313.0487 99.3648s-7.0837 9.9513-8.871 10.2416c-1.7874.2902-1.984-6.3203-1.5431-12.2674.7208-9.3946 7.2863-13.541 7.2863-13.541l3.1278 15.5668z" fill="#29281F"/>
    <path d="M305.4675 91.797s2.0791 11.3656 6.4423 18.163c4.3632 6.7974 20.7443 4.3188 23.6726 4.522 2.9283.2031-.4158 23.0623-2.495 30.684-2.079 7.6216 12.8847 5.352 17.6637 4.3245 4.779-1.0274 7.274-41.179 1.0367-56.73-6.2374-15.551-31.995-14.9473-39.058-11.5399-4.1417 1.9996-6.905 6.024-7.2623 10.5763z" fill="#312F24"/>
    <path d="M343.3736 126.9692c0 2.872-4.0956 5.4267-6.6055 5.4267-2.5098 0-2.492-2.5548-2.492-5.4267 0-2.872 2.039-5.2041 4.5488-5.2041 2.5099 0 4.5487 2.3098 4.5487 5.204z" fill="#FBAD83"/>
    <path d="M341.7887 125.8027c-.322-1.6875-2.8198-2.7439-4.1738-2.4781-1.354.2657 2.202 1.229 2.524 2.91.322 1.6809-1.5775 3.3618-.2235 3.096 1.354-.2657 2.1954-1.847 1.8733-3.5279z" fill="#E68D5C"/>
    <path d="M324.564 120.2464c.273-.0007.5129-.1743.5897-.4267.0769-.2524-.0277-.5234-.2569-.6662l-5.3914-3.3676a.6356.6356 0 00-.4867-.0773l-3.9927 1.0038c-.33.0837-.5273.4094-.4406.7276.0868.3182.4247.5083.7548.4247l3.7278-.9385 5.1634 3.2252a.633.633 0 00.3327.095zM303.0174 118.7277a.5472.5472 0 00.3003-.091l2.6632-1.763 3.336.8986a.5492.5492 0 00.5379-.1503.5794.5794 0 00.1417-.5516c-.0524-.1966-.2034-.3496-.3961-.4014l-3.6028-.9611a.5455.5455 0 00-.4393.0739l-2.8689 1.8995c-.2077.1372-.3019.3983-.231.6406.0708.2423.2895.4077.5368.4058h.0222z" fill="#F76A00"/>
    <path d="M337.2215 150.5917c4.576.0934 8.4931-3.2941 9.1035-7.873.6104-4.5787-2.2803-8.891-6.718-10.0218-.1554-.0424-.3153.0504-.3573.2072-.042.1569.05.3183.2054.3607 4.2863 1.1817 6.9307 5.5158 6.0472 9.9114-.8835 4.3956-4.9922 7.3467-9.3958 6.7488-4.4037-.598-7.5937-4.5401-7.2951-9.0151.2986-4.475 3.9836-7.9497 8.427-7.9461.1553 0 .2813-.1272.2813-.284 0-.1568-.126-.284-.2813-.284-4.9856 0-9.0272 4.0797-9.0272 9.1122 0 5.0324 4.0416 9.112 9.0272 9.112l-.017-.0283z" fill="#FFF"/>
    <path d="M155.3592 70.1299v25.6035s4.2728 3.6527 11.7864 3.215c6.957-.4026 8.0585-2.9174 8.0585-2.9174l2.8988-13.2802-22.7205-12.5976" fill="#FBAD83"/>
    <path d="M175.6829 94.4056c-2.8796-1.1411-5.5658-2.6942-7.9685-4.6072-3.6248-2.6937-6.3416-6.3676-7.8065-10.5564l15.793 2.9049 2.402 1.2897-2.474 10.9922" fill="#E68D5C"/>
    <path fill="#1A2249" d="M194.7816 56.1696h-13.6462v1h13.6462z"/>
    <path d="M191.0127 37.985s2.2526 5.5067 2.2526 10.3242c0 3.8811-1.5852 11.1899-1.5852 11.1899l-9.0285-22.7803 8.361 1.2663z" fill="#7A4029"/>
    <path d="M190.1498 80.4012c-7.0378 14.626-24.4682 5.9839-31.94-1.393-7.472-7.3769-6.4514-35.5669-4.3694-40.9065 2.082-5.3397 19.354-9.6695 28.4329-6.2277 9.0788 3.4417 14.9026 33.8953 7.8765 48.5272" fill="#FBAD83"/>
    <path d="M193.2653 70.1299c-.3628 3.5525-1.3144 7.026-2.8185 10.288-2.8666 5.7928-7.416 7.9362-12.344 7.9362 4.922 0 9.4774-2.1318 12.338-7.9362 1.5041-3.262 2.4557-6.7355 2.8185-10.288" fill="#D7C5BE"/>
    <path d="M152.3267 59.499h7.6842s5.0866 13.8203 9.4522 15.1484a3.874 3.874 0 001.0757.1482c3.639 0 8.4796-4.5771 14.5903-4.8439.5722 0 1.0757-.0415 1.5391-.0415 2.6149 0 3.7878.4032 5.0809 1.3103-.3454 3.636-1.2514 7.191-2.6835 10.5297-2.7235 5.9289-7.0605 8.1225-11.7466 8.1225-7.1006 0-15.0194-5.004-19.408-9.5455-3.5245-3.6462-5.1094-12.2727-5.5728-20.8281" fill="#D48C68"/>
    <path d="M154.6533 60.716c2.51-.238 4.8186-1.5105 6.3976-3.5263 1.579-2.0157 2.2932-4.6024 1.9793-7.1682-.3923-3.2314-1.3211-4.267-.502-7.3269 1.604-6.1077 8.7694-5.5336 13.581-3.2491 4.8115 2.2845 10.0673 2.2726 14.2096-.941 1.973-1.527 4.4539-5.7822 1.7712-10.2269-2.6827-4.4446-12.225-9.783-12.225-9.783s1.1538 2.6692.773 4.054c-.3808 1.385-25.7367-6.4331-30.929 5.1253-5.1923 11.5585 1.7308 33.3439 1.7308 33.3439l3.2135-.3019z" fill="#7A4029"/>
    <path d="M150.8105 61.635c0 3.6956 4.7886 6.9762 7.726 6.9762 2.9375 0 2.8877-3.2806 2.8877-6.9762 0-3.6957-2.3833-6.692-5.3208-6.692-2.9374 0-5.293 2.9963-5.293 6.692z" fill="#FBAD83"/>
    <path d="M152.3626 60.3682c-.2978 1.5656 1.323 3.3948 2.4799 3.6638 1.157.269-1.3327-1.8669-1.03-3.4325.3026-1.5656 2.353-2.308 1.196-2.577-1.157-.269-2.3433.78-2.646 2.3457z" fill="#E68D5C"/>
    <path d="M189.4747 64.0551c2.926 0 5.3069-3.0648 5.3069-6.834 0-3.7693-2.3808-6.8341-5.3069-6.8341-2.926 0-5.3068 3.0648-5.3068 6.834 0 3.7693 2.411 6.8341 5.3068 6.8341zm0-13.066c2.5929 0 4.701 2.7938 4.701 6.232 0 3.438-2.1081 6.232-4.701 6.232-2.5928 0-4.701-2.8-4.701-6.232 0-3.4321 2.1385-6.232 4.701-6.232zM177.3448 64.0551c2.926 0 5.3068-3.0648 5.3068-6.834 0-3.7693-2.3808-6.8341-5.3068-6.8341s-5.3069 3.0648-5.3069 6.834c0 3.7693 2.3808 6.8341 5.3069 6.8341zm0-13.066c2.5928 0 4.701 2.7938 4.701 6.232 0 3.438-2.1082 6.232-4.701 6.232-2.5929 0-4.701-2.8-4.701-6.232 0-3.4321 2.1081-6.232 4.701-6.232z" fill="#1A2249"/>
    <path fill="#1A2249" d="M172.038 56.1696h-12.13v1h12.13zM184.1678 56.1696h-3.0325v1h3.0325z"/>
    <path d="M188.7166 73.1672H178.103s2.1273 4.4333 5.7334 4.5538c3.6062.1205 4.8803-4.5538 4.8803-4.5538z" fill="#FFF"/>
    <path d="M115.3205 136.952l17.1375 5.8091-8.2733 32.7929 18.3785 70.5526 5.2122 3.0266s.2954 7.552-5.3954 9.0042c-5.6908 1.4523-7.7532-2.6838-7.7532-2.6838v-5.5362c-4.5562-11.3163-27.42-68.2347-27.7746-71.9061-.396-4.078 8.4683-41.0594 8.4683-41.0594z" fill="#FBAD83"/>
    <path d="M135.5804 143.7269s6.7585-19.4055 3.9203-27.2343c-2.0459-5.6446-5.9957-7.5472-9.0409-8.3405-3.0451-.7932-10.4836 7.007-14.5162 20.6183-2.791 9.4268-3.0393 10.4385-3.0393 10.4385s14.055 7.8346 22.6761 4.518z" fill="#60D6E6"/>
    <path d="M149.8375 96.7392s-1.7034-1.7814-6.0867 0c-4.3833 1.7815-5.269 4.703-5.0363 7.6306.2328 2.9275 5.5927 4.412 8.9767 3.4204 3.384-.9917 6.382-4.8515 6.1378-6.4192-.2441-1.5677-3.9915-4.6318-3.9915-4.6318zM365.3036 171.4415c1.996-1.2546 3.3556-3.2916 3.7373-5.5992.3818-2.3076-.2505-4.6667-1.7382-6.4846-.177-.2202-.3655-.4348-.5711-.655-3.9126-4.2914-7.5624-4.0373-10.6924-2.5297-3.13 1.5077-2.376 8.261.2285 11.7111 2.6045 3.4501 7.2025 4.6246 8.8303 3.6873l.2056-.1299z" fill="#D6815B"/>
    <path fill="#FFF" d="M285.7563 73.1672l-7.2369 10.6308-7.5218-5.6848-7.985 3.9934 1.0687-8.634z"/>
    <path d="M285.7563 45.831v26.955s-4.5618 3.841-12.5884 3.3802c-7.4231-.426-8.6013-3.0922-8.6013-3.0922l-3.0702-13.9815 24.26-13.2616z" fill="#D6815B"/>
    <path d="M264.1235 71.464c4.117.8941 8.8745-1.607 12.4291-4.365 6.5527-5.084 9.2037-15.1933 9.2037-15.1933l-21.6807 6.3636-2.5792 1.385 2.627 11.8098z" fill="#B76342"/>
    <path d="M249.5672 13.1739s-3.4614 1.36-3.2213 10.074c.1172 4.1215 1.58 11.9522 1.58 11.9522l9.0218-24.2989-7.3805 2.2727z" fill="#1A2249"/>
    <path d="M248.1709 58.5085c7.5478 15.7864 26.2816 6.4578 34.3079-1.497 8.0262-7.955 6.91-38.3655 4.6893-44.1364-2.2206-5.771-20.7595-10.4383-30.5398-6.7162-9.7803 3.722-16.0053 36.5572-8.4574 52.3496z" fill="#D6815B"/>
    <path d="M277.0889 32.1628s-2.0396 17.4585-6.7484 18.8547c-4.0445 1.1733-9.62-4.6404-16.871-4.9513-4.0445-.176-5.4947.2112-7.1356 1.3376a36.3763 36.3763 0 002.889 11.111c7.3839 15.7748 25.7109 6.453 33.5628-1.496 3.7787-3.86 5.512-12.9706 6.0031-21.9932l-11.7-2.8628z" fill="#1A2249"/>
    <path d="M279.939 38.0525s-2.2984.2245-3.2365-1.1165c-.9381-1.341 1.759-8.9147-.9674-16.949-1.9407-5.755-10.7648-9.0528-17.9882-7.66-7.2234 1.3927-9.041 2.02-9.7797-.0403-.7388-2.0604 2.1635-6.9062 4.6905-8.8227 2.527-1.9165 14.2533-5.3062 24.039-1.3812 9.7855 3.925 11.7262 6.532 13.9425 12.7592 2.2163 6.227.7798 21.8293 0 22.825-.7798.9956-10.7003.3855-10.7003.3855z" fill="#1A2249"/>
    <path d="M290.305 38.0776c0 4.1047-5.4575 7.7533-8.8056 7.7533-3.348 0-3.3243-3.6486-3.3243-7.7533s2.714-7.4335 6.068-7.4335c3.3539 0 6.062 3.3288 6.062 7.4335z" fill="#D6815B"/>
    <path d="M244.8177 47.3496s0 18.9717 2.2836 22.3946c2.2837 3.423 9.771 4.1622 13.1608 2.736 3.3898-1.4262 8.9206-6.5722 10.2705-10.9266 1.35-4.3543-20.0712-10.5948-20.0712-10.5948l-5.6437-3.6092z" fill="#1A2249"/>
    <path d="M288.7335 35.1461c.4536 1.9532-1.9796 4.2403-3.7185 4.5806-1.739.3402 2.0001-2.3313 1.5465-4.2908-.4537-1.9594-3.533-2.8793-1.794-3.2196 1.739-.3402 3.5192.9766 3.966 2.9298z" fill="#8E4A2F"/>
    <path d="M249.3664 54.1052s7.9721.2291 9.2988-.229l1.315-.4519s-.0354 4.2063-3.7325 5.6572c-3.6972 1.4509-5.7197-1.2282-6.215-2.7109-.4953-1.4827-.6663-2.2654-.6663-2.2654z" fill="#FFF"/>
    <path d="M251.832 29.1069c.277-.0029.5123-.191.5587-.4468.0465-.2558-.109-.5061-.3696-.5946a12.6768 12.6768 0 00-6.7587 0c-.2067.0445-.3702.1922-.4251.384-.055.1917.0076.3962.1626.5316.155.1355.3773.1797.5777.115a11.7075 11.7075 0 016.0651 0c.062.0134.126.017.1892.0108zM263.9874 30.6441a.5586.5586 0 00.3558-.1223c.2247-.1843.2488-.5056.054-.718-.1294-.1376-3.17-3.3715-8.5879-1.7367-.1839.0546-.323.1977-.365.3755-.0419.1778.0198.3632.1618.4864.142.1231.3428.1654.5267.1108 4.7279-1.426 7.3425 1.314 7.4503 1.4311.1022.11.2495.173.4043.1732z" fill="#1A2249"/>
  </g>
</svg>
